G04 #@! TF.FileFunction,Other,User*
%FSLAX46Y46*%
G04 Gerber Fmt 4.6, Leading zero omitted, Abs format (unit mm)*
G04 Created by KiCad (PCBNEW (2016-11-21 revision f7cc0a9)-makepkg) date 06/05/17 10:20:10*
%MOMM*%
%LPD*%
G01*
G04 APERTURE LIST*
%ADD10C,0.100000*%
%ADD11C,0.050000*%
%ADD12C,0.150000*%
G04 APERTURE END LIST*
D10*
D11*
X123250000Y-68900000D02*
X123250000Y-69600000D01*
X123600000Y-69250000D02*
X122900000Y-69250000D01*
X125230000Y-70760000D02*
X121270000Y-70760000D01*
X125230000Y-67740000D02*
X125230000Y-70760000D01*
X121270000Y-67740000D02*
X125230000Y-67740000D01*
X121270000Y-70760000D02*
X121270000Y-67740000D01*
X123500000Y-69250000D02*
G75*
G03X123500000Y-69250000I-250000J0D01*
G01*
X123250000Y-65400000D02*
X123250000Y-66100000D01*
X123600000Y-65750000D02*
X122900000Y-65750000D01*
X125230000Y-67260000D02*
X121270000Y-67260000D01*
X125230000Y-64240000D02*
X125230000Y-67260000D01*
X121270000Y-64240000D02*
X125230000Y-64240000D01*
X121270000Y-67260000D02*
X121270000Y-64240000D01*
X123500000Y-65750000D02*
G75*
G03X123500000Y-65750000I-250000J0D01*
G01*
X123250000Y-53650000D02*
X123250000Y-54350000D01*
X123600000Y-54000000D02*
X122900000Y-54000000D01*
X125230000Y-55510000D02*
X121270000Y-55510000D01*
X125230000Y-52490000D02*
X125230000Y-55510000D01*
X121270000Y-52490000D02*
X125230000Y-52490000D01*
X121270000Y-55510000D02*
X121270000Y-52490000D01*
X123500000Y-54000000D02*
G75*
G03X123500000Y-54000000I-250000J0D01*
G01*
X123250000Y-57150000D02*
X123250000Y-57850000D01*
X123600000Y-57500000D02*
X122900000Y-57500000D01*
X125230000Y-59010000D02*
X121270000Y-59010000D01*
X125230000Y-55990000D02*
X125230000Y-59010000D01*
X121270000Y-55990000D02*
X125230000Y-55990000D01*
X121270000Y-59010000D02*
X121270000Y-55990000D01*
X123500000Y-57500000D02*
G75*
G03X123500000Y-57500000I-250000J0D01*
G01*
X132920000Y-62580000D02*
X133600000Y-62580000D01*
X132920000Y-61900000D02*
X132920000Y-62580000D01*
X132620000Y-61900000D02*
X132920000Y-61900000D01*
X132620000Y-58600000D02*
X132620000Y-61900000D01*
X132920000Y-58600000D02*
X132620000Y-58600000D01*
X132920000Y-57920000D02*
X132920000Y-58600000D01*
X133600000Y-57920000D02*
X132920000Y-57920000D01*
X133600000Y-57620000D02*
X133600000Y-57920000D01*
X137900000Y-57620000D02*
X133600000Y-57620000D01*
X137900000Y-57920000D02*
X137900000Y-57620000D01*
X138580000Y-57920000D02*
X137900000Y-57920000D01*
X138580000Y-58600000D02*
X138580000Y-57920000D01*
X138880000Y-58600000D02*
X138580000Y-58600000D01*
X138880000Y-61900000D02*
X138880000Y-58600000D01*
X138580000Y-61900000D02*
X138880000Y-61900000D01*
X138580000Y-62580000D02*
X138580000Y-61900000D01*
X137900000Y-62580000D02*
X138580000Y-62580000D01*
X137900000Y-62880000D02*
X137900000Y-62580000D01*
X133600000Y-62880000D02*
X137900000Y-62880000D01*
X133600000Y-62580000D02*
X133600000Y-62880000D01*
X135400000Y-60250000D02*
X136100000Y-60250000D01*
X135750000Y-59900000D02*
X135750000Y-60600000D01*
X136000000Y-60250000D02*
G75*
G03X136000000Y-60250000I-250000J0D01*
G01*
X134665185Y-95241523D02*
X134665185Y-94691523D01*
X134115185Y-95241523D02*
X134665185Y-95241523D01*
X134115185Y-95541523D02*
X134115185Y-95241523D01*
X130555185Y-95541523D02*
X134115185Y-95541523D01*
X130555185Y-95241523D02*
X130555185Y-95541523D01*
X130005185Y-95241523D02*
X130555185Y-95241523D01*
X130005185Y-94691523D02*
X130005185Y-95241523D01*
X129705185Y-94691523D02*
X130005185Y-94691523D01*
X129705185Y-91131523D02*
X129705185Y-94691523D01*
X130005185Y-91131523D02*
X129705185Y-91131523D01*
X130005185Y-90581523D02*
X130005185Y-91131523D01*
X130555185Y-90581523D02*
X130005185Y-90581523D01*
X130555185Y-90281523D02*
X130555185Y-90581523D01*
X134115185Y-90281523D02*
X130555185Y-90281523D01*
X134115185Y-90581523D02*
X134115185Y-90281523D01*
X134665185Y-90581523D02*
X134115185Y-90581523D01*
X134665185Y-91131523D02*
X134665185Y-90581523D01*
X134965185Y-91131523D02*
X134665185Y-91131523D01*
X134965185Y-94691523D02*
X134965185Y-91131523D01*
X134665185Y-94691523D02*
X134965185Y-94691523D01*
X132335185Y-93261523D02*
X132335185Y-92561523D01*
X131985185Y-92911523D02*
X132685185Y-92911523D01*
X132585185Y-92911523D02*
G75*
G03X132585185Y-92911523I-250000J0D01*
G01*
D12*
X119250000Y-85500000D02*
X98750000Y-85500000D01*
X119250000Y-69500000D02*
X119250000Y-85500000D01*
X98750000Y-69500000D02*
X119250000Y-69500000D01*
X98750000Y-85500000D02*
X98750000Y-69500000D01*
D11*
X123130000Y-86260000D02*
X116660000Y-86260000D01*
X123130000Y-86830000D02*
X123130000Y-86260000D01*
X124480000Y-86830000D02*
X123130000Y-86830000D01*
X124480000Y-92670000D02*
X124480000Y-86830000D01*
X123130000Y-92670000D02*
X124480000Y-92670000D01*
X123130000Y-93240000D02*
X123130000Y-92670000D01*
X116660000Y-93240000D02*
X123130000Y-93240000D01*
X116660000Y-92750000D02*
X116660000Y-93240000D01*
X113520000Y-92750000D02*
X116660000Y-92750000D01*
X113520000Y-86750000D02*
X113520000Y-92750000D01*
X116660000Y-86750000D02*
X113520000Y-86750000D01*
X116660000Y-86260000D02*
X116660000Y-86750000D01*
X119000000Y-89400000D02*
X119000000Y-90100000D01*
X119350000Y-89750000D02*
X118650000Y-89750000D01*
X119250000Y-89750000D02*
G75*
G03X119250000Y-89750000I-250000J0D01*
G01*
X111220000Y-86200000D02*
X104520000Y-86200000D01*
X111220000Y-86770000D02*
X111220000Y-86200000D01*
X112360000Y-86770000D02*
X111220000Y-86770000D01*
X112360000Y-92730000D02*
X112360000Y-86770000D01*
X111220000Y-92730000D02*
X112360000Y-92730000D01*
X111220000Y-93300000D02*
X111220000Y-92730000D01*
X104520000Y-93300000D02*
X111220000Y-93300000D01*
X104520000Y-92680000D02*
X104520000Y-93300000D01*
X101040000Y-92680000D02*
X104520000Y-92680000D01*
X101040000Y-86820000D02*
X101040000Y-92680000D01*
X104520000Y-86820000D02*
X101040000Y-86820000D01*
X104520000Y-86200000D02*
X104520000Y-86820000D01*
X106700000Y-89400000D02*
X106700000Y-90100000D01*
X107050000Y-89750000D02*
X106350000Y-89750000D01*
X106950000Y-89750000D02*
G75*
G03X106950000Y-89750000I-250000J0D01*
G01*
D12*
X138000000Y-72000000D02*
X138000000Y-83500000D01*
X138000000Y-72000000D02*
X129500000Y-72000000D01*
X129500000Y-72000000D02*
X129500000Y-83500000D01*
X129500000Y-83500000D02*
X138000000Y-83500000D01*
D11*
X119920000Y-65500000D02*
X116580000Y-65500000D01*
X119920000Y-65980000D02*
X119920000Y-65500000D01*
X120120000Y-65980000D02*
X119920000Y-65980000D01*
X120120000Y-68520000D02*
X120120000Y-65980000D01*
X119920000Y-68520000D02*
X120120000Y-68520000D01*
X119920000Y-69000000D02*
X119920000Y-68520000D01*
X116580000Y-69000000D02*
X119920000Y-69000000D01*
X116580000Y-68520000D02*
X116580000Y-69000000D01*
X116380000Y-68520000D02*
X116580000Y-68520000D01*
X116380000Y-65980000D02*
X116380000Y-68520000D01*
X116580000Y-65980000D02*
X116380000Y-65980000D01*
X116580000Y-65500000D02*
X116580000Y-65980000D01*
X118250000Y-66900000D02*
X118250000Y-67600000D01*
X118600000Y-67250000D02*
X117900000Y-67250000D01*
X118500000Y-67250000D02*
G75*
G03X118500000Y-67250000I-250000J0D01*
G01*
X116580000Y-65250000D02*
X119920000Y-65250000D01*
X116580000Y-64770000D02*
X116580000Y-65250000D01*
X116380000Y-64770000D02*
X116580000Y-64770000D01*
X116380000Y-62230000D02*
X116380000Y-64770000D01*
X116580000Y-62230000D02*
X116380000Y-62230000D01*
X116580000Y-61750000D02*
X116580000Y-62230000D01*
X119920000Y-61750000D02*
X116580000Y-61750000D01*
X119920000Y-62230000D02*
X119920000Y-61750000D01*
X120120000Y-62230000D02*
X119920000Y-62230000D01*
X120120000Y-64770000D02*
X120120000Y-62230000D01*
X119920000Y-64770000D02*
X120120000Y-64770000D01*
X119920000Y-65250000D02*
X119920000Y-64770000D01*
X118250000Y-63850000D02*
X118250000Y-63150000D01*
X117900000Y-63500000D02*
X118600000Y-63500000D01*
X118500000Y-63500000D02*
G75*
G03X118500000Y-63500000I-250000J0D01*
G01*
X119920000Y-54250000D02*
X116580000Y-54250000D01*
X119920000Y-54730000D02*
X119920000Y-54250000D01*
X120120000Y-54730000D02*
X119920000Y-54730000D01*
X120120000Y-57270000D02*
X120120000Y-54730000D01*
X119920000Y-57270000D02*
X120120000Y-57270000D01*
X119920000Y-57750000D02*
X119920000Y-57270000D01*
X116580000Y-57750000D02*
X119920000Y-57750000D01*
X116580000Y-57270000D02*
X116580000Y-57750000D01*
X116380000Y-57270000D02*
X116580000Y-57270000D01*
X116380000Y-54730000D02*
X116380000Y-57270000D01*
X116580000Y-54730000D02*
X116380000Y-54730000D01*
X116580000Y-54250000D02*
X116580000Y-54730000D01*
X118250000Y-55650000D02*
X118250000Y-56350000D01*
X118600000Y-56000000D02*
X117900000Y-56000000D01*
X118500000Y-56000000D02*
G75*
G03X118500000Y-56000000I-250000J0D01*
G01*
X129830000Y-102750000D02*
X133170000Y-102750000D01*
X129830000Y-102270000D02*
X129830000Y-102750000D01*
X129630000Y-102270000D02*
X129830000Y-102270000D01*
X129630000Y-99730000D02*
X129630000Y-102270000D01*
X129830000Y-99730000D02*
X129630000Y-99730000D01*
X129830000Y-99250000D02*
X129830000Y-99730000D01*
X133170000Y-99250000D02*
X129830000Y-99250000D01*
X133170000Y-99730000D02*
X133170000Y-99250000D01*
X133370000Y-99730000D02*
X133170000Y-99730000D01*
X133370000Y-102270000D02*
X133370000Y-99730000D01*
X133170000Y-102270000D02*
X133370000Y-102270000D01*
X133170000Y-102750000D02*
X133170000Y-102270000D01*
X131500000Y-101350000D02*
X131500000Y-100650000D01*
X131150000Y-101000000D02*
X131850000Y-101000000D01*
X131750000Y-101000000D02*
G75*
G03X131750000Y-101000000I-250000J0D01*
G01*
X138170000Y-99250000D02*
X134830000Y-99250000D01*
X138170000Y-99730000D02*
X138170000Y-99250000D01*
X138370000Y-99730000D02*
X138170000Y-99730000D01*
X138370000Y-102270000D02*
X138370000Y-99730000D01*
X138170000Y-102270000D02*
X138370000Y-102270000D01*
X138170000Y-102750000D02*
X138170000Y-102270000D01*
X134830000Y-102750000D02*
X138170000Y-102750000D01*
X134830000Y-102270000D02*
X134830000Y-102750000D01*
X134630000Y-102270000D02*
X134830000Y-102270000D01*
X134630000Y-99730000D02*
X134630000Y-102270000D01*
X134830000Y-99730000D02*
X134630000Y-99730000D01*
X134830000Y-99250000D02*
X134830000Y-99730000D01*
X136500000Y-100650000D02*
X136500000Y-101350000D01*
X136850000Y-101000000D02*
X136150000Y-101000000D01*
X136750000Y-101000000D02*
G75*
G03X136750000Y-101000000I-250000J0D01*
G01*
X116580000Y-61500000D02*
X119920000Y-61500000D01*
X116580000Y-61020000D02*
X116580000Y-61500000D01*
X116380000Y-61020000D02*
X116580000Y-61020000D01*
X116380000Y-58480000D02*
X116380000Y-61020000D01*
X116580000Y-58480000D02*
X116380000Y-58480000D01*
X116580000Y-58000000D02*
X116580000Y-58480000D01*
X119920000Y-58000000D02*
X116580000Y-58000000D01*
X119920000Y-58480000D02*
X119920000Y-58000000D01*
X120120000Y-58480000D02*
X119920000Y-58480000D01*
X120120000Y-61020000D02*
X120120000Y-58480000D01*
X119920000Y-61020000D02*
X120120000Y-61020000D01*
X119920000Y-61500000D02*
X119920000Y-61020000D01*
X118250000Y-60100000D02*
X118250000Y-59400000D01*
X117900000Y-59750000D02*
X118600000Y-59750000D01*
X118500000Y-59750000D02*
G75*
G03X118500000Y-59750000I-250000J0D01*
G01*
X108100000Y-61000000D02*
X107400000Y-61000000D01*
X107750000Y-61350000D02*
X107750000Y-60650000D01*
X108000000Y-61000000D02*
G75*
G03X108000000Y-61000000I-250000J0D01*
G01*
X100800000Y-68600000D02*
X100800000Y-53400000D01*
X114700000Y-68600000D02*
X100800000Y-68600000D01*
X114700000Y-53400000D02*
X114700000Y-68600000D01*
X100800000Y-53400000D02*
X114700000Y-53400000D01*
X107525000Y-94325000D02*
X104475000Y-94325000D01*
X107525000Y-98475000D02*
X107525000Y-94325000D01*
X104475000Y-98475000D02*
X107525000Y-98475000D01*
X104475000Y-94325000D02*
X104475000Y-98475000D01*
X105650000Y-96400000D02*
X106350000Y-96400000D01*
X106000000Y-96050000D02*
X106000000Y-96750000D01*
X106250000Y-96400000D02*
G75*
G03X106250000Y-96400000I-250000J0D01*
G01*
X138525000Y-76250000D02*
X138975000Y-76250000D01*
X138750000Y-76025000D02*
X138750000Y-76475000D01*
X139200000Y-75400000D02*
X139200000Y-77100000D01*
X138300000Y-75400000D02*
X139200000Y-75400000D01*
X138300000Y-77100000D02*
X138300000Y-75400000D01*
X139200000Y-77100000D02*
X138300000Y-77100000D01*
X138918800Y-76250000D02*
G75*
G03X138918800Y-76250000I-168800J0D01*
G01*
X118250000Y-53600000D02*
X118250000Y-52900000D01*
X117900000Y-53250000D02*
X118600000Y-53250000D01*
X116540000Y-52450000D02*
X119960000Y-52450000D01*
X116540000Y-54050000D02*
X116540000Y-52450000D01*
X119960000Y-54050000D02*
X116540000Y-54050000D01*
X119960000Y-52450000D02*
X119960000Y-54050000D01*
X118500000Y-53250000D02*
G75*
G03X118500000Y-53250000I-250000J0D01*
G01*
X129500000Y-68900000D02*
X129500000Y-69600000D01*
X129850000Y-69250000D02*
X129150000Y-69250000D01*
X131210000Y-70050000D02*
X127790000Y-70050000D01*
X131210000Y-68450000D02*
X131210000Y-70050000D01*
X127790000Y-68450000D02*
X131210000Y-68450000D01*
X127790000Y-70050000D02*
X127790000Y-68450000D01*
X129750000Y-69250000D02*
G75*
G03X129750000Y-69250000I-250000J0D01*
G01*
X129900000Y-56000000D02*
X130600000Y-56000000D01*
X130250000Y-55650000D02*
X130250000Y-56350000D01*
X131050000Y-54290000D02*
X131050000Y-57710000D01*
X129450000Y-54290000D02*
X131050000Y-54290000D01*
X129450000Y-57710000D02*
X129450000Y-54290000D01*
X131050000Y-57710000D02*
X129450000Y-57710000D01*
X130500000Y-56000000D02*
G75*
G03X130500000Y-56000000I-250000J0D01*
G01*
X140630000Y-55650000D02*
X140630000Y-56350000D01*
X140980000Y-56000000D02*
X140280000Y-56000000D01*
X142340000Y-56800000D02*
X138920000Y-56800000D01*
X142340000Y-55200000D02*
X142340000Y-56800000D01*
X138920000Y-55200000D02*
X142340000Y-55200000D01*
X138920000Y-56800000D02*
X138920000Y-55200000D01*
X140880000Y-56000000D02*
G75*
G03X140880000Y-56000000I-250000J0D01*
G01*
X121850000Y-82600000D02*
G75*
G03X121850000Y-82600000I-250000J0D01*
G01*
X121600000Y-82250000D02*
X121600000Y-82950000D01*
X121250000Y-82600000D02*
X121950000Y-82600000D01*
X119980000Y-83420000D02*
X120240000Y-83420000D01*
X120240000Y-83420000D02*
X120240000Y-84140000D01*
X120240000Y-84140000D02*
X122960000Y-84140000D01*
X122960000Y-84140000D02*
X122960000Y-83420000D01*
X122960000Y-83420000D02*
X123220000Y-83420000D01*
X123220000Y-83420000D02*
X123220000Y-81780000D01*
X123220000Y-81780000D02*
X122010000Y-81780000D01*
X122010000Y-81780000D02*
X122010000Y-81060000D01*
X122010000Y-81060000D02*
X121190000Y-81060000D01*
X121190000Y-81060000D02*
X121190000Y-81780000D01*
X121190000Y-81780000D02*
X119980000Y-81780000D01*
X119980000Y-81780000D02*
X119980000Y-83420000D01*
X113630000Y-100430000D02*
X113630000Y-102070000D01*
X114840000Y-100430000D02*
X113630000Y-100430000D01*
X114840000Y-99710000D02*
X114840000Y-100430000D01*
X115660000Y-99710000D02*
X114840000Y-99710000D01*
X115660000Y-100430000D02*
X115660000Y-99710000D01*
X116870000Y-100430000D02*
X115660000Y-100430000D01*
X116870000Y-102070000D02*
X116870000Y-100430000D01*
X116610000Y-102070000D02*
X116870000Y-102070000D01*
X116610000Y-102790000D02*
X116610000Y-102070000D01*
X113890000Y-102790000D02*
X116610000Y-102790000D01*
X113890000Y-102070000D02*
X113890000Y-102790000D01*
X113630000Y-102070000D02*
X113890000Y-102070000D01*
X114900000Y-101250000D02*
X115600000Y-101250000D01*
X115250000Y-100900000D02*
X115250000Y-101600000D01*
X115500000Y-101250000D02*
G75*
G03X115500000Y-101250000I-250000J0D01*
G01*
X137800000Y-86550000D02*
X137800000Y-85850000D01*
X137450000Y-86200000D02*
X138150000Y-86200000D01*
X134695000Y-84110000D02*
X140905000Y-84110000D01*
X134695000Y-88290000D02*
X134695000Y-84110000D01*
X140905000Y-88290000D02*
X134695000Y-88290000D01*
X140905000Y-84110000D02*
X140905000Y-88290000D01*
X138050000Y-86200000D02*
G75*
G03X138050000Y-86200000I-250000J0D01*
G01*
X110100000Y-97000000D02*
X109400000Y-97000000D01*
X109750000Y-97350000D02*
X109750000Y-96650000D01*
X108780000Y-99330000D02*
X108780000Y-94670000D01*
X110720000Y-99330000D02*
X108780000Y-99330000D01*
X110720000Y-94670000D02*
X110720000Y-99330000D01*
X108780000Y-94670000D02*
X110720000Y-94670000D01*
X110000000Y-97000000D02*
G75*
G03X110000000Y-97000000I-250000J0D01*
G01*
X115600000Y-97000000D02*
X114900000Y-97000000D01*
X115250000Y-97350000D02*
X115250000Y-96650000D01*
X114280000Y-99330000D02*
X114280000Y-94670000D01*
X116220000Y-99330000D02*
X114280000Y-99330000D01*
X116220000Y-94670000D02*
X116220000Y-99330000D01*
X114280000Y-94670000D02*
X116220000Y-94670000D01*
X115500000Y-97000000D02*
G75*
G03X115500000Y-97000000I-250000J0D01*
G01*
X140850000Y-98000000D02*
X140150000Y-98000000D01*
X140500000Y-98350000D02*
X140500000Y-97650000D01*
X139640000Y-99340000D02*
X139640000Y-96660000D01*
X141360000Y-99340000D02*
X139640000Y-99340000D01*
X141360000Y-96660000D02*
X141360000Y-99340000D01*
X139640000Y-96660000D02*
X141360000Y-96660000D01*
X140750000Y-98000000D02*
G75*
G03X140750000Y-98000000I-250000J0D01*
G01*
X137500000Y-96100000D02*
X137500000Y-95400000D01*
X137150000Y-95750000D02*
X137850000Y-95750000D01*
X136160000Y-94890000D02*
X138840000Y-94890000D01*
X136160000Y-96610000D02*
X136160000Y-94890000D01*
X138840000Y-96610000D02*
X136160000Y-96610000D01*
X138840000Y-94890000D02*
X138840000Y-96610000D01*
X137750000Y-95750000D02*
G75*
G03X137750000Y-95750000I-250000J0D01*
G01*
X112600000Y-96000000D02*
X111900000Y-96000000D01*
X112250000Y-96350000D02*
X112250000Y-95650000D01*
X111390000Y-97340000D02*
X111390000Y-94660000D01*
X113110000Y-97340000D02*
X111390000Y-97340000D01*
X113110000Y-94660000D02*
X113110000Y-97340000D01*
X111390000Y-94660000D02*
X113110000Y-94660000D01*
X112500000Y-96000000D02*
G75*
G03X112500000Y-96000000I-250000J0D01*
G01*
X123250000Y-61850000D02*
X123250000Y-61150000D01*
X122900000Y-61500000D02*
X123600000Y-61500000D01*
X121310000Y-60465000D02*
X125190000Y-60465000D01*
X121310000Y-62535000D02*
X121310000Y-60465000D01*
X125190000Y-62535000D02*
X121310000Y-62535000D01*
X125190000Y-60465000D02*
X125190000Y-62535000D01*
X123500000Y-61500000D02*
G75*
G03X123500000Y-61500000I-250000J0D01*
G01*
X112600000Y-100000000D02*
X111900000Y-100000000D01*
X112250000Y-100350000D02*
X112250000Y-99650000D01*
X111215000Y-101940000D02*
X111215000Y-98060000D01*
X113285000Y-101940000D02*
X111215000Y-101940000D01*
X113285000Y-98060000D02*
X113285000Y-101940000D01*
X111215000Y-98060000D02*
X113285000Y-98060000D01*
X112500000Y-100000000D02*
G75*
G03X112500000Y-100000000I-250000J0D01*
G01*
X118350000Y-96750000D02*
X117650000Y-96750000D01*
X118000000Y-97100000D02*
X118000000Y-96400000D01*
X116965000Y-98690000D02*
X116965000Y-94810000D01*
X119035000Y-98690000D02*
X116965000Y-98690000D01*
X119035000Y-94810000D02*
X119035000Y-98690000D01*
X116965000Y-94810000D02*
X119035000Y-94810000D01*
X118250000Y-96750000D02*
G75*
G03X118250000Y-96750000I-250000J0D01*
G01*
X129500000Y-62430000D02*
X129500000Y-63070000D01*
X129820000Y-62750000D02*
X129180000Y-62750000D01*
X130620000Y-63390000D02*
X128380000Y-63390000D01*
X130620000Y-62110000D02*
X130620000Y-63390000D01*
X128380000Y-62110000D02*
X130620000Y-62110000D01*
X128380000Y-63390000D02*
X128380000Y-62110000D01*
X129740000Y-62750000D02*
G75*
G03X129740000Y-62750000I-240000J0D01*
G01*
X129500000Y-61570000D02*
X129500000Y-60930000D01*
X129180000Y-61250000D02*
X129820000Y-61250000D01*
X128380000Y-60610000D02*
X130620000Y-60610000D01*
X128380000Y-61890000D02*
X128380000Y-60610000D01*
X130620000Y-61890000D02*
X128380000Y-61890000D01*
X130620000Y-60610000D02*
X130620000Y-61890000D01*
X129740000Y-61250000D02*
G75*
G03X129740000Y-61250000I-240000J0D01*
G01*
X129500000Y-65430000D02*
X129500000Y-66070000D01*
X129820000Y-65750000D02*
X129180000Y-65750000D01*
X130620000Y-66390000D02*
X128380000Y-66390000D01*
X130620000Y-65110000D02*
X130620000Y-66390000D01*
X128380000Y-65110000D02*
X130620000Y-65110000D01*
X128380000Y-66390000D02*
X128380000Y-65110000D01*
X129740000Y-65750000D02*
G75*
G03X129740000Y-65750000I-240000J0D01*
G01*
X143820000Y-64250000D02*
X143180000Y-64250000D01*
X143500000Y-64570000D02*
X143500000Y-63930000D01*
X142860000Y-65370000D02*
X142860000Y-63130000D01*
X144140000Y-65370000D02*
X142860000Y-65370000D01*
X144140000Y-63130000D02*
X144140000Y-65370000D01*
X142860000Y-63130000D02*
X144140000Y-63130000D01*
X143740000Y-64250000D02*
G75*
G03X143740000Y-64250000I-240000J0D01*
G01*
X143820000Y-67175000D02*
X143180000Y-67175000D01*
X143500000Y-67495000D02*
X143500000Y-66855000D01*
X142860000Y-68295000D02*
X142860000Y-66055000D01*
X144140000Y-68295000D02*
X142860000Y-68295000D01*
X144140000Y-66055000D02*
X144140000Y-68295000D01*
X142860000Y-66055000D02*
X144140000Y-66055000D01*
X143740000Y-67175000D02*
G75*
G03X143740000Y-67175000I-240000J0D01*
G01*
X145320000Y-67175000D02*
X144680000Y-67175000D01*
X145000000Y-67495000D02*
X145000000Y-66855000D01*
X144360000Y-68295000D02*
X144360000Y-66055000D01*
X145640000Y-68295000D02*
X144360000Y-68295000D01*
X145640000Y-66055000D02*
X145640000Y-68295000D01*
X144360000Y-66055000D02*
X145640000Y-66055000D01*
X145240000Y-67175000D02*
G75*
G03X145240000Y-67175000I-240000J0D01*
G01*
X146820000Y-67175000D02*
X146180000Y-67175000D01*
X146500000Y-67495000D02*
X146500000Y-66855000D01*
X145860000Y-68295000D02*
X145860000Y-66055000D01*
X147140000Y-68295000D02*
X145860000Y-68295000D01*
X147140000Y-66055000D02*
X147140000Y-68295000D01*
X145860000Y-66055000D02*
X147140000Y-66055000D01*
X146740000Y-67175000D02*
G75*
G03X146740000Y-67175000I-240000J0D01*
G01*
X102675000Y-94320000D02*
X102675000Y-93680000D01*
X102355000Y-94000000D02*
X102995000Y-94000000D01*
X101555000Y-93360000D02*
X103795000Y-93360000D01*
X101555000Y-94640000D02*
X101555000Y-93360000D01*
X103795000Y-94640000D02*
X101555000Y-94640000D01*
X103795000Y-93360000D02*
X103795000Y-94640000D01*
X102915000Y-94000000D02*
G75*
G03X102915000Y-94000000I-240000J0D01*
G01*
X110070000Y-101000000D02*
X109430000Y-101000000D01*
X109750000Y-101320000D02*
X109750000Y-100680000D01*
X109110000Y-102120000D02*
X109110000Y-99880000D01*
X110390000Y-102120000D02*
X109110000Y-102120000D01*
X110390000Y-99880000D02*
X110390000Y-102120000D01*
X109110000Y-99880000D02*
X110390000Y-99880000D01*
X109990000Y-101000000D02*
G75*
G03X109990000Y-101000000I-240000J0D01*
G01*
X118320000Y-101000000D02*
X117680000Y-101000000D01*
X118000000Y-101320000D02*
X118000000Y-100680000D01*
X117360000Y-102120000D02*
X117360000Y-99880000D01*
X118640000Y-102120000D02*
X117360000Y-102120000D01*
X118640000Y-99880000D02*
X118640000Y-102120000D01*
X117360000Y-99880000D02*
X118640000Y-99880000D01*
X118240000Y-101000000D02*
G75*
G03X118240000Y-101000000I-240000J0D01*
G01*
X124640000Y-83000000D02*
G75*
G03X124640000Y-83000000I-240000J0D01*
G01*
X123760000Y-81880000D02*
X125040000Y-81880000D01*
X125040000Y-81880000D02*
X125040000Y-84120000D01*
X125040000Y-84120000D02*
X123760000Y-84120000D01*
X123760000Y-84120000D02*
X123760000Y-81880000D01*
X124400000Y-83320000D02*
X124400000Y-82680000D01*
X124720000Y-83000000D02*
X124080000Y-83000000D01*
X121600000Y-85080000D02*
X121600000Y-85720000D01*
X121920000Y-85400000D02*
X121280000Y-85400000D01*
X122720000Y-86040000D02*
X120480000Y-86040000D01*
X122720000Y-84760000D02*
X122720000Y-86040000D01*
X120480000Y-84760000D02*
X122720000Y-84760000D01*
X120480000Y-86040000D02*
X120480000Y-84760000D01*
X121840000Y-85400000D02*
G75*
G03X121840000Y-85400000I-240000J0D01*
G01*
X127250000Y-93775000D02*
X127250000Y-94225000D01*
X127475000Y-94000000D02*
X127025000Y-94000000D01*
X128100000Y-94450000D02*
X126400000Y-94450000D01*
X128100000Y-93550000D02*
X128100000Y-94450000D01*
X126400000Y-93550000D02*
X128100000Y-93550000D01*
X126400000Y-94450000D02*
X126400000Y-93550000D01*
X127418800Y-94000000D02*
G75*
G03X127418800Y-94000000I-168800J0D01*
G01*
X127418800Y-92750000D02*
G75*
G03X127418800Y-92750000I-168800J0D01*
G01*
X128100000Y-92300000D02*
X128100000Y-93200000D01*
X128100000Y-93200000D02*
X126400000Y-93200000D01*
X126400000Y-93200000D02*
X126400000Y-92300000D01*
X126400000Y-92300000D02*
X128100000Y-92300000D01*
X127025000Y-92750000D02*
X127475000Y-92750000D01*
X127250000Y-92975000D02*
X127250000Y-92525000D01*
X130918800Y-88250000D02*
G75*
G03X130918800Y-88250000I-168800J0D01*
G01*
X130300000Y-87400000D02*
X131200000Y-87400000D01*
X131200000Y-87400000D02*
X131200000Y-89100000D01*
X131200000Y-89100000D02*
X130300000Y-89100000D01*
X130300000Y-89100000D02*
X130300000Y-87400000D01*
X130750000Y-88475000D02*
X130750000Y-88025000D01*
X130975000Y-88250000D02*
X130525000Y-88250000D01*
X133275000Y-97750000D02*
X133725000Y-97750000D01*
X133500000Y-97525000D02*
X133500000Y-97975000D01*
X133950000Y-96900000D02*
X133950000Y-98600000D01*
X133050000Y-96900000D02*
X133950000Y-96900000D01*
X133050000Y-98600000D02*
X133050000Y-96900000D01*
X133950000Y-98600000D02*
X133050000Y-98600000D01*
X133668800Y-97750000D02*
G75*
G03X133668800Y-97750000I-168800J0D01*
G01*
X132475000Y-97750000D02*
X132025000Y-97750000D01*
X132250000Y-97975000D02*
X132250000Y-97525000D01*
X131800000Y-98600000D02*
X131800000Y-96900000D01*
X132700000Y-98600000D02*
X131800000Y-98600000D01*
X132700000Y-96900000D02*
X132700000Y-98600000D01*
X131800000Y-96900000D02*
X132700000Y-96900000D01*
X132418800Y-97750000D02*
G75*
G03X132418800Y-97750000I-168800J0D01*
G01*
X134525000Y-97750000D02*
X134975000Y-97750000D01*
X134750000Y-97525000D02*
X134750000Y-97975000D01*
X135200000Y-96900000D02*
X135200000Y-98600000D01*
X134300000Y-96900000D02*
X135200000Y-96900000D01*
X134300000Y-98600000D02*
X134300000Y-96900000D01*
X135200000Y-98600000D02*
X134300000Y-98600000D01*
X134918800Y-97750000D02*
G75*
G03X134918800Y-97750000I-168800J0D01*
G01*
X141250000Y-57775000D02*
X141250000Y-58225000D01*
X141475000Y-58000000D02*
X141025000Y-58000000D01*
X142100000Y-58450000D02*
X140400000Y-58450000D01*
X142100000Y-57550000D02*
X142100000Y-58450000D01*
X140400000Y-57550000D02*
X142100000Y-57550000D01*
X140400000Y-58450000D02*
X140400000Y-57550000D01*
X141418800Y-58000000D02*
G75*
G03X141418800Y-58000000I-168800J0D01*
G01*
X142500000Y-59475000D02*
X142500000Y-59025000D01*
X142275000Y-59250000D02*
X142725000Y-59250000D01*
X141650000Y-58800000D02*
X143350000Y-58800000D01*
X141650000Y-59700000D02*
X141650000Y-58800000D01*
X143350000Y-59700000D02*
X141650000Y-59700000D01*
X143350000Y-58800000D02*
X143350000Y-59700000D01*
X142668800Y-59250000D02*
G75*
G03X142668800Y-59250000I-168800J0D01*
G01*
X142500000Y-60475000D02*
X142500000Y-60025000D01*
X142275000Y-60250000D02*
X142725000Y-60250000D01*
X141650000Y-59800000D02*
X143350000Y-59800000D01*
X141650000Y-60700000D02*
X141650000Y-59800000D01*
X143350000Y-60700000D02*
X141650000Y-60700000D01*
X143350000Y-59800000D02*
X143350000Y-60700000D01*
X142668800Y-60250000D02*
G75*
G03X142668800Y-60250000I-168800J0D01*
G01*
X137500000Y-98725000D02*
X137500000Y-98275000D01*
X137275000Y-98500000D02*
X137725000Y-98500000D01*
X136650000Y-98050000D02*
X138350000Y-98050000D01*
X136650000Y-98950000D02*
X136650000Y-98050000D01*
X138350000Y-98950000D02*
X136650000Y-98950000D01*
X138350000Y-98050000D02*
X138350000Y-98950000D01*
X137668800Y-98500000D02*
G75*
G03X137668800Y-98500000I-168800J0D01*
G01*
X131975000Y-66250000D02*
X131525000Y-66250000D01*
X131750000Y-66475000D02*
X131750000Y-66025000D01*
X131300000Y-67100000D02*
X131300000Y-65400000D01*
X132200000Y-67100000D02*
X131300000Y-67100000D01*
X132200000Y-65400000D02*
X132200000Y-67100000D01*
X131300000Y-65400000D02*
X132200000Y-65400000D01*
X131918800Y-66250000D02*
G75*
G03X131918800Y-66250000I-168800J0D01*
G01*
X133225000Y-66250000D02*
X132775000Y-66250000D01*
X133000000Y-66475000D02*
X133000000Y-66025000D01*
X132550000Y-67100000D02*
X132550000Y-65400000D01*
X133450000Y-67100000D02*
X132550000Y-67100000D01*
X133450000Y-65400000D02*
X133450000Y-67100000D01*
X132550000Y-65400000D02*
X133450000Y-65400000D01*
X133168800Y-66250000D02*
G75*
G03X133168800Y-66250000I-168800J0D01*
G01*
X134475000Y-66250000D02*
X134025000Y-66250000D01*
X134250000Y-66475000D02*
X134250000Y-66025000D01*
X133800000Y-67100000D02*
X133800000Y-65400000D01*
X134700000Y-67100000D02*
X133800000Y-67100000D01*
X134700000Y-65400000D02*
X134700000Y-67100000D01*
X133800000Y-65400000D02*
X134700000Y-65400000D01*
X134418800Y-66250000D02*
G75*
G03X134418800Y-66250000I-168800J0D01*
G01*
X140275000Y-66250000D02*
X140725000Y-66250000D01*
X140500000Y-66025000D02*
X140500000Y-66475000D01*
X140950000Y-65400000D02*
X140950000Y-67100000D01*
X140050000Y-65400000D02*
X140950000Y-65400000D01*
X140050000Y-67100000D02*
X140050000Y-65400000D01*
X140950000Y-67100000D02*
X140050000Y-67100000D01*
X140668800Y-66250000D02*
G75*
G03X140668800Y-66250000I-168800J0D01*
G01*
X144250000Y-93975000D02*
X144250000Y-93525000D01*
X144025000Y-93750000D02*
X144475000Y-93750000D01*
X143400000Y-93300000D02*
X145100000Y-93300000D01*
X143400000Y-94200000D02*
X143400000Y-93300000D01*
X145100000Y-94200000D02*
X143400000Y-94200000D01*
X145100000Y-93300000D02*
X145100000Y-94200000D01*
X144418800Y-93750000D02*
G75*
G03X144418800Y-93750000I-168800J0D01*
G01*
X122250000Y-79600000D02*
G75*
G03X122250000Y-79600000I-250000J0D01*
G01*
X123980000Y-78540000D02*
X123980000Y-80660000D01*
X123980000Y-80660000D02*
X120020000Y-80660000D01*
X120020000Y-80660000D02*
X120020000Y-78540000D01*
X120020000Y-78540000D02*
X123980000Y-78540000D01*
X121650000Y-79600000D02*
X122350000Y-79600000D01*
X122000000Y-79950000D02*
X122000000Y-79250000D01*
X141250000Y-61182500D02*
X141250000Y-61817500D01*
X141567500Y-61500000D02*
X140932500Y-61500000D01*
X142410000Y-62135000D02*
X140090000Y-62135000D01*
X142410000Y-60865000D02*
X142410000Y-62135000D01*
X140090000Y-60865000D02*
X142410000Y-60865000D01*
X140090000Y-62135000D02*
X140090000Y-60865000D01*
X141488100Y-61500000D02*
G75*
G03X141488100Y-61500000I-238100J0D01*
G01*
X134500000Y-55682500D02*
X134500000Y-56317500D01*
X134817500Y-56000000D02*
X134182500Y-56000000D01*
X135660000Y-56635000D02*
X133340000Y-56635000D01*
X135660000Y-55365000D02*
X135660000Y-56635000D01*
X133340000Y-55365000D02*
X135660000Y-55365000D01*
X133340000Y-56635000D02*
X133340000Y-55365000D01*
X134738100Y-56000000D02*
G75*
G03X134738100Y-56000000I-238100J0D01*
G01*
X129500000Y-63932500D02*
X129500000Y-64567500D01*
X129817500Y-64250000D02*
X129182500Y-64250000D01*
X130660000Y-64885000D02*
X128340000Y-64885000D01*
X130660000Y-63615000D02*
X130660000Y-64885000D01*
X128340000Y-63615000D02*
X130660000Y-63615000D01*
X128340000Y-64885000D02*
X128340000Y-63615000D01*
X129738100Y-64250000D02*
G75*
G03X129738100Y-64250000I-238100J0D01*
G01*
X142317500Y-64250000D02*
X141682500Y-64250000D01*
X142000000Y-64567500D02*
X142000000Y-63932500D01*
X141365000Y-65410000D02*
X141365000Y-63090000D01*
X142635000Y-65410000D02*
X141365000Y-65410000D01*
X142635000Y-63090000D02*
X142635000Y-65410000D01*
X141365000Y-63090000D02*
X142635000Y-63090000D01*
X142238100Y-64250000D02*
G75*
G03X142238100Y-64250000I-238100J0D01*
G01*
X142317500Y-67155000D02*
X141682500Y-67155000D01*
X142000000Y-67472500D02*
X142000000Y-66837500D01*
X141365000Y-68315000D02*
X141365000Y-65995000D01*
X142635000Y-68315000D02*
X141365000Y-68315000D01*
X142635000Y-65995000D02*
X142635000Y-68315000D01*
X141365000Y-65995000D02*
X142635000Y-65995000D01*
X142238100Y-67155000D02*
G75*
G03X142238100Y-67155000I-238100J0D01*
G01*
X140725000Y-59750000D02*
X140275000Y-59750000D01*
X140500000Y-59975000D02*
X140500000Y-59525000D01*
X140050000Y-60600000D02*
X140050000Y-58900000D01*
X140950000Y-60600000D02*
X140050000Y-60600000D01*
X140950000Y-58900000D02*
X140950000Y-60600000D01*
X140050000Y-58900000D02*
X140950000Y-58900000D01*
X140668800Y-59750000D02*
G75*
G03X140668800Y-59750000I-168800J0D01*
G01*
X127250000Y-95475000D02*
X127250000Y-95025000D01*
X127025000Y-95250000D02*
X127475000Y-95250000D01*
X126400000Y-94800000D02*
X128100000Y-94800000D01*
X126400000Y-95700000D02*
X126400000Y-94800000D01*
X128100000Y-95700000D02*
X126400000Y-95700000D01*
X128100000Y-94800000D02*
X128100000Y-95700000D01*
X127418800Y-95250000D02*
G75*
G03X127418800Y-95250000I-168800J0D01*
G01*
X137668800Y-94250000D02*
G75*
G03X137668800Y-94250000I-168800J0D01*
G01*
X136650000Y-94700000D02*
X136650000Y-93800000D01*
X136650000Y-93800000D02*
X138350000Y-93800000D01*
X138350000Y-93800000D02*
X138350000Y-94700000D01*
X138350000Y-94700000D02*
X136650000Y-94700000D01*
X137725000Y-94250000D02*
X137275000Y-94250000D01*
X137500000Y-94025000D02*
X137500000Y-94475000D01*
X130500000Y-97475000D02*
X130500000Y-97025000D01*
X130275000Y-97250000D02*
X130725000Y-97250000D01*
X129650000Y-96800000D02*
X131350000Y-96800000D01*
X129650000Y-97700000D02*
X129650000Y-96800000D01*
X131350000Y-97700000D02*
X129650000Y-97700000D01*
X131350000Y-96800000D02*
X131350000Y-97700000D01*
X130668800Y-97250000D02*
G75*
G03X130668800Y-97250000I-168800J0D01*
G01*
X130500000Y-98725000D02*
X130500000Y-98275000D01*
X130275000Y-98500000D02*
X130725000Y-98500000D01*
X129650000Y-98050000D02*
X131350000Y-98050000D01*
X129650000Y-98950000D02*
X129650000Y-98050000D01*
X131350000Y-98950000D02*
X129650000Y-98950000D01*
X131350000Y-98050000D02*
X131350000Y-98950000D01*
X130668800Y-98500000D02*
G75*
G03X130668800Y-98500000I-168800J0D01*
G01*
X135725000Y-66250000D02*
X135275000Y-66250000D01*
X135500000Y-66475000D02*
X135500000Y-66025000D01*
X135050000Y-67100000D02*
X135050000Y-65400000D01*
X135950000Y-67100000D02*
X135050000Y-67100000D01*
X135950000Y-65400000D02*
X135950000Y-67100000D01*
X135050000Y-65400000D02*
X135950000Y-65400000D01*
X135668800Y-66250000D02*
G75*
G03X135668800Y-66250000I-168800J0D01*
G01*
X136975000Y-66250000D02*
X136525000Y-66250000D01*
X136750000Y-66475000D02*
X136750000Y-66025000D01*
X136300000Y-67100000D02*
X136300000Y-65400000D01*
X137200000Y-67100000D02*
X136300000Y-67100000D01*
X137200000Y-65400000D02*
X137200000Y-67100000D01*
X136300000Y-65400000D02*
X137200000Y-65400000D01*
X136918800Y-66250000D02*
G75*
G03X136918800Y-66250000I-168800J0D01*
G01*
X130475000Y-59250000D02*
X130025000Y-59250000D01*
X130250000Y-59475000D02*
X130250000Y-59025000D01*
X129800000Y-60100000D02*
X129800000Y-58400000D01*
X130700000Y-60100000D02*
X129800000Y-60100000D01*
X130700000Y-58400000D02*
X130700000Y-60100000D01*
X129800000Y-58400000D02*
X130700000Y-58400000D01*
X130418800Y-59250000D02*
G75*
G03X130418800Y-59250000I-168800J0D01*
G01*
X137250000Y-55775000D02*
X137250000Y-56225000D01*
X137475000Y-56000000D02*
X137025000Y-56000000D01*
X138100000Y-56450000D02*
X136400000Y-56450000D01*
X138100000Y-55550000D02*
X138100000Y-56450000D01*
X136400000Y-55550000D02*
X138100000Y-55550000D01*
X136400000Y-56450000D02*
X136400000Y-55550000D01*
X137418800Y-56000000D02*
G75*
G03X137418800Y-56000000I-168800J0D01*
G01*
X146225000Y-91905000D02*
X145775000Y-91905000D01*
X146000000Y-92130000D02*
X146000000Y-91680000D01*
X145550000Y-92755000D02*
X145550000Y-91055000D01*
X146450000Y-92755000D02*
X145550000Y-92755000D01*
X146450000Y-91055000D02*
X146450000Y-92755000D01*
X145550000Y-91055000D02*
X146450000Y-91055000D01*
X146168800Y-91905000D02*
G75*
G03X146168800Y-91905000I-168800J0D01*
G01*
X139025000Y-66250000D02*
X139475000Y-66250000D01*
X139250000Y-66025000D02*
X139250000Y-66475000D01*
X139700000Y-65400000D02*
X139700000Y-67100000D01*
X138800000Y-65400000D02*
X139700000Y-65400000D01*
X138800000Y-67100000D02*
X138800000Y-65400000D01*
X139700000Y-67100000D02*
X138800000Y-67100000D01*
X139418800Y-66250000D02*
G75*
G03X139418800Y-66250000I-168800J0D01*
G01*
X138225000Y-66250000D02*
X137775000Y-66250000D01*
X138000000Y-66475000D02*
X138000000Y-66025000D01*
X137550000Y-67100000D02*
X137550000Y-65400000D01*
X138450000Y-67100000D02*
X137550000Y-67100000D01*
X138450000Y-65400000D02*
X138450000Y-67100000D01*
X137550000Y-65400000D02*
X138450000Y-65400000D01*
X138168800Y-66250000D02*
G75*
G03X138168800Y-66250000I-168800J0D01*
G01*
X129275000Y-88250000D02*
X129725000Y-88250000D01*
X129500000Y-88025000D02*
X129500000Y-88475000D01*
X129950000Y-87400000D02*
X129950000Y-89100000D01*
X129050000Y-87400000D02*
X129950000Y-87400000D01*
X129050000Y-89100000D02*
X129050000Y-87400000D01*
X129950000Y-89100000D02*
X129050000Y-89100000D01*
X129668800Y-88250000D02*
G75*
G03X129668800Y-88250000I-168800J0D01*
G01*
X138975000Y-78750000D02*
X138525000Y-78750000D01*
X138750000Y-78975000D02*
X138750000Y-78525000D01*
X138300000Y-79600000D02*
X138300000Y-77900000D01*
X139200000Y-79600000D02*
X138300000Y-79600000D01*
X139200000Y-77900000D02*
X139200000Y-79600000D01*
X138300000Y-77900000D02*
X139200000Y-77900000D01*
X138918800Y-78750000D02*
G75*
G03X138918800Y-78750000I-168800J0D01*
G01*
X137500000Y-97025000D02*
X137500000Y-97475000D01*
X137725000Y-97250000D02*
X137275000Y-97250000D01*
X138350000Y-97700000D02*
X136650000Y-97700000D01*
X138350000Y-96800000D02*
X138350000Y-97700000D01*
X136650000Y-96800000D02*
X138350000Y-96800000D01*
X136650000Y-97700000D02*
X136650000Y-96800000D01*
X137668800Y-97250000D02*
G75*
G03X137668800Y-97250000I-168800J0D01*
G01*
X127850000Y-70950000D02*
X120550000Y-70950000D01*
X127850000Y-73660000D02*
X127850000Y-70950000D01*
X128370000Y-73660000D02*
X127850000Y-73660000D01*
X128370000Y-75540000D02*
X128370000Y-73660000D01*
X127850000Y-75540000D02*
X128370000Y-75540000D01*
X127850000Y-78250000D02*
X127850000Y-75540000D01*
X120550000Y-78250000D02*
X127850000Y-78250000D01*
X120550000Y-75540000D02*
X120550000Y-78250000D01*
X120030000Y-75540000D02*
X120550000Y-75540000D01*
X120030000Y-73660000D02*
X120030000Y-75540000D01*
X120550000Y-73660000D02*
X120030000Y-73660000D01*
X120550000Y-70950000D02*
X120550000Y-73660000D01*
X124200000Y-74250000D02*
X124200000Y-74950000D01*
X124550000Y-74600000D02*
X123850000Y-74600000D01*
X124450000Y-74600000D02*
G75*
G03X124450000Y-74600000I-250000J0D01*
G01*
X120350000Y-103150000D02*
X127650000Y-103150000D01*
X120350000Y-100440000D02*
X120350000Y-103150000D01*
X119830000Y-100440000D02*
X120350000Y-100440000D01*
X119830000Y-98560000D02*
X119830000Y-100440000D01*
X120350000Y-98560000D02*
X119830000Y-98560000D01*
X120350000Y-95850000D02*
X120350000Y-98560000D01*
X127650000Y-95850000D02*
X120350000Y-95850000D01*
X127650000Y-98560000D02*
X127650000Y-95850000D01*
X128170000Y-98560000D02*
X127650000Y-98560000D01*
X128170000Y-100440000D02*
X128170000Y-98560000D01*
X127650000Y-100440000D02*
X128170000Y-100440000D01*
X127650000Y-103150000D02*
X127650000Y-100440000D01*
X124000000Y-99850000D02*
X124000000Y-99150000D01*
X123650000Y-99500000D02*
X124350000Y-99500000D01*
X124250000Y-99500000D02*
G75*
G03X124250000Y-99500000I-250000J0D01*
G01*
X143750000Y-91500000D02*
G75*
G03X143750000Y-91500000I-250000J0D01*
G01*
X143850000Y-91500000D02*
X143150000Y-91500000D01*
X143500000Y-91150000D02*
X143500000Y-91850000D01*
X142680000Y-89880000D02*
X142680000Y-90140000D01*
X142680000Y-90140000D02*
X141960000Y-90140000D01*
X141960000Y-90140000D02*
X141960000Y-92860000D01*
X141960000Y-92860000D02*
X142680000Y-92860000D01*
X142680000Y-92860000D02*
X142680000Y-93120000D01*
X142680000Y-93120000D02*
X144320000Y-93120000D01*
X144320000Y-93120000D02*
X144320000Y-92860000D01*
X144320000Y-92860000D02*
X145040000Y-92860000D01*
X145040000Y-92860000D02*
X145040000Y-90140000D01*
X145040000Y-90140000D02*
X144320000Y-90140000D01*
X144320000Y-90140000D02*
X144320000Y-89880000D01*
X144320000Y-89880000D02*
X142680000Y-89880000D01*
X128918800Y-80250000D02*
G75*
G03X128918800Y-80250000I-168800J0D01*
G01*
X129200000Y-81100000D02*
X128300000Y-81100000D01*
X128300000Y-81100000D02*
X128300000Y-79400000D01*
X128300000Y-79400000D02*
X129200000Y-79400000D01*
X129200000Y-79400000D02*
X129200000Y-81100000D01*
X128750000Y-80025000D02*
X128750000Y-80475000D01*
X128525000Y-80250000D02*
X128975000Y-80250000D01*
X127250000Y-91275000D02*
X127250000Y-91725000D01*
X127475000Y-91500000D02*
X127025000Y-91500000D01*
X128100000Y-91950000D02*
X126400000Y-91950000D01*
X128100000Y-91050000D02*
X128100000Y-91950000D01*
X126400000Y-91050000D02*
X128100000Y-91050000D01*
X126400000Y-91950000D02*
X126400000Y-91050000D01*
X127418800Y-91500000D02*
G75*
G03X127418800Y-91500000I-168800J0D01*
G01*
X128918800Y-78000000D02*
G75*
G03X128918800Y-78000000I-168800J0D01*
G01*
X128300000Y-77150000D02*
X129200000Y-77150000D01*
X129200000Y-77150000D02*
X129200000Y-78850000D01*
X129200000Y-78850000D02*
X128300000Y-78850000D01*
X128300000Y-78850000D02*
X128300000Y-77150000D01*
X128750000Y-78225000D02*
X128750000Y-77775000D01*
X128975000Y-78000000D02*
X128525000Y-78000000D01*
X138050000Y-89600000D02*
G75*
G03X138050000Y-89600000I-250000J0D01*
G01*
X139780000Y-88540000D02*
X139780000Y-90660000D01*
X139780000Y-90660000D02*
X135820000Y-90660000D01*
X135820000Y-90660000D02*
X135820000Y-88540000D01*
X135820000Y-88540000D02*
X139780000Y-88540000D01*
X137450000Y-89600000D02*
X138150000Y-89600000D01*
X137800000Y-89950000D02*
X137800000Y-89250000D01*
X144850000Y-96400000D02*
G75*
G03X144850000Y-96400000I-250000J0D01*
G01*
X144600000Y-96050000D02*
X144600000Y-96750000D01*
X144250000Y-96400000D02*
X144950000Y-96400000D01*
X142850000Y-97350000D02*
X143090000Y-97350000D01*
X143090000Y-97350000D02*
X143090000Y-98270000D01*
X143090000Y-98270000D02*
X146110000Y-98270000D01*
X146110000Y-98270000D02*
X146110000Y-97350000D01*
X146110000Y-97350000D02*
X146350000Y-97350000D01*
X146350000Y-97350000D02*
X146350000Y-95450000D01*
X146350000Y-95450000D02*
X145160000Y-95450000D01*
X145160000Y-95450000D02*
X145160000Y-94530000D01*
X145160000Y-94530000D02*
X144040000Y-94530000D01*
X144040000Y-94530000D02*
X144040000Y-95450000D01*
X144040000Y-95450000D02*
X142850000Y-95450000D01*
X142850000Y-95450000D02*
X142850000Y-97350000D01*
X104570000Y-100700000D02*
X103930000Y-100700000D01*
X104250000Y-101020000D02*
X104250000Y-100380000D01*
X103610000Y-101820000D02*
X103610000Y-99580000D01*
X104890000Y-101820000D02*
X103610000Y-101820000D01*
X104890000Y-99580000D02*
X104890000Y-101820000D01*
X103610000Y-99580000D02*
X104890000Y-99580000D01*
X104490000Y-100700000D02*
G75*
G03X104490000Y-100700000I-240000J0D01*
G01*
X107990000Y-100750000D02*
G75*
G03X107990000Y-100750000I-240000J0D01*
G01*
X107110000Y-99630000D02*
X108390000Y-99630000D01*
X108390000Y-99630000D02*
X108390000Y-101870000D01*
X108390000Y-101870000D02*
X107110000Y-101870000D01*
X107110000Y-101870000D02*
X107110000Y-99630000D01*
X107750000Y-101070000D02*
X107750000Y-100430000D01*
X108070000Y-100750000D02*
X107430000Y-100750000D01*
X106240000Y-100700000D02*
G75*
G03X106240000Y-100700000I-240000J0D01*
G01*
X105360000Y-99580000D02*
X106640000Y-99580000D01*
X106640000Y-99580000D02*
X106640000Y-101820000D01*
X106640000Y-101820000D02*
X105360000Y-101820000D01*
X105360000Y-101820000D02*
X105360000Y-99580000D01*
X106000000Y-101020000D02*
X106000000Y-100380000D01*
X106320000Y-100700000D02*
X105680000Y-100700000D01*
M02*
