G04 #@! TF.FileFunction,Other,Fab,Top*
%FSLAX46Y46*%
G04 Gerber Fmt 4.6, Leading zero omitted, Abs format (unit mm)*
G04 Created by KiCad (PCBNEW (2016-11-21 revision f7cc0a9)-makepkg) date 06/05/17 10:20:10*
%MOMM*%
%LPD*%
G01*
G04 APERTURE LIST*
%ADD10C,0.100000*%
%ADD11C,0.120000*%
%ADD12C,0.150000*%
%ADD13C,0.050000*%
%ADD14C,0.090000*%
%ADD15C,0.200000*%
%ADD16C,0.130000*%
G04 APERTURE END LIST*
D10*
D11*
X124950000Y-70600000D02*
X121550000Y-70600000D01*
X124950000Y-67900000D02*
X124950000Y-70600000D01*
X121550000Y-67900000D02*
X124950000Y-67900000D01*
X121550000Y-70600000D02*
X121550000Y-67900000D01*
X124950000Y-67100000D02*
X121550000Y-67100000D01*
X124950000Y-64400000D02*
X124950000Y-67100000D01*
X121550000Y-64400000D02*
X124950000Y-64400000D01*
X121550000Y-67100000D02*
X121550000Y-64400000D01*
X124950000Y-55350000D02*
X121550000Y-55350000D01*
X124950000Y-52650000D02*
X124950000Y-55350000D01*
X121550000Y-52650000D02*
X124950000Y-52650000D01*
X121550000Y-55350000D02*
X121550000Y-52650000D01*
X124950000Y-58850000D02*
X121550000Y-58850000D01*
X124950000Y-56150000D02*
X124950000Y-58850000D01*
X121550000Y-56150000D02*
X124950000Y-56150000D01*
X121550000Y-58850000D02*
X121550000Y-56150000D01*
X138330000Y-58170000D02*
X138330000Y-62330000D01*
X133170000Y-58170000D02*
X138330000Y-58170000D01*
X133170000Y-61060000D02*
X133170000Y-58170000D01*
X134440000Y-62330000D02*
X133170000Y-61060000D01*
X138330000Y-62330000D02*
X134440000Y-62330000D01*
X130255185Y-90831523D02*
X134415185Y-90831523D01*
X130255185Y-94991523D02*
X130255185Y-90831523D01*
X133145185Y-94991523D02*
X130255185Y-94991523D01*
X134415185Y-93721523D02*
X133145185Y-94991523D01*
X134415185Y-90831523D02*
X134415185Y-93721523D01*
D12*
X114500000Y-85000000D02*
X99250000Y-85000000D01*
X114500000Y-70000000D02*
X114500000Y-85000000D01*
X99250000Y-70000000D02*
X114500000Y-70000000D01*
X99250000Y-85000000D02*
X99250000Y-70000000D01*
D11*
X123007500Y-93120000D02*
X116787500Y-93120000D01*
X123007500Y-86380000D02*
X123007500Y-93120000D01*
X118057500Y-86380000D02*
X123007500Y-86380000D01*
X116787500Y-87650000D02*
X118057500Y-86380000D01*
X116787500Y-93120000D02*
X116787500Y-87650000D01*
X110970000Y-93050000D02*
X104770000Y-93050000D01*
X110970000Y-86450000D02*
X110970000Y-93050000D01*
X106040000Y-86450000D02*
X110970000Y-86450000D01*
X104770000Y-87720000D02*
X106040000Y-86450000D01*
X104770000Y-93050000D02*
X104770000Y-87720000D01*
D12*
X130000000Y-80750000D02*
X130000000Y-74750000D01*
X137500000Y-80750000D02*
X130000000Y-80750000D01*
X137500000Y-74750000D02*
X137500000Y-80750000D01*
X130000000Y-74750000D02*
X137500000Y-74750000D01*
X135830000Y-76750000D02*
X136830000Y-76750000D01*
X135830000Y-77750000D02*
X136830000Y-77750000D01*
X136830000Y-76250000D02*
X136830000Y-79250000D01*
X136830000Y-79250000D02*
X135830000Y-79250000D01*
X135830000Y-79250000D02*
X135830000Y-76250000D01*
X135830000Y-76250000D02*
X136830000Y-76250000D01*
X133290000Y-76750000D02*
X134290000Y-76750000D01*
X133290000Y-77750000D02*
X134290000Y-77750000D01*
X134290000Y-79250000D02*
X133290000Y-79250000D01*
X133290000Y-79250000D02*
X133290000Y-76250000D01*
X133290000Y-76250000D02*
X134290000Y-76250000D01*
X134290000Y-76250000D02*
X134290000Y-79250000D01*
X130750000Y-76250000D02*
X131750000Y-76250000D01*
X131750000Y-76250000D02*
X131750000Y-79250000D01*
X131750000Y-79250000D02*
X130750000Y-79250000D01*
X130750000Y-79250000D02*
X130750000Y-76250000D01*
X130750000Y-76750000D02*
X131750000Y-76750000D01*
X130750000Y-77750000D02*
X131750000Y-77750000D01*
X148450000Y-82000000D02*
X140700000Y-82000000D01*
X148450000Y-73000000D02*
X148450000Y-82000000D01*
X140700000Y-73000000D02*
X148450000Y-73000000D01*
X140700000Y-82000000D02*
X140700000Y-73000000D01*
D11*
X119800000Y-68880000D02*
X116700000Y-68880000D01*
X119800000Y-65620000D02*
X119800000Y-68880000D01*
X117733330Y-65620000D02*
X119800000Y-65620000D01*
X116700000Y-66653330D02*
X117733330Y-65620000D01*
X116700000Y-68880000D02*
X116700000Y-66653330D01*
X116700000Y-61870000D02*
X119800000Y-61870000D01*
X116700000Y-65130000D02*
X116700000Y-61870000D01*
X118766670Y-65130000D02*
X116700000Y-65130000D01*
X119800000Y-64096670D02*
X118766670Y-65130000D01*
X119800000Y-61870000D02*
X119800000Y-64096670D01*
X119800000Y-57630000D02*
X116700000Y-57630000D01*
X119800000Y-54370000D02*
X119800000Y-57630000D01*
X117733330Y-54370000D02*
X119800000Y-54370000D01*
X116700000Y-55403330D02*
X117733330Y-54370000D01*
X116700000Y-57630000D02*
X116700000Y-55403330D01*
X129950000Y-99370000D02*
X133050000Y-99370000D01*
X129950000Y-102630000D02*
X129950000Y-99370000D01*
X132016670Y-102630000D02*
X129950000Y-102630000D01*
X133050000Y-101596670D02*
X132016670Y-102630000D01*
X133050000Y-99370000D02*
X133050000Y-101596670D01*
X138050000Y-102630000D02*
X134950000Y-102630000D01*
X138050000Y-99370000D02*
X138050000Y-102630000D01*
X135983330Y-99370000D02*
X138050000Y-99370000D01*
X134950000Y-100403330D02*
X135983330Y-99370000D01*
X134950000Y-102630000D02*
X134950000Y-100403330D01*
X116700000Y-58120000D02*
X119800000Y-58120000D01*
X116700000Y-61380000D02*
X116700000Y-58120000D01*
X118766670Y-61380000D02*
X116700000Y-61380000D01*
X119800000Y-60346670D02*
X118766670Y-61380000D01*
X119800000Y-58120000D02*
X119800000Y-60346670D01*
X101050000Y-67850000D02*
X101050000Y-54150000D01*
X114450000Y-67850000D02*
X101050000Y-67850000D01*
X114450000Y-54150000D02*
X114450000Y-67850000D01*
X101050000Y-54150000D02*
X114450000Y-54150000D01*
X104600000Y-97550000D02*
X105050000Y-98000000D01*
X107400000Y-98000000D02*
X105050000Y-98000000D01*
X107400000Y-94800000D02*
X107400000Y-98000000D01*
X104600000Y-94800000D02*
X107400000Y-94800000D01*
X104600000Y-97550000D02*
X104600000Y-94800000D01*
X139030000Y-75720000D02*
X139030000Y-76780000D01*
X138470000Y-75720000D02*
X139030000Y-75720000D01*
X138470000Y-76780000D02*
X138470000Y-75720000D01*
X139030000Y-76780000D02*
X138470000Y-76780000D01*
X117350000Y-52570000D02*
X119150000Y-52570000D01*
X117350000Y-53930000D02*
X117350000Y-52570000D01*
X118696700Y-53930000D02*
X117350000Y-53930000D01*
X119150000Y-53476700D02*
X118696700Y-53930000D01*
X119150000Y-52570000D02*
X119150000Y-53476700D01*
X130400000Y-69930000D02*
X128600000Y-69930000D01*
X130400000Y-68570000D02*
X130400000Y-69930000D01*
X129053300Y-68570000D02*
X130400000Y-68570000D01*
X128600000Y-69023300D02*
X129053300Y-68570000D01*
X128600000Y-69930000D02*
X128600000Y-69023300D01*
X130930000Y-55100000D02*
X130930000Y-56900000D01*
X129570000Y-55100000D02*
X130930000Y-55100000D01*
X129570000Y-56446700D02*
X129570000Y-55100000D01*
X130023300Y-56900000D02*
X129570000Y-56446700D01*
X130930000Y-56900000D02*
X130023300Y-56900000D01*
X141530000Y-56680000D02*
X139730000Y-56680000D01*
X141530000Y-55320000D02*
X141530000Y-56680000D01*
X140183300Y-55320000D02*
X141530000Y-55320000D01*
X139730000Y-55773300D02*
X140183300Y-55320000D01*
X139730000Y-56680000D02*
X139730000Y-55773300D01*
X123100000Y-83300000D02*
X120566700Y-83300000D01*
X120566700Y-83300000D02*
X120100000Y-82833300D01*
X120100000Y-82833300D02*
X120100000Y-81900000D01*
X120100000Y-81900000D02*
X123100000Y-81900000D01*
X123100000Y-81900000D02*
X123100000Y-83300000D01*
X116750000Y-100550000D02*
X116750000Y-101950000D01*
X113750000Y-100550000D02*
X116750000Y-100550000D01*
X113750000Y-101483300D02*
X113750000Y-100550000D01*
X114216700Y-101950000D02*
X113750000Y-101483300D01*
X116750000Y-101950000D02*
X114216700Y-101950000D01*
X135510000Y-84230000D02*
X140090000Y-84230000D01*
X135510000Y-88170000D02*
X135510000Y-84230000D01*
X138820000Y-88170000D02*
X135510000Y-88170000D01*
X140090000Y-86900000D02*
X138820000Y-88170000D01*
X140090000Y-84230000D02*
X140090000Y-86900000D01*
X108900000Y-98430000D02*
X108900000Y-95570000D01*
X110600000Y-98430000D02*
X108900000Y-98430000D01*
X110600000Y-96136700D02*
X110600000Y-98430000D01*
X110033300Y-95570000D02*
X110600000Y-96136700D01*
X108900000Y-95570000D02*
X110033300Y-95570000D01*
X114400000Y-98430000D02*
X114400000Y-95570000D01*
X116100000Y-98430000D02*
X114400000Y-98430000D01*
X116100000Y-96136700D02*
X116100000Y-98430000D01*
X115533300Y-95570000D02*
X116100000Y-96136700D01*
X114400000Y-95570000D02*
X115533300Y-95570000D01*
X139800000Y-99050000D02*
X139800000Y-96950000D01*
X141200000Y-99050000D02*
X139800000Y-99050000D01*
X141200000Y-96950000D02*
X141200000Y-99050000D01*
X139800000Y-96950000D02*
X141200000Y-96950000D01*
X136450000Y-95050000D02*
X138550000Y-95050000D01*
X136450000Y-96450000D02*
X136450000Y-95050000D01*
X138550000Y-96450000D02*
X136450000Y-96450000D01*
X138550000Y-95050000D02*
X138550000Y-96450000D01*
X111550000Y-97050000D02*
X111550000Y-94950000D01*
X112950000Y-97050000D02*
X111550000Y-97050000D01*
X112950000Y-94950000D02*
X112950000Y-97050000D01*
X111550000Y-94950000D02*
X112950000Y-94950000D01*
X121600000Y-60620000D02*
X124900000Y-60620000D01*
X121600000Y-62380000D02*
X121600000Y-60620000D01*
X124900000Y-62380000D02*
X121600000Y-62380000D01*
X124900000Y-60620000D02*
X124900000Y-62380000D01*
X111370000Y-101650000D02*
X111370000Y-98350000D01*
X113130000Y-101650000D02*
X111370000Y-101650000D01*
X113130000Y-98350000D02*
X113130000Y-101650000D01*
X111370000Y-98350000D02*
X113130000Y-98350000D01*
X117120000Y-98400000D02*
X117120000Y-95100000D01*
X118880000Y-98400000D02*
X117120000Y-98400000D01*
X118880000Y-95100000D02*
X118880000Y-98400000D01*
X117120000Y-95100000D02*
X118880000Y-95100000D01*
X130330000Y-63230000D02*
X128670000Y-63230000D01*
X130330000Y-62270000D02*
X130330000Y-63230000D01*
X128670000Y-62270000D02*
X130330000Y-62270000D01*
X128670000Y-63230000D02*
X128670000Y-62270000D01*
X128670000Y-60770000D02*
X130330000Y-60770000D01*
X128670000Y-61730000D02*
X128670000Y-60770000D01*
X130330000Y-61730000D02*
X128670000Y-61730000D01*
X130330000Y-60770000D02*
X130330000Y-61730000D01*
X130330000Y-66230000D02*
X128670000Y-66230000D01*
X130330000Y-65270000D02*
X130330000Y-66230000D01*
X128670000Y-65270000D02*
X130330000Y-65270000D01*
X128670000Y-66230000D02*
X128670000Y-65270000D01*
X143020000Y-65080000D02*
X143020000Y-63420000D01*
X143980000Y-65080000D02*
X143020000Y-65080000D01*
X143980000Y-63420000D02*
X143980000Y-65080000D01*
X143020000Y-63420000D02*
X143980000Y-63420000D01*
X143020000Y-68005000D02*
X143020000Y-66345000D01*
X143980000Y-68005000D02*
X143020000Y-68005000D01*
X143980000Y-66345000D02*
X143980000Y-68005000D01*
X143020000Y-66345000D02*
X143980000Y-66345000D01*
X144520000Y-68005000D02*
X144520000Y-66345000D01*
X145480000Y-68005000D02*
X144520000Y-68005000D01*
X145480000Y-66345000D02*
X145480000Y-68005000D01*
X144520000Y-66345000D02*
X145480000Y-66345000D01*
X146020000Y-68005000D02*
X146020000Y-66345000D01*
X146980000Y-68005000D02*
X146020000Y-68005000D01*
X146980000Y-66345000D02*
X146980000Y-68005000D01*
X146020000Y-66345000D02*
X146980000Y-66345000D01*
X101845000Y-93520000D02*
X103505000Y-93520000D01*
X101845000Y-94480000D02*
X101845000Y-93520000D01*
X103505000Y-94480000D02*
X101845000Y-94480000D01*
X103505000Y-93520000D02*
X103505000Y-94480000D01*
X109270000Y-101830000D02*
X109270000Y-100170000D01*
X110230000Y-101830000D02*
X109270000Y-101830000D01*
X110230000Y-100170000D02*
X110230000Y-101830000D01*
X109270000Y-100170000D02*
X110230000Y-100170000D01*
X117520000Y-101830000D02*
X117520000Y-100170000D01*
X118480000Y-101830000D02*
X117520000Y-101830000D01*
X118480000Y-100170000D02*
X118480000Y-101830000D01*
X117520000Y-100170000D02*
X118480000Y-100170000D01*
X123920000Y-82170000D02*
X124880000Y-82170000D01*
X124880000Y-82170000D02*
X124880000Y-83830000D01*
X124880000Y-83830000D02*
X123920000Y-83830000D01*
X123920000Y-83830000D02*
X123920000Y-82170000D01*
X122430000Y-85880000D02*
X120770000Y-85880000D01*
X122430000Y-84920000D02*
X122430000Y-85880000D01*
X120770000Y-84920000D02*
X122430000Y-84920000D01*
X120770000Y-85880000D02*
X120770000Y-84920000D01*
X127780000Y-94280000D02*
X126720000Y-94280000D01*
X127780000Y-93720000D02*
X127780000Y-94280000D01*
X126720000Y-93720000D02*
X127780000Y-93720000D01*
X126720000Y-94280000D02*
X126720000Y-93720000D01*
X127780000Y-92470000D02*
X127780000Y-93030000D01*
X127780000Y-93030000D02*
X126720000Y-93030000D01*
X126720000Y-93030000D02*
X126720000Y-92470000D01*
X126720000Y-92470000D02*
X127780000Y-92470000D01*
X130470000Y-87720000D02*
X131030000Y-87720000D01*
X131030000Y-87720000D02*
X131030000Y-88780000D01*
X131030000Y-88780000D02*
X130470000Y-88780000D01*
X130470000Y-88780000D02*
X130470000Y-87720000D01*
X133780000Y-97220000D02*
X133780000Y-98280000D01*
X133220000Y-97220000D02*
X133780000Y-97220000D01*
X133220000Y-98280000D02*
X133220000Y-97220000D01*
X133780000Y-98280000D02*
X133220000Y-98280000D01*
X131970000Y-98280000D02*
X131970000Y-97220000D01*
X132530000Y-98280000D02*
X131970000Y-98280000D01*
X132530000Y-97220000D02*
X132530000Y-98280000D01*
X131970000Y-97220000D02*
X132530000Y-97220000D01*
X135030000Y-97220000D02*
X135030000Y-98280000D01*
X134470000Y-97220000D02*
X135030000Y-97220000D01*
X134470000Y-98280000D02*
X134470000Y-97220000D01*
X135030000Y-98280000D02*
X134470000Y-98280000D01*
X141780000Y-58280000D02*
X140720000Y-58280000D01*
X141780000Y-57720000D02*
X141780000Y-58280000D01*
X140720000Y-57720000D02*
X141780000Y-57720000D01*
X140720000Y-58280000D02*
X140720000Y-57720000D01*
X141970000Y-58970000D02*
X143030000Y-58970000D01*
X141970000Y-59530000D02*
X141970000Y-58970000D01*
X143030000Y-59530000D02*
X141970000Y-59530000D01*
X143030000Y-58970000D02*
X143030000Y-59530000D01*
X141970000Y-59970000D02*
X143030000Y-59970000D01*
X141970000Y-60530000D02*
X141970000Y-59970000D01*
X143030000Y-60530000D02*
X141970000Y-60530000D01*
X143030000Y-59970000D02*
X143030000Y-60530000D01*
X136970000Y-98220000D02*
X138030000Y-98220000D01*
X136970000Y-98780000D02*
X136970000Y-98220000D01*
X138030000Y-98780000D02*
X136970000Y-98780000D01*
X138030000Y-98220000D02*
X138030000Y-98780000D01*
X131470000Y-66780000D02*
X131470000Y-65720000D01*
X132030000Y-66780000D02*
X131470000Y-66780000D01*
X132030000Y-65720000D02*
X132030000Y-66780000D01*
X131470000Y-65720000D02*
X132030000Y-65720000D01*
X132720000Y-66780000D02*
X132720000Y-65720000D01*
X133280000Y-66780000D02*
X132720000Y-66780000D01*
X133280000Y-65720000D02*
X133280000Y-66780000D01*
X132720000Y-65720000D02*
X133280000Y-65720000D01*
X133970000Y-66780000D02*
X133970000Y-65720000D01*
X134530000Y-66780000D02*
X133970000Y-66780000D01*
X134530000Y-65720000D02*
X134530000Y-66780000D01*
X133970000Y-65720000D02*
X134530000Y-65720000D01*
X140780000Y-65720000D02*
X140780000Y-66780000D01*
X140220000Y-65720000D02*
X140780000Y-65720000D01*
X140220000Y-66780000D02*
X140220000Y-65720000D01*
X140780000Y-66780000D02*
X140220000Y-66780000D01*
X143720000Y-93470000D02*
X144780000Y-93470000D01*
X143720000Y-94030000D02*
X143720000Y-93470000D01*
X144780000Y-94030000D02*
X143720000Y-94030000D01*
X144780000Y-93470000D02*
X144780000Y-94030000D01*
X123700000Y-78700000D02*
X123700000Y-80500000D01*
X123700000Y-80500000D02*
X120300000Y-80500000D01*
X120300000Y-80500000D02*
X120300000Y-78700000D01*
X120300000Y-78700000D02*
X123700000Y-78700000D01*
X142130000Y-61980000D02*
X140370000Y-61980000D01*
X142130000Y-61020000D02*
X142130000Y-61980000D01*
X140370000Y-61020000D02*
X142130000Y-61020000D01*
X140370000Y-61980000D02*
X140370000Y-61020000D01*
X135380000Y-56480000D02*
X133620000Y-56480000D01*
X135380000Y-55520000D02*
X135380000Y-56480000D01*
X133620000Y-55520000D02*
X135380000Y-55520000D01*
X133620000Y-56480000D02*
X133620000Y-55520000D01*
X130380000Y-64730000D02*
X128620000Y-64730000D01*
X130380000Y-63770000D02*
X130380000Y-64730000D01*
X128620000Y-63770000D02*
X130380000Y-63770000D01*
X128620000Y-64730000D02*
X128620000Y-63770000D01*
X141520000Y-65130000D02*
X141520000Y-63370000D01*
X142480000Y-65130000D02*
X141520000Y-65130000D01*
X142480000Y-63370000D02*
X142480000Y-65130000D01*
X141520000Y-63370000D02*
X142480000Y-63370000D01*
X141520000Y-68035000D02*
X141520000Y-66275000D01*
X142480000Y-68035000D02*
X141520000Y-68035000D01*
X142480000Y-66275000D02*
X142480000Y-68035000D01*
X141520000Y-66275000D02*
X142480000Y-66275000D01*
X140220000Y-60280000D02*
X140220000Y-59220000D01*
X140780000Y-60280000D02*
X140220000Y-60280000D01*
X140780000Y-59220000D02*
X140780000Y-60280000D01*
X140220000Y-59220000D02*
X140780000Y-59220000D01*
X126720000Y-94970000D02*
X127780000Y-94970000D01*
X126720000Y-95530000D02*
X126720000Y-94970000D01*
X127780000Y-95530000D02*
X126720000Y-95530000D01*
X127780000Y-94970000D02*
X127780000Y-95530000D01*
X136970000Y-94530000D02*
X136970000Y-93970000D01*
X136970000Y-93970000D02*
X138030000Y-93970000D01*
X138030000Y-93970000D02*
X138030000Y-94530000D01*
X138030000Y-94530000D02*
X136970000Y-94530000D01*
X129970000Y-96970000D02*
X131030000Y-96970000D01*
X129970000Y-97530000D02*
X129970000Y-96970000D01*
X131030000Y-97530000D02*
X129970000Y-97530000D01*
X131030000Y-96970000D02*
X131030000Y-97530000D01*
X129970000Y-98220000D02*
X131030000Y-98220000D01*
X129970000Y-98780000D02*
X129970000Y-98220000D01*
X131030000Y-98780000D02*
X129970000Y-98780000D01*
X131030000Y-98220000D02*
X131030000Y-98780000D01*
X135220000Y-66780000D02*
X135220000Y-65720000D01*
X135780000Y-66780000D02*
X135220000Y-66780000D01*
X135780000Y-65720000D02*
X135780000Y-66780000D01*
X135220000Y-65720000D02*
X135780000Y-65720000D01*
X136470000Y-66780000D02*
X136470000Y-65720000D01*
X137030000Y-66780000D02*
X136470000Y-66780000D01*
X137030000Y-65720000D02*
X137030000Y-66780000D01*
X136470000Y-65720000D02*
X137030000Y-65720000D01*
X129970000Y-59780000D02*
X129970000Y-58720000D01*
X130530000Y-59780000D02*
X129970000Y-59780000D01*
X130530000Y-58720000D02*
X130530000Y-59780000D01*
X129970000Y-58720000D02*
X130530000Y-58720000D01*
X137780000Y-56280000D02*
X136720000Y-56280000D01*
X137780000Y-55720000D02*
X137780000Y-56280000D01*
X136720000Y-55720000D02*
X137780000Y-55720000D01*
X136720000Y-56280000D02*
X136720000Y-55720000D01*
X145720000Y-92435000D02*
X145720000Y-91375000D01*
X146280000Y-92435000D02*
X145720000Y-92435000D01*
X146280000Y-91375000D02*
X146280000Y-92435000D01*
X145720000Y-91375000D02*
X146280000Y-91375000D01*
X139530000Y-65720000D02*
X139530000Y-66780000D01*
X138970000Y-65720000D02*
X139530000Y-65720000D01*
X138970000Y-66780000D02*
X138970000Y-65720000D01*
X139530000Y-66780000D02*
X138970000Y-66780000D01*
X137720000Y-66780000D02*
X137720000Y-65720000D01*
X138280000Y-66780000D02*
X137720000Y-66780000D01*
X138280000Y-65720000D02*
X138280000Y-66780000D01*
X137720000Y-65720000D02*
X138280000Y-65720000D01*
X129780000Y-87720000D02*
X129780000Y-88780000D01*
X129220000Y-87720000D02*
X129780000Y-87720000D01*
X129220000Y-88780000D02*
X129220000Y-87720000D01*
X129780000Y-88780000D02*
X129220000Y-88780000D01*
X138470000Y-79280000D02*
X138470000Y-78220000D01*
X139030000Y-79280000D02*
X138470000Y-79280000D01*
X139030000Y-78220000D02*
X139030000Y-79280000D01*
X138470000Y-78220000D02*
X139030000Y-78220000D01*
X138030000Y-97530000D02*
X136970000Y-97530000D01*
X138030000Y-96970000D02*
X138030000Y-97530000D01*
X136970000Y-96970000D02*
X138030000Y-96970000D01*
X136970000Y-97530000D02*
X136970000Y-96970000D01*
X122160000Y-71200000D02*
X127600000Y-71200000D01*
X120800000Y-72560000D02*
X122160000Y-71200000D01*
X120800000Y-76640000D02*
X120800000Y-72560000D01*
X122160000Y-78000000D02*
X120800000Y-76640000D01*
X127600000Y-78000000D02*
X122160000Y-78000000D01*
X127600000Y-71200000D02*
X127600000Y-78000000D01*
X126040000Y-102900000D02*
X120600000Y-102900000D01*
X127400000Y-101540000D02*
X126040000Y-102900000D01*
X127400000Y-97460000D02*
X127400000Y-101540000D01*
X126040000Y-96100000D02*
X127400000Y-97460000D01*
X120600000Y-96100000D02*
X126040000Y-96100000D01*
X120600000Y-102900000D02*
X120600000Y-96100000D01*
X142800000Y-93000000D02*
X142800000Y-90466700D01*
X142800000Y-90466700D02*
X143266700Y-90000000D01*
X143266700Y-90000000D02*
X144200000Y-90000000D01*
X144200000Y-90000000D02*
X144200000Y-93000000D01*
X144200000Y-93000000D02*
X142800000Y-93000000D01*
X129030000Y-80780000D02*
X128470000Y-80780000D01*
X128470000Y-80780000D02*
X128470000Y-79720000D01*
X128470000Y-79720000D02*
X129030000Y-79720000D01*
X129030000Y-79720000D02*
X129030000Y-80780000D01*
X127780000Y-91780000D02*
X126720000Y-91780000D01*
X127780000Y-91220000D02*
X127780000Y-91780000D01*
X126720000Y-91220000D02*
X127780000Y-91220000D01*
X126720000Y-91780000D02*
X126720000Y-91220000D01*
X128470000Y-77470000D02*
X129030000Y-77470000D01*
X129030000Y-77470000D02*
X129030000Y-78530000D01*
X129030000Y-78530000D02*
X128470000Y-78530000D01*
X128470000Y-78530000D02*
X128470000Y-77470000D01*
X139500000Y-88700000D02*
X139500000Y-90500000D01*
X139500000Y-90500000D02*
X136100000Y-90500000D01*
X136100000Y-90500000D02*
X136100000Y-88700000D01*
X136100000Y-88700000D02*
X139500000Y-88700000D01*
X146100000Y-97100000D02*
X143566700Y-97100000D01*
X143566700Y-97100000D02*
X143100000Y-96633300D01*
X143100000Y-96633300D02*
X143100000Y-95700000D01*
X143100000Y-95700000D02*
X146100000Y-95700000D01*
X146100000Y-95700000D02*
X146100000Y-97100000D01*
X103770000Y-101530000D02*
X103770000Y-99870000D01*
X104730000Y-101530000D02*
X103770000Y-101530000D01*
X104730000Y-99870000D02*
X104730000Y-101530000D01*
X103770000Y-99870000D02*
X104730000Y-99870000D01*
X107270000Y-99920000D02*
X108230000Y-99920000D01*
X108230000Y-99920000D02*
X108230000Y-101580000D01*
X108230000Y-101580000D02*
X107270000Y-101580000D01*
X107270000Y-101580000D02*
X107270000Y-99920000D01*
X105520000Y-99870000D02*
X106480000Y-99870000D01*
X106480000Y-99870000D02*
X106480000Y-101530000D01*
X106480000Y-101530000D02*
X105520000Y-101530000D01*
X105520000Y-101530000D02*
X105520000Y-99870000D01*
X123083333Y-69607142D02*
X123035714Y-69654761D01*
X122892857Y-69702380D01*
X122797619Y-69702380D01*
X122654761Y-69654761D01*
X122559523Y-69559523D01*
X122511904Y-69464285D01*
X122464285Y-69273809D01*
X122464285Y-69130952D01*
X122511904Y-68940476D01*
X122559523Y-68845238D01*
X122654761Y-68750000D01*
X122797619Y-68702380D01*
X122892857Y-68702380D01*
X123035714Y-68750000D01*
X123083333Y-68797619D01*
X123464285Y-68797619D02*
X123511904Y-68750000D01*
X123607142Y-68702380D01*
X123845238Y-68702380D01*
X123940476Y-68750000D01*
X123988095Y-68797619D01*
X124035714Y-68892857D01*
X124035714Y-68988095D01*
X123988095Y-69130952D01*
X123416666Y-69702380D01*
X124035714Y-69702380D01*
X123083333Y-66107142D02*
X123035714Y-66154761D01*
X122892857Y-66202380D01*
X122797619Y-66202380D01*
X122654761Y-66154761D01*
X122559523Y-66059523D01*
X122511904Y-65964285D01*
X122464285Y-65773809D01*
X122464285Y-65630952D01*
X122511904Y-65440476D01*
X122559523Y-65345238D01*
X122654761Y-65250000D01*
X122797619Y-65202380D01*
X122892857Y-65202380D01*
X123035714Y-65250000D01*
X123083333Y-65297619D01*
X123416666Y-65202380D02*
X124035714Y-65202380D01*
X123702380Y-65583333D01*
X123845238Y-65583333D01*
X123940476Y-65630952D01*
X123988095Y-65678571D01*
X124035714Y-65773809D01*
X124035714Y-66011904D01*
X123988095Y-66107142D01*
X123940476Y-66154761D01*
X123845238Y-66202380D01*
X123559523Y-66202380D01*
X123464285Y-66154761D01*
X123416666Y-66107142D01*
X122607142Y-54357142D02*
X122559523Y-54404761D01*
X122416666Y-54452380D01*
X122321428Y-54452380D01*
X122178571Y-54404761D01*
X122083333Y-54309523D01*
X122035714Y-54214285D01*
X121988095Y-54023809D01*
X121988095Y-53880952D01*
X122035714Y-53690476D01*
X122083333Y-53595238D01*
X122178571Y-53500000D01*
X122321428Y-53452380D01*
X122416666Y-53452380D01*
X122559523Y-53500000D01*
X122607142Y-53547619D01*
X123559523Y-54452380D02*
X122988095Y-54452380D01*
X123273809Y-54452380D02*
X123273809Y-53452380D01*
X123178571Y-53595238D01*
X123083333Y-53690476D01*
X122988095Y-53738095D01*
X124416666Y-53452380D02*
X124226190Y-53452380D01*
X124130952Y-53500000D01*
X124083333Y-53547619D01*
X123988095Y-53690476D01*
X123940476Y-53880952D01*
X123940476Y-54261904D01*
X123988095Y-54357142D01*
X124035714Y-54404761D01*
X124130952Y-54452380D01*
X124321428Y-54452380D01*
X124416666Y-54404761D01*
X124464285Y-54357142D01*
X124511904Y-54261904D01*
X124511904Y-54023809D01*
X124464285Y-53928571D01*
X124416666Y-53880952D01*
X124321428Y-53833333D01*
X124130952Y-53833333D01*
X124035714Y-53880952D01*
X123988095Y-53928571D01*
X123940476Y-54023809D01*
X122607142Y-57857142D02*
X122559523Y-57904761D01*
X122416666Y-57952380D01*
X122321428Y-57952380D01*
X122178571Y-57904761D01*
X122083333Y-57809523D01*
X122035714Y-57714285D01*
X121988095Y-57523809D01*
X121988095Y-57380952D01*
X122035714Y-57190476D01*
X122083333Y-57095238D01*
X122178571Y-57000000D01*
X122321428Y-56952380D01*
X122416666Y-56952380D01*
X122559523Y-57000000D01*
X122607142Y-57047619D01*
X123559523Y-57952380D02*
X122988095Y-57952380D01*
X123273809Y-57952380D02*
X123273809Y-56952380D01*
X123178571Y-57095238D01*
X123083333Y-57190476D01*
X122988095Y-57238095D01*
X123892857Y-56952380D02*
X124559523Y-56952380D01*
X124130952Y-57952380D01*
D12*
X134988095Y-59702380D02*
X134988095Y-60511904D01*
X135035714Y-60607142D01*
X135083333Y-60654761D01*
X135178571Y-60702380D01*
X135369047Y-60702380D01*
X135464285Y-60654761D01*
X135511904Y-60607142D01*
X135559523Y-60511904D01*
X135559523Y-59702380D01*
X136559523Y-60702380D02*
X135988095Y-60702380D01*
X136273809Y-60702380D02*
X136273809Y-59702380D01*
X136178571Y-59845238D01*
X136083333Y-59940476D01*
X135988095Y-59988095D01*
X131787565Y-93673427D02*
X132597089Y-93673427D01*
X132692327Y-93625808D01*
X132739946Y-93578189D01*
X132787565Y-93482951D01*
X132787565Y-93292475D01*
X132739946Y-93197237D01*
X132692327Y-93149618D01*
X132597089Y-93101999D01*
X131787565Y-93101999D01*
X131882804Y-92673427D02*
X131835185Y-92625808D01*
X131787565Y-92530570D01*
X131787565Y-92292475D01*
X131835185Y-92197237D01*
X131882804Y-92149618D01*
X131978042Y-92101999D01*
X132073280Y-92101999D01*
X132216137Y-92149618D01*
X132787565Y-92721046D01*
X132787565Y-92101999D01*
D11*
X105311904Y-82014285D02*
X106111904Y-81480952D01*
X105311904Y-81480952D02*
X106111904Y-82014285D01*
X105311904Y-81290476D02*
X105311904Y-80833333D01*
X106111904Y-81061904D02*
X105311904Y-81061904D01*
X105311904Y-80223809D02*
X105311904Y-80376190D01*
X105350000Y-80452380D01*
X105388095Y-80490476D01*
X105502380Y-80566666D01*
X105654761Y-80604761D01*
X105959523Y-80604761D01*
X106035714Y-80566666D01*
X106073809Y-80528571D01*
X106111904Y-80452380D01*
X106111904Y-80300000D01*
X106073809Y-80223809D01*
X106035714Y-80185714D01*
X105959523Y-80147619D01*
X105769047Y-80147619D01*
X105692857Y-80185714D01*
X105654761Y-80223809D01*
X105616666Y-80300000D01*
X105616666Y-80452380D01*
X105654761Y-80528571D01*
X105692857Y-80566666D01*
X105769047Y-80604761D01*
X105311904Y-79652380D02*
X105311904Y-79576190D01*
X105350000Y-79500000D01*
X105388095Y-79461904D01*
X105464285Y-79423809D01*
X105616666Y-79385714D01*
X105807142Y-79385714D01*
X105959523Y-79423809D01*
X106035714Y-79461904D01*
X106073809Y-79500000D01*
X106111904Y-79576190D01*
X106111904Y-79652380D01*
X106073809Y-79728571D01*
X106035714Y-79766666D01*
X105959523Y-79804761D01*
X105807142Y-79842857D01*
X105616666Y-79842857D01*
X105464285Y-79804761D01*
X105388095Y-79766666D01*
X105350000Y-79728571D01*
X105311904Y-79652380D01*
X105807142Y-79042857D02*
X105807142Y-78433333D01*
X106111904Y-78052380D02*
X105311904Y-78052380D01*
X105311904Y-77747619D01*
X105350000Y-77671428D01*
X105388095Y-77633333D01*
X105464285Y-77595238D01*
X105578571Y-77595238D01*
X105654761Y-77633333D01*
X105692857Y-77671428D01*
X105730952Y-77747619D01*
X105730952Y-78052380D01*
X105311904Y-77366666D02*
X105311904Y-76909523D01*
X106111904Y-77138095D02*
X105311904Y-77138095D01*
X105807142Y-76642857D02*
X105807142Y-76033333D01*
X106111904Y-75652380D02*
X105311904Y-75652380D01*
X105883333Y-75385714D01*
X105311904Y-75119047D01*
X106111904Y-75119047D01*
X105883333Y-74776190D02*
X105883333Y-74395238D01*
X106111904Y-74852380D02*
X105311904Y-74585714D01*
X106111904Y-74319047D01*
X106111904Y-73671428D02*
X106111904Y-74052380D01*
X105311904Y-74052380D01*
X105692857Y-73404761D02*
X105692857Y-73138095D01*
X106111904Y-73023809D02*
X106111904Y-73404761D01*
X105311904Y-73404761D01*
X105311904Y-73023809D01*
D12*
X102571428Y-74380952D02*
X102571428Y-73619047D01*
X102952380Y-74000000D02*
X102190476Y-74000000D01*
X102571428Y-81880952D02*
X102571428Y-81119047D01*
X120547619Y-89845238D02*
X120500000Y-89940476D01*
X120404761Y-90035714D01*
X120261904Y-90178571D01*
X120214285Y-90273809D01*
X120214285Y-90369047D01*
X120452380Y-90321428D02*
X120404761Y-90416666D01*
X120309523Y-90511904D01*
X120119047Y-90559523D01*
X119785714Y-90559523D01*
X119595238Y-90511904D01*
X119500000Y-90416666D01*
X119452380Y-90321428D01*
X119452380Y-90130952D01*
X119500000Y-90035714D01*
X119595238Y-89940476D01*
X119785714Y-89892857D01*
X120119047Y-89892857D01*
X120309523Y-89940476D01*
X120404761Y-90035714D01*
X120452380Y-90130952D01*
X120452380Y-90321428D01*
X120452380Y-89416666D02*
X120452380Y-89226190D01*
X120404761Y-89130952D01*
X120357142Y-89083333D01*
X120214285Y-88988095D01*
X120023809Y-88940476D01*
X119642857Y-88940476D01*
X119547619Y-88988095D01*
X119500000Y-89035714D01*
X119452380Y-89130952D01*
X119452380Y-89321428D01*
X119500000Y-89416666D01*
X119547619Y-89464285D01*
X119642857Y-89511904D01*
X119880952Y-89511904D01*
X119976190Y-89464285D01*
X120023809Y-89416666D01*
X120071428Y-89321428D01*
X120071428Y-89130952D01*
X120023809Y-89035714D01*
X119976190Y-88988095D01*
X119880952Y-88940476D01*
X108402380Y-90488095D02*
X107402380Y-90488095D01*
X107402380Y-90250000D01*
X107450000Y-90107142D01*
X107545238Y-90011904D01*
X107640476Y-89964285D01*
X107830952Y-89916666D01*
X107973809Y-89916666D01*
X108164285Y-89964285D01*
X108259523Y-90011904D01*
X108354761Y-90107142D01*
X108402380Y-90250000D01*
X108402380Y-90488095D01*
X107402380Y-89583333D02*
X107402380Y-88916666D01*
X108402380Y-89345238D01*
X132566666Y-74304761D02*
X132709523Y-74352380D01*
X132947619Y-74352380D01*
X133042857Y-74304761D01*
X133090476Y-74257142D01*
X133138095Y-74161904D01*
X133138095Y-74066666D01*
X133090476Y-73971428D01*
X133042857Y-73923809D01*
X132947619Y-73876190D01*
X132757142Y-73828571D01*
X132661904Y-73780952D01*
X132614285Y-73733333D01*
X132566666Y-73638095D01*
X132566666Y-73542857D01*
X132614285Y-73447619D01*
X132661904Y-73400000D01*
X132757142Y-73352380D01*
X132995238Y-73352380D01*
X133138095Y-73400000D01*
X133471428Y-73352380D02*
X133709523Y-74352380D01*
X133900000Y-73638095D01*
X134090476Y-74352380D01*
X134328571Y-73352380D01*
X135233333Y-74352380D02*
X134661904Y-74352380D01*
X134947619Y-74352380D02*
X134947619Y-73352380D01*
X134852380Y-73495238D01*
X134757142Y-73590476D01*
X134661904Y-73638095D01*
X136063333Y-79561904D02*
X136558571Y-79561904D01*
X136291904Y-79866666D01*
X136406190Y-79866666D01*
X136482380Y-79904761D01*
X136520476Y-79942857D01*
X136558571Y-80019047D01*
X136558571Y-80209523D01*
X136520476Y-80285714D01*
X136482380Y-80323809D01*
X136406190Y-80361904D01*
X136177619Y-80361904D01*
X136101428Y-80323809D01*
X136063333Y-80285714D01*
X133561428Y-79638095D02*
X133599523Y-79600000D01*
X133675714Y-79561904D01*
X133866190Y-79561904D01*
X133942380Y-79600000D01*
X133980476Y-79638095D01*
X134018571Y-79714285D01*
X134018571Y-79790476D01*
X133980476Y-79904761D01*
X133523333Y-80361904D01*
X134018571Y-80361904D01*
X130754761Y-75061904D02*
X130907142Y-75061904D01*
X130983333Y-75100000D01*
X131059523Y-75176190D01*
X131097619Y-75328571D01*
X131097619Y-75595238D01*
X131059523Y-75747619D01*
X130983333Y-75823809D01*
X130907142Y-75861904D01*
X130754761Y-75861904D01*
X130678571Y-75823809D01*
X130602380Y-75747619D01*
X130564285Y-75595238D01*
X130564285Y-75328571D01*
X130602380Y-75176190D01*
X130678571Y-75100000D01*
X130754761Y-75061904D01*
X131440476Y-75861904D02*
X131440476Y-75061904D01*
X131897619Y-75861904D01*
X131897619Y-75061904D01*
X131478571Y-80361904D02*
X131021428Y-80361904D01*
X131250000Y-80361904D02*
X131250000Y-79561904D01*
X131173809Y-79676190D01*
X131097619Y-79752380D01*
X131021428Y-79790476D01*
X144402380Y-77833333D02*
X145116666Y-77833333D01*
X145259523Y-77880952D01*
X145354761Y-77976190D01*
X145402380Y-78119047D01*
X145402380Y-78214285D01*
X145402380Y-76833333D02*
X145402380Y-77404761D01*
X145402380Y-77119047D02*
X144402380Y-77119047D01*
X144545238Y-77214285D01*
X144640476Y-77309523D01*
X144688095Y-77404761D01*
X118547619Y-67345238D02*
X118500000Y-67440476D01*
X118404761Y-67535714D01*
X118261904Y-67678571D01*
X118214285Y-67773809D01*
X118214285Y-67869047D01*
X118452380Y-67821428D02*
X118404761Y-67916666D01*
X118309523Y-68011904D01*
X118119047Y-68059523D01*
X117785714Y-68059523D01*
X117595238Y-68011904D01*
X117500000Y-67916666D01*
X117452380Y-67821428D01*
X117452380Y-67630952D01*
X117500000Y-67535714D01*
X117595238Y-67440476D01*
X117785714Y-67392857D01*
X118119047Y-67392857D01*
X118309523Y-67440476D01*
X118404761Y-67535714D01*
X118452380Y-67630952D01*
X118452380Y-67821428D01*
X118452380Y-66440476D02*
X118452380Y-67011904D01*
X118452380Y-66726190D02*
X117452380Y-66726190D01*
X117595238Y-66821428D01*
X117690476Y-66916666D01*
X117738095Y-67011904D01*
X119047619Y-63595238D02*
X119000000Y-63690476D01*
X118904761Y-63785714D01*
X118761904Y-63928571D01*
X118714285Y-64023809D01*
X118714285Y-64119047D01*
X118952380Y-64071428D02*
X118904761Y-64166666D01*
X118809523Y-64261904D01*
X118619047Y-64309523D01*
X118285714Y-64309523D01*
X118095238Y-64261904D01*
X118000000Y-64166666D01*
X117952380Y-64071428D01*
X117952380Y-63880952D01*
X118000000Y-63785714D01*
X118095238Y-63690476D01*
X118285714Y-63642857D01*
X118619047Y-63642857D01*
X118809523Y-63690476D01*
X118904761Y-63785714D01*
X118952380Y-63880952D01*
X118952380Y-64071428D01*
X118047619Y-63261904D02*
X118000000Y-63214285D01*
X117952380Y-63119047D01*
X117952380Y-62880952D01*
X118000000Y-62785714D01*
X118047619Y-62738095D01*
X118142857Y-62690476D01*
X118238095Y-62690476D01*
X118380952Y-62738095D01*
X118952380Y-63309523D01*
X118952380Y-62690476D01*
X118547619Y-56095238D02*
X118500000Y-56190476D01*
X118404761Y-56285714D01*
X118261904Y-56428571D01*
X118214285Y-56523809D01*
X118214285Y-56619047D01*
X118452380Y-56571428D02*
X118404761Y-56666666D01*
X118309523Y-56761904D01*
X118119047Y-56809523D01*
X117785714Y-56809523D01*
X117595238Y-56761904D01*
X117500000Y-56666666D01*
X117452380Y-56571428D01*
X117452380Y-56380952D01*
X117500000Y-56285714D01*
X117595238Y-56190476D01*
X117785714Y-56142857D01*
X118119047Y-56142857D01*
X118309523Y-56190476D01*
X118404761Y-56285714D01*
X118452380Y-56380952D01*
X118452380Y-56571428D01*
X117452380Y-55809523D02*
X117452380Y-55190476D01*
X117833333Y-55523809D01*
X117833333Y-55380952D01*
X117880952Y-55285714D01*
X117928571Y-55238095D01*
X118023809Y-55190476D01*
X118261904Y-55190476D01*
X118357142Y-55238095D01*
X118404761Y-55285714D01*
X118452380Y-55380952D01*
X118452380Y-55666666D01*
X118404761Y-55761904D01*
X118357142Y-55809523D01*
X132297619Y-101095238D02*
X132250000Y-101190476D01*
X132154761Y-101285714D01*
X132011904Y-101428571D01*
X131964285Y-101523809D01*
X131964285Y-101619047D01*
X132202380Y-101571428D02*
X132154761Y-101666666D01*
X132059523Y-101761904D01*
X131869047Y-101809523D01*
X131535714Y-101809523D01*
X131345238Y-101761904D01*
X131250000Y-101666666D01*
X131202380Y-101571428D01*
X131202380Y-101380952D01*
X131250000Y-101285714D01*
X131345238Y-101190476D01*
X131535714Y-101142857D01*
X131869047Y-101142857D01*
X132059523Y-101190476D01*
X132154761Y-101285714D01*
X132202380Y-101380952D01*
X132202380Y-101571428D01*
X131202380Y-100238095D02*
X131202380Y-100714285D01*
X131678571Y-100761904D01*
X131630952Y-100714285D01*
X131583333Y-100619047D01*
X131583333Y-100380952D01*
X131630952Y-100285714D01*
X131678571Y-100238095D01*
X131773809Y-100190476D01*
X132011904Y-100190476D01*
X132107142Y-100238095D01*
X132154761Y-100285714D01*
X132202380Y-100380952D01*
X132202380Y-100619047D01*
X132154761Y-100714285D01*
X132107142Y-100761904D01*
X136797619Y-101095238D02*
X136750000Y-101190476D01*
X136654761Y-101285714D01*
X136511904Y-101428571D01*
X136464285Y-101523809D01*
X136464285Y-101619047D01*
X136702380Y-101571428D02*
X136654761Y-101666666D01*
X136559523Y-101761904D01*
X136369047Y-101809523D01*
X136035714Y-101809523D01*
X135845238Y-101761904D01*
X135750000Y-101666666D01*
X135702380Y-101571428D01*
X135702380Y-101380952D01*
X135750000Y-101285714D01*
X135845238Y-101190476D01*
X136035714Y-101142857D01*
X136369047Y-101142857D01*
X136559523Y-101190476D01*
X136654761Y-101285714D01*
X136702380Y-101380952D01*
X136702380Y-101571428D01*
X135702380Y-100285714D02*
X135702380Y-100476190D01*
X135750000Y-100571428D01*
X135797619Y-100619047D01*
X135940476Y-100714285D01*
X136130952Y-100761904D01*
X136511904Y-100761904D01*
X136607142Y-100714285D01*
X136654761Y-100666666D01*
X136702380Y-100571428D01*
X136702380Y-100380952D01*
X136654761Y-100285714D01*
X136607142Y-100238095D01*
X136511904Y-100190476D01*
X136273809Y-100190476D01*
X136178571Y-100238095D01*
X136130952Y-100285714D01*
X136083333Y-100380952D01*
X136083333Y-100571428D01*
X136130952Y-100666666D01*
X136178571Y-100714285D01*
X136273809Y-100761904D01*
X119047619Y-59845238D02*
X119000000Y-59940476D01*
X118904761Y-60035714D01*
X118761904Y-60178571D01*
X118714285Y-60273809D01*
X118714285Y-60369047D01*
X118952380Y-60321428D02*
X118904761Y-60416666D01*
X118809523Y-60511904D01*
X118619047Y-60559523D01*
X118285714Y-60559523D01*
X118095238Y-60511904D01*
X118000000Y-60416666D01*
X117952380Y-60321428D01*
X117952380Y-60130952D01*
X118000000Y-60035714D01*
X118095238Y-59940476D01*
X118285714Y-59892857D01*
X118619047Y-59892857D01*
X118809523Y-59940476D01*
X118904761Y-60035714D01*
X118952380Y-60130952D01*
X118952380Y-60321428D01*
X118285714Y-59035714D02*
X118952380Y-59035714D01*
X117904761Y-59273809D02*
X118619047Y-59511904D01*
X118619047Y-58892857D01*
X107583333Y-61452380D02*
X107107142Y-61452380D01*
X107107142Y-60452380D01*
X108440476Y-61452380D02*
X107869047Y-61452380D01*
X108154761Y-61452380D02*
X108154761Y-60452380D01*
X108059523Y-60595238D01*
X107964285Y-60690476D01*
X107869047Y-60738095D01*
X104810714Y-96852380D02*
X104810714Y-95852380D01*
X105048809Y-95852380D01*
X105191666Y-95900000D01*
X105286904Y-95995238D01*
X105334523Y-96090476D01*
X105382142Y-96280952D01*
X105382142Y-96423809D01*
X105334523Y-96614285D01*
X105286904Y-96709523D01*
X105191666Y-96804761D01*
X105048809Y-96852380D01*
X104810714Y-96852380D01*
X106334523Y-96852380D02*
X105763095Y-96852380D01*
X106048809Y-96852380D02*
X106048809Y-95852380D01*
X105953571Y-95995238D01*
X105858333Y-96090476D01*
X105763095Y-96138095D01*
X107286904Y-96852380D02*
X106715476Y-96852380D01*
X107001190Y-96852380D02*
X107001190Y-95852380D01*
X106905952Y-95995238D01*
X106810714Y-96090476D01*
X106715476Y-96138095D01*
D13*
X139728571Y-76507142D02*
X139752380Y-76526190D01*
X139776190Y-76583333D01*
X139776190Y-76621428D01*
X139752380Y-76678571D01*
X139704761Y-76716666D01*
X139657142Y-76735714D01*
X139561904Y-76754761D01*
X139490476Y-76754761D01*
X139395238Y-76735714D01*
X139347619Y-76716666D01*
X139300000Y-76678571D01*
X139276190Y-76621428D01*
X139276190Y-76583333D01*
X139300000Y-76526190D01*
X139323809Y-76507142D01*
X139323809Y-76354761D02*
X139300000Y-76335714D01*
X139276190Y-76297619D01*
X139276190Y-76202380D01*
X139300000Y-76164285D01*
X139323809Y-76145238D01*
X139371428Y-76126190D01*
X139419047Y-76126190D01*
X139490476Y-76145238D01*
X139776190Y-76373809D01*
X139776190Y-76126190D01*
X139490476Y-75897619D02*
X139466666Y-75935714D01*
X139442857Y-75954761D01*
X139395238Y-75973809D01*
X139371428Y-75973809D01*
X139323809Y-75954761D01*
X139300000Y-75935714D01*
X139276190Y-75897619D01*
X139276190Y-75821428D01*
X139300000Y-75783333D01*
X139323809Y-75764285D01*
X139371428Y-75745238D01*
X139395238Y-75745238D01*
X139442857Y-75764285D01*
X139466666Y-75783333D01*
X139490476Y-75821428D01*
X139490476Y-75897619D01*
X139514285Y-75935714D01*
X139538095Y-75954761D01*
X139585714Y-75973809D01*
X139680952Y-75973809D01*
X139728571Y-75954761D01*
X139752380Y-75935714D01*
X139776190Y-75897619D01*
X139776190Y-75821428D01*
X139752380Y-75783333D01*
X139728571Y-75764285D01*
X139680952Y-75745238D01*
X139585714Y-75745238D01*
X139538095Y-75764285D01*
X139514285Y-75783333D01*
X139490476Y-75821428D01*
D14*
X117736285Y-53643571D02*
X117736285Y-52773571D01*
X117902000Y-52773571D01*
X118001428Y-52815000D01*
X118067714Y-52897857D01*
X118100857Y-52980714D01*
X118134000Y-53146428D01*
X118134000Y-53270714D01*
X118100857Y-53436428D01*
X118067714Y-53519285D01*
X118001428Y-53602142D01*
X117902000Y-53643571D01*
X117736285Y-53643571D01*
X118763714Y-52773571D02*
X118432285Y-52773571D01*
X118399142Y-53187857D01*
X118432285Y-53146428D01*
X118498571Y-53105000D01*
X118664285Y-53105000D01*
X118730571Y-53146428D01*
X118763714Y-53187857D01*
X118796857Y-53270714D01*
X118796857Y-53477857D01*
X118763714Y-53560714D01*
X118730571Y-53602142D01*
X118664285Y-53643571D01*
X118498571Y-53643571D01*
X118432285Y-53602142D01*
X118399142Y-53560714D01*
X128986285Y-69643571D02*
X128986285Y-68773571D01*
X129152000Y-68773571D01*
X129251428Y-68815000D01*
X129317714Y-68897857D01*
X129350857Y-68980714D01*
X129384000Y-69146428D01*
X129384000Y-69270714D01*
X129350857Y-69436428D01*
X129317714Y-69519285D01*
X129251428Y-69602142D01*
X129152000Y-69643571D01*
X128986285Y-69643571D01*
X130046857Y-69643571D02*
X129649142Y-69643571D01*
X129848000Y-69643571D02*
X129848000Y-68773571D01*
X129781714Y-68897857D01*
X129715428Y-68980714D01*
X129649142Y-69022142D01*
X130643571Y-56513714D02*
X129773571Y-56513714D01*
X129773571Y-56348000D01*
X129815000Y-56248571D01*
X129897857Y-56182285D01*
X129980714Y-56149142D01*
X130146428Y-56116000D01*
X130270714Y-56116000D01*
X130436428Y-56149142D01*
X130519285Y-56182285D01*
X130602142Y-56248571D01*
X130643571Y-56348000D01*
X130643571Y-56513714D01*
X129773571Y-55884000D02*
X129773571Y-55453142D01*
X130105000Y-55685142D01*
X130105000Y-55585714D01*
X130146428Y-55519428D01*
X130187857Y-55486285D01*
X130270714Y-55453142D01*
X130477857Y-55453142D01*
X130560714Y-55486285D01*
X130602142Y-55519428D01*
X130643571Y-55585714D01*
X130643571Y-55784571D01*
X130602142Y-55850857D01*
X130560714Y-55884000D01*
X140116285Y-56393571D02*
X140116285Y-55523571D01*
X140282000Y-55523571D01*
X140381428Y-55565000D01*
X140447714Y-55647857D01*
X140480857Y-55730714D01*
X140514000Y-55896428D01*
X140514000Y-56020714D01*
X140480857Y-56186428D01*
X140447714Y-56269285D01*
X140381428Y-56352142D01*
X140282000Y-56393571D01*
X140116285Y-56393571D01*
X141110571Y-55813571D02*
X141110571Y-56393571D01*
X140944857Y-55482142D02*
X140779142Y-56103571D01*
X141210000Y-56103571D01*
X120706285Y-83016190D02*
X120706285Y-82096190D01*
X120881523Y-82096190D01*
X120986666Y-82140000D01*
X121056761Y-82227619D01*
X121091809Y-82315238D01*
X121126857Y-82490476D01*
X121126857Y-82621904D01*
X121091809Y-82797142D01*
X121056761Y-82884761D01*
X120986666Y-82972380D01*
X120881523Y-83016190D01*
X120706285Y-83016190D01*
X121827809Y-83016190D02*
X121407238Y-83016190D01*
X121617523Y-83016190D02*
X121617523Y-82096190D01*
X121547428Y-82227619D01*
X121477333Y-82315238D01*
X121407238Y-82359047D01*
X122283428Y-82096190D02*
X122353523Y-82096190D01*
X122423619Y-82140000D01*
X122458666Y-82183809D01*
X122493714Y-82271428D01*
X122528761Y-82446666D01*
X122528761Y-82665714D01*
X122493714Y-82840952D01*
X122458666Y-82928571D01*
X122423619Y-82972380D01*
X122353523Y-83016190D01*
X122283428Y-83016190D01*
X122213333Y-82972380D01*
X122178285Y-82928571D01*
X122143238Y-82840952D01*
X122108190Y-82665714D01*
X122108190Y-82446666D01*
X122143238Y-82271428D01*
X122178285Y-82183809D01*
X122213333Y-82140000D01*
X122283428Y-82096190D01*
X115179904Y-101753809D02*
X115109809Y-101710000D01*
X115039714Y-101622380D01*
X114934571Y-101490952D01*
X114864476Y-101447142D01*
X114794380Y-101447142D01*
X114829428Y-101666190D02*
X114759333Y-101622380D01*
X114689238Y-101534761D01*
X114654190Y-101359523D01*
X114654190Y-101052857D01*
X114689238Y-100877619D01*
X114759333Y-100790000D01*
X114829428Y-100746190D01*
X114969619Y-100746190D01*
X115039714Y-100790000D01*
X115109809Y-100877619D01*
X115144857Y-101052857D01*
X115144857Y-101359523D01*
X115109809Y-101534761D01*
X115039714Y-101622380D01*
X114969619Y-101666190D01*
X114829428Y-101666190D01*
X115565428Y-101140476D02*
X115495333Y-101096666D01*
X115460285Y-101052857D01*
X115425238Y-100965238D01*
X115425238Y-100921428D01*
X115460285Y-100833809D01*
X115495333Y-100790000D01*
X115565428Y-100746190D01*
X115705619Y-100746190D01*
X115775714Y-100790000D01*
X115810761Y-100833809D01*
X115845809Y-100921428D01*
X115845809Y-100965238D01*
X115810761Y-101052857D01*
X115775714Y-101096666D01*
X115705619Y-101140476D01*
X115565428Y-101140476D01*
X115495333Y-101184285D01*
X115460285Y-101228095D01*
X115425238Y-101315714D01*
X115425238Y-101490952D01*
X115460285Y-101578571D01*
X115495333Y-101622380D01*
X115565428Y-101666190D01*
X115705619Y-101666190D01*
X115775714Y-101622380D01*
X115810761Y-101578571D01*
X115845809Y-101490952D01*
X115845809Y-101315714D01*
X115810761Y-101228095D01*
X115775714Y-101184285D01*
X115705619Y-101140476D01*
D15*
X136619047Y-87104761D02*
X136619047Y-85104761D01*
X137000000Y-85104761D01*
X137228571Y-85200000D01*
X137380952Y-85390476D01*
X137457142Y-85580952D01*
X137533333Y-85961904D01*
X137533333Y-86247619D01*
X137457142Y-86628571D01*
X137380952Y-86819047D01*
X137228571Y-87009523D01*
X137000000Y-87104761D01*
X136619047Y-87104761D01*
X138904761Y-85104761D02*
X138600000Y-85104761D01*
X138447619Y-85200000D01*
X138371428Y-85295238D01*
X138219047Y-85580952D01*
X138142857Y-85961904D01*
X138142857Y-86723809D01*
X138219047Y-86914285D01*
X138295238Y-87009523D01*
X138447619Y-87104761D01*
X138752380Y-87104761D01*
X138904761Y-87009523D01*
X138980952Y-86914285D01*
X139057142Y-86723809D01*
X139057142Y-86247619D01*
X138980952Y-86057142D01*
X138904761Y-85961904D01*
X138752380Y-85866666D01*
X138447619Y-85866666D01*
X138295238Y-85961904D01*
X138219047Y-86057142D01*
X138142857Y-86247619D01*
D11*
X110301904Y-97720380D02*
X109081904Y-97720380D01*
X109081904Y-97488000D01*
X109140000Y-97348571D01*
X109256190Y-97255619D01*
X109372380Y-97209142D01*
X109604761Y-97162666D01*
X109779047Y-97162666D01*
X110011428Y-97209142D01*
X110127619Y-97255619D01*
X110243809Y-97348571D01*
X110301904Y-97488000D01*
X110301904Y-97720380D01*
X109604761Y-96604952D02*
X109546666Y-96697904D01*
X109488571Y-96744380D01*
X109372380Y-96790857D01*
X109314285Y-96790857D01*
X109198095Y-96744380D01*
X109140000Y-96697904D01*
X109081904Y-96604952D01*
X109081904Y-96419047D01*
X109140000Y-96326095D01*
X109198095Y-96279619D01*
X109314285Y-96233142D01*
X109372380Y-96233142D01*
X109488571Y-96279619D01*
X109546666Y-96326095D01*
X109604761Y-96419047D01*
X109604761Y-96604952D01*
X109662857Y-96697904D01*
X109720952Y-96744380D01*
X109837142Y-96790857D01*
X110069523Y-96790857D01*
X110185714Y-96744380D01*
X110243809Y-96697904D01*
X110301904Y-96604952D01*
X110301904Y-96419047D01*
X110243809Y-96326095D01*
X110185714Y-96279619D01*
X110069523Y-96233142D01*
X109837142Y-96233142D01*
X109720952Y-96279619D01*
X109662857Y-96326095D01*
X109604761Y-96419047D01*
X115801904Y-97720380D02*
X114581904Y-97720380D01*
X114581904Y-97488000D01*
X114640000Y-97348571D01*
X114756190Y-97255619D01*
X114872380Y-97209142D01*
X115104761Y-97162666D01*
X115279047Y-97162666D01*
X115511428Y-97209142D01*
X115627619Y-97255619D01*
X115743809Y-97348571D01*
X115801904Y-97488000D01*
X115801904Y-97720380D01*
X115801904Y-96697904D02*
X115801904Y-96512000D01*
X115743809Y-96419047D01*
X115685714Y-96372571D01*
X115511428Y-96279619D01*
X115279047Y-96233142D01*
X114814285Y-96233142D01*
X114698095Y-96279619D01*
X114640000Y-96326095D01*
X114581904Y-96419047D01*
X114581904Y-96604952D01*
X114640000Y-96697904D01*
X114698095Y-96744380D01*
X114814285Y-96790857D01*
X115104761Y-96790857D01*
X115220952Y-96744380D01*
X115279047Y-96697904D01*
X115337142Y-96604952D01*
X115337142Y-96419047D01*
X115279047Y-96326095D01*
X115220952Y-96279619D01*
X115104761Y-96233142D01*
D14*
X140916190Y-98473142D02*
X140478095Y-98718476D01*
X140916190Y-98893714D02*
X139996190Y-98893714D01*
X139996190Y-98613333D01*
X140040000Y-98543238D01*
X140083809Y-98508190D01*
X140171428Y-98473142D01*
X140302857Y-98473142D01*
X140390476Y-98508190D01*
X140434285Y-98543238D01*
X140478095Y-98613333D01*
X140478095Y-98893714D01*
X140083809Y-98192761D02*
X140040000Y-98157714D01*
X139996190Y-98087619D01*
X139996190Y-97912380D01*
X140040000Y-97842285D01*
X140083809Y-97807238D01*
X140171428Y-97772190D01*
X140259047Y-97772190D01*
X140390476Y-97807238D01*
X140916190Y-98227809D01*
X140916190Y-97772190D01*
X139996190Y-97526857D02*
X139996190Y-97071238D01*
X140346666Y-97316571D01*
X140346666Y-97211428D01*
X140390476Y-97141333D01*
X140434285Y-97106285D01*
X140521904Y-97071238D01*
X140740952Y-97071238D01*
X140828571Y-97106285D01*
X140872380Y-97141333D01*
X140916190Y-97211428D01*
X140916190Y-97421714D01*
X140872380Y-97491809D01*
X140828571Y-97526857D01*
X137026857Y-96166190D02*
X136781523Y-95728095D01*
X136606285Y-96166190D02*
X136606285Y-95246190D01*
X136886666Y-95246190D01*
X136956761Y-95290000D01*
X136991809Y-95333809D01*
X137026857Y-95421428D01*
X137026857Y-95552857D01*
X136991809Y-95640476D01*
X136956761Y-95684285D01*
X136886666Y-95728095D01*
X136606285Y-95728095D01*
X137307238Y-95333809D02*
X137342285Y-95290000D01*
X137412380Y-95246190D01*
X137587619Y-95246190D01*
X137657714Y-95290000D01*
X137692761Y-95333809D01*
X137727809Y-95421428D01*
X137727809Y-95509047D01*
X137692761Y-95640476D01*
X137272190Y-96166190D01*
X137727809Y-96166190D01*
X138358666Y-95552857D02*
X138358666Y-96166190D01*
X138183428Y-95202380D02*
X138008190Y-95859523D01*
X138463809Y-95859523D01*
X112666190Y-96473142D02*
X112228095Y-96718476D01*
X112666190Y-96893714D02*
X111746190Y-96893714D01*
X111746190Y-96613333D01*
X111790000Y-96543238D01*
X111833809Y-96508190D01*
X111921428Y-96473142D01*
X112052857Y-96473142D01*
X112140476Y-96508190D01*
X112184285Y-96543238D01*
X112228095Y-96613333D01*
X112228095Y-96893714D01*
X111833809Y-96192761D02*
X111790000Y-96157714D01*
X111746190Y-96087619D01*
X111746190Y-95912380D01*
X111790000Y-95842285D01*
X111833809Y-95807238D01*
X111921428Y-95772190D01*
X112009047Y-95772190D01*
X112140476Y-95807238D01*
X112666190Y-96227809D01*
X112666190Y-95772190D01*
X111746190Y-95526857D02*
X111746190Y-95036190D01*
X112666190Y-95351619D01*
D16*
X123080666Y-62074523D02*
X122742000Y-61469761D01*
X122500095Y-62074523D02*
X122500095Y-60804523D01*
X122887142Y-60804523D01*
X122983904Y-60865000D01*
X123032285Y-60925476D01*
X123080666Y-61046428D01*
X123080666Y-61227857D01*
X123032285Y-61348809D01*
X122983904Y-61409285D01*
X122887142Y-61469761D01*
X122500095Y-61469761D01*
X123564476Y-62074523D02*
X123758000Y-62074523D01*
X123854761Y-62014047D01*
X123903142Y-61953571D01*
X123999904Y-61772142D01*
X124048285Y-61530238D01*
X124048285Y-61046428D01*
X123999904Y-60925476D01*
X123951523Y-60865000D01*
X123854761Y-60804523D01*
X123661238Y-60804523D01*
X123564476Y-60865000D01*
X123516095Y-60925476D01*
X123467714Y-61046428D01*
X123467714Y-61348809D01*
X123516095Y-61469761D01*
X123564476Y-61530238D01*
X123661238Y-61590714D01*
X123854761Y-61590714D01*
X123951523Y-61530238D01*
X123999904Y-61469761D01*
X124048285Y-61348809D01*
X112703571Y-100653142D02*
X112764047Y-100701523D01*
X112824523Y-100846666D01*
X112824523Y-100943428D01*
X112764047Y-101088571D01*
X112643095Y-101185333D01*
X112522142Y-101233714D01*
X112280238Y-101282095D01*
X112098809Y-101282095D01*
X111856904Y-101233714D01*
X111735952Y-101185333D01*
X111615000Y-101088571D01*
X111554523Y-100943428D01*
X111554523Y-100846666D01*
X111615000Y-100701523D01*
X111675476Y-100653142D01*
X111554523Y-100314476D02*
X111554523Y-99685523D01*
X112038333Y-100024190D01*
X112038333Y-99879047D01*
X112098809Y-99782285D01*
X112159285Y-99733904D01*
X112280238Y-99685523D01*
X112582619Y-99685523D01*
X112703571Y-99733904D01*
X112764047Y-99782285D01*
X112824523Y-99879047D01*
X112824523Y-100169333D01*
X112764047Y-100266095D01*
X112703571Y-100314476D01*
X111554523Y-99056571D02*
X111554523Y-98959809D01*
X111615000Y-98863047D01*
X111675476Y-98814666D01*
X111796428Y-98766285D01*
X112038333Y-98717904D01*
X112340714Y-98717904D01*
X112582619Y-98766285D01*
X112703571Y-98814666D01*
X112764047Y-98863047D01*
X112824523Y-98959809D01*
X112824523Y-99056571D01*
X112764047Y-99153333D01*
X112703571Y-99201714D01*
X112582619Y-99250095D01*
X112340714Y-99298476D01*
X112038333Y-99298476D01*
X111796428Y-99250095D01*
X111675476Y-99201714D01*
X111615000Y-99153333D01*
X111554523Y-99056571D01*
X118453571Y-97403142D02*
X118514047Y-97451523D01*
X118574523Y-97596666D01*
X118574523Y-97693428D01*
X118514047Y-97838571D01*
X118393095Y-97935333D01*
X118272142Y-97983714D01*
X118030238Y-98032095D01*
X117848809Y-98032095D01*
X117606904Y-97983714D01*
X117485952Y-97935333D01*
X117365000Y-97838571D01*
X117304523Y-97693428D01*
X117304523Y-97596666D01*
X117365000Y-97451523D01*
X117425476Y-97403142D01*
X117304523Y-97064476D02*
X117304523Y-96435523D01*
X117788333Y-96774190D01*
X117788333Y-96629047D01*
X117848809Y-96532285D01*
X117909285Y-96483904D01*
X118030238Y-96435523D01*
X118332619Y-96435523D01*
X118453571Y-96483904D01*
X118514047Y-96532285D01*
X118574523Y-96629047D01*
X118574523Y-96919333D01*
X118514047Y-97016095D01*
X118453571Y-97064476D01*
X118574523Y-95467904D02*
X118574523Y-96048476D01*
X118574523Y-95758190D02*
X117304523Y-95758190D01*
X117485952Y-95854952D01*
X117606904Y-95951714D01*
X117667380Y-96048476D01*
D13*
X129433333Y-62976190D02*
X129300000Y-62738095D01*
X129204761Y-62976190D02*
X129204761Y-62476190D01*
X129357142Y-62476190D01*
X129395238Y-62500000D01*
X129414285Y-62523809D01*
X129433333Y-62571428D01*
X129433333Y-62642857D01*
X129414285Y-62690476D01*
X129395238Y-62714285D01*
X129357142Y-62738095D01*
X129204761Y-62738095D01*
X129814285Y-62976190D02*
X129585714Y-62976190D01*
X129700000Y-62976190D02*
X129700000Y-62476190D01*
X129661904Y-62547619D01*
X129623809Y-62595238D01*
X129585714Y-62619047D01*
X129433333Y-61476190D02*
X129300000Y-61238095D01*
X129204761Y-61476190D02*
X129204761Y-60976190D01*
X129357142Y-60976190D01*
X129395238Y-61000000D01*
X129414285Y-61023809D01*
X129433333Y-61071428D01*
X129433333Y-61142857D01*
X129414285Y-61190476D01*
X129395238Y-61214285D01*
X129357142Y-61238095D01*
X129204761Y-61238095D01*
X129585714Y-61023809D02*
X129604761Y-61000000D01*
X129642857Y-60976190D01*
X129738095Y-60976190D01*
X129776190Y-61000000D01*
X129795238Y-61023809D01*
X129814285Y-61071428D01*
X129814285Y-61119047D01*
X129795238Y-61190476D01*
X129566666Y-61476190D01*
X129814285Y-61476190D01*
X129433333Y-65976190D02*
X129300000Y-65738095D01*
X129204761Y-65976190D02*
X129204761Y-65476190D01*
X129357142Y-65476190D01*
X129395238Y-65500000D01*
X129414285Y-65523809D01*
X129433333Y-65571428D01*
X129433333Y-65642857D01*
X129414285Y-65690476D01*
X129395238Y-65714285D01*
X129357142Y-65738095D01*
X129204761Y-65738095D01*
X129566666Y-65476190D02*
X129833333Y-65476190D01*
X129661904Y-65976190D01*
X143726190Y-64507142D02*
X143488095Y-64640476D01*
X143726190Y-64735714D02*
X143226190Y-64735714D01*
X143226190Y-64583333D01*
X143250000Y-64545238D01*
X143273809Y-64526190D01*
X143321428Y-64507142D01*
X143392857Y-64507142D01*
X143440476Y-64526190D01*
X143464285Y-64545238D01*
X143488095Y-64583333D01*
X143488095Y-64735714D01*
X143726190Y-64126190D02*
X143726190Y-64354761D01*
X143726190Y-64240476D02*
X143226190Y-64240476D01*
X143297619Y-64278571D01*
X143345238Y-64316666D01*
X143369047Y-64354761D01*
X143273809Y-63973809D02*
X143250000Y-63954761D01*
X143226190Y-63916666D01*
X143226190Y-63821428D01*
X143250000Y-63783333D01*
X143273809Y-63764285D01*
X143321428Y-63745238D01*
X143369047Y-63745238D01*
X143440476Y-63764285D01*
X143726190Y-63992857D01*
X143726190Y-63745238D01*
X143726190Y-67432142D02*
X143488095Y-67565476D01*
X143726190Y-67660714D02*
X143226190Y-67660714D01*
X143226190Y-67508333D01*
X143250000Y-67470238D01*
X143273809Y-67451190D01*
X143321428Y-67432142D01*
X143392857Y-67432142D01*
X143440476Y-67451190D01*
X143464285Y-67470238D01*
X143488095Y-67508333D01*
X143488095Y-67660714D01*
X143726190Y-67051190D02*
X143726190Y-67279761D01*
X143726190Y-67165476D02*
X143226190Y-67165476D01*
X143297619Y-67203571D01*
X143345238Y-67241666D01*
X143369047Y-67279761D01*
X143226190Y-66917857D02*
X143226190Y-66670238D01*
X143416666Y-66803571D01*
X143416666Y-66746428D01*
X143440476Y-66708333D01*
X143464285Y-66689285D01*
X143511904Y-66670238D01*
X143630952Y-66670238D01*
X143678571Y-66689285D01*
X143702380Y-66708333D01*
X143726190Y-66746428D01*
X143726190Y-66860714D01*
X143702380Y-66898809D01*
X143678571Y-66917857D01*
X145226190Y-67432142D02*
X144988095Y-67565476D01*
X145226190Y-67660714D02*
X144726190Y-67660714D01*
X144726190Y-67508333D01*
X144750000Y-67470238D01*
X144773809Y-67451190D01*
X144821428Y-67432142D01*
X144892857Y-67432142D01*
X144940476Y-67451190D01*
X144964285Y-67470238D01*
X144988095Y-67508333D01*
X144988095Y-67660714D01*
X145226190Y-67051190D02*
X145226190Y-67279761D01*
X145226190Y-67165476D02*
X144726190Y-67165476D01*
X144797619Y-67203571D01*
X144845238Y-67241666D01*
X144869047Y-67279761D01*
X144892857Y-66708333D02*
X145226190Y-66708333D01*
X144702380Y-66803571D02*
X145059523Y-66898809D01*
X145059523Y-66651190D01*
X146726190Y-67432142D02*
X146488095Y-67565476D01*
X146726190Y-67660714D02*
X146226190Y-67660714D01*
X146226190Y-67508333D01*
X146250000Y-67470238D01*
X146273809Y-67451190D01*
X146321428Y-67432142D01*
X146392857Y-67432142D01*
X146440476Y-67451190D01*
X146464285Y-67470238D01*
X146488095Y-67508333D01*
X146488095Y-67660714D01*
X146726190Y-67051190D02*
X146726190Y-67279761D01*
X146726190Y-67165476D02*
X146226190Y-67165476D01*
X146297619Y-67203571D01*
X146345238Y-67241666D01*
X146369047Y-67279761D01*
X146226190Y-66689285D02*
X146226190Y-66879761D01*
X146464285Y-66898809D01*
X146440476Y-66879761D01*
X146416666Y-66841666D01*
X146416666Y-66746428D01*
X146440476Y-66708333D01*
X146464285Y-66689285D01*
X146511904Y-66670238D01*
X146630952Y-66670238D01*
X146678571Y-66689285D01*
X146702380Y-66708333D01*
X146726190Y-66746428D01*
X146726190Y-66841666D01*
X146702380Y-66879761D01*
X146678571Y-66898809D01*
X102417857Y-94226190D02*
X102284523Y-93988095D01*
X102189285Y-94226190D02*
X102189285Y-93726190D01*
X102341666Y-93726190D01*
X102379761Y-93750000D01*
X102398809Y-93773809D01*
X102417857Y-93821428D01*
X102417857Y-93892857D01*
X102398809Y-93940476D01*
X102379761Y-93964285D01*
X102341666Y-93988095D01*
X102189285Y-93988095D01*
X102570238Y-93773809D02*
X102589285Y-93750000D01*
X102627380Y-93726190D01*
X102722619Y-93726190D01*
X102760714Y-93750000D01*
X102779761Y-93773809D01*
X102798809Y-93821428D01*
X102798809Y-93869047D01*
X102779761Y-93940476D01*
X102551190Y-94226190D01*
X102798809Y-94226190D01*
X103141666Y-93726190D02*
X103065476Y-93726190D01*
X103027380Y-93750000D01*
X103008333Y-93773809D01*
X102970238Y-93845238D01*
X102951190Y-93940476D01*
X102951190Y-94130952D01*
X102970238Y-94178571D01*
X102989285Y-94202380D01*
X103027380Y-94226190D01*
X103103571Y-94226190D01*
X103141666Y-94202380D01*
X103160714Y-94178571D01*
X103179761Y-94130952D01*
X103179761Y-94011904D01*
X103160714Y-93964285D01*
X103141666Y-93940476D01*
X103103571Y-93916666D01*
X103027380Y-93916666D01*
X102989285Y-93940476D01*
X102970238Y-93964285D01*
X102951190Y-94011904D01*
X109976190Y-101257142D02*
X109738095Y-101390476D01*
X109976190Y-101485714D02*
X109476190Y-101485714D01*
X109476190Y-101333333D01*
X109500000Y-101295238D01*
X109523809Y-101276190D01*
X109571428Y-101257142D01*
X109642857Y-101257142D01*
X109690476Y-101276190D01*
X109714285Y-101295238D01*
X109738095Y-101333333D01*
X109738095Y-101485714D01*
X109523809Y-101104761D02*
X109500000Y-101085714D01*
X109476190Y-101047619D01*
X109476190Y-100952380D01*
X109500000Y-100914285D01*
X109523809Y-100895238D01*
X109571428Y-100876190D01*
X109619047Y-100876190D01*
X109690476Y-100895238D01*
X109976190Y-101123809D01*
X109976190Y-100876190D01*
X109690476Y-100647619D02*
X109666666Y-100685714D01*
X109642857Y-100704761D01*
X109595238Y-100723809D01*
X109571428Y-100723809D01*
X109523809Y-100704761D01*
X109500000Y-100685714D01*
X109476190Y-100647619D01*
X109476190Y-100571428D01*
X109500000Y-100533333D01*
X109523809Y-100514285D01*
X109571428Y-100495238D01*
X109595238Y-100495238D01*
X109642857Y-100514285D01*
X109666666Y-100533333D01*
X109690476Y-100571428D01*
X109690476Y-100647619D01*
X109714285Y-100685714D01*
X109738095Y-100704761D01*
X109785714Y-100723809D01*
X109880952Y-100723809D01*
X109928571Y-100704761D01*
X109952380Y-100685714D01*
X109976190Y-100647619D01*
X109976190Y-100571428D01*
X109952380Y-100533333D01*
X109928571Y-100514285D01*
X109880952Y-100495238D01*
X109785714Y-100495238D01*
X109738095Y-100514285D01*
X109714285Y-100533333D01*
X109690476Y-100571428D01*
X118226190Y-101257142D02*
X117988095Y-101390476D01*
X118226190Y-101485714D02*
X117726190Y-101485714D01*
X117726190Y-101333333D01*
X117750000Y-101295238D01*
X117773809Y-101276190D01*
X117821428Y-101257142D01*
X117892857Y-101257142D01*
X117940476Y-101276190D01*
X117964285Y-101295238D01*
X117988095Y-101333333D01*
X117988095Y-101485714D01*
X117773809Y-101104761D02*
X117750000Y-101085714D01*
X117726190Y-101047619D01*
X117726190Y-100952380D01*
X117750000Y-100914285D01*
X117773809Y-100895238D01*
X117821428Y-100876190D01*
X117869047Y-100876190D01*
X117940476Y-100895238D01*
X118226190Y-101123809D01*
X118226190Y-100876190D01*
X118226190Y-100685714D02*
X118226190Y-100609523D01*
X118202380Y-100571428D01*
X118178571Y-100552380D01*
X118107142Y-100514285D01*
X118011904Y-100495238D01*
X117821428Y-100495238D01*
X117773809Y-100514285D01*
X117750000Y-100533333D01*
X117726190Y-100571428D01*
X117726190Y-100647619D01*
X117750000Y-100685714D01*
X117773809Y-100704761D01*
X117821428Y-100723809D01*
X117940476Y-100723809D01*
X117988095Y-100704761D01*
X118011904Y-100685714D01*
X118035714Y-100647619D01*
X118035714Y-100571428D01*
X118011904Y-100533333D01*
X117988095Y-100514285D01*
X117940476Y-100495238D01*
X124626190Y-83257142D02*
X124388095Y-83390476D01*
X124626190Y-83485714D02*
X124126190Y-83485714D01*
X124126190Y-83333333D01*
X124150000Y-83295238D01*
X124173809Y-83276190D01*
X124221428Y-83257142D01*
X124292857Y-83257142D01*
X124340476Y-83276190D01*
X124364285Y-83295238D01*
X124388095Y-83333333D01*
X124388095Y-83485714D01*
X124126190Y-83123809D02*
X124126190Y-82876190D01*
X124316666Y-83009523D01*
X124316666Y-82952380D01*
X124340476Y-82914285D01*
X124364285Y-82895238D01*
X124411904Y-82876190D01*
X124530952Y-82876190D01*
X124578571Y-82895238D01*
X124602380Y-82914285D01*
X124626190Y-82952380D01*
X124626190Y-83066666D01*
X124602380Y-83104761D01*
X124578571Y-83123809D01*
X124626190Y-82495238D02*
X124626190Y-82723809D01*
X124626190Y-82609523D02*
X124126190Y-82609523D01*
X124197619Y-82647619D01*
X124245238Y-82685714D01*
X124269047Y-82723809D01*
X121342857Y-85626190D02*
X121209523Y-85388095D01*
X121114285Y-85626190D02*
X121114285Y-85126190D01*
X121266666Y-85126190D01*
X121304761Y-85150000D01*
X121323809Y-85173809D01*
X121342857Y-85221428D01*
X121342857Y-85292857D01*
X121323809Y-85340476D01*
X121304761Y-85364285D01*
X121266666Y-85388095D01*
X121114285Y-85388095D01*
X121476190Y-85126190D02*
X121723809Y-85126190D01*
X121590476Y-85316666D01*
X121647619Y-85316666D01*
X121685714Y-85340476D01*
X121704761Y-85364285D01*
X121723809Y-85411904D01*
X121723809Y-85530952D01*
X121704761Y-85578571D01*
X121685714Y-85602380D01*
X121647619Y-85626190D01*
X121533333Y-85626190D01*
X121495238Y-85602380D01*
X121476190Y-85578571D01*
X121971428Y-85126190D02*
X122009523Y-85126190D01*
X122047619Y-85150000D01*
X122066666Y-85173809D01*
X122085714Y-85221428D01*
X122104761Y-85316666D01*
X122104761Y-85435714D01*
X122085714Y-85530952D01*
X122066666Y-85578571D01*
X122047619Y-85602380D01*
X122009523Y-85626190D01*
X121971428Y-85626190D01*
X121933333Y-85602380D01*
X121914285Y-85578571D01*
X121895238Y-85530952D01*
X121876190Y-85435714D01*
X121876190Y-85316666D01*
X121895238Y-85221428D01*
X121914285Y-85173809D01*
X121933333Y-85150000D01*
X121971428Y-85126190D01*
X128292857Y-94226190D02*
X128159523Y-93988095D01*
X128064285Y-94226190D02*
X128064285Y-93726190D01*
X128216666Y-93726190D01*
X128254761Y-93750000D01*
X128273809Y-93773809D01*
X128292857Y-93821428D01*
X128292857Y-93892857D01*
X128273809Y-93940476D01*
X128254761Y-93964285D01*
X128216666Y-93988095D01*
X128064285Y-93988095D01*
X128673809Y-94226190D02*
X128445238Y-94226190D01*
X128559523Y-94226190D02*
X128559523Y-93726190D01*
X128521428Y-93797619D01*
X128483333Y-93845238D01*
X128445238Y-93869047D01*
X129016666Y-93726190D02*
X128940476Y-93726190D01*
X128902380Y-93750000D01*
X128883333Y-93773809D01*
X128845238Y-93845238D01*
X128826190Y-93940476D01*
X128826190Y-94130952D01*
X128845238Y-94178571D01*
X128864285Y-94202380D01*
X128902380Y-94226190D01*
X128978571Y-94226190D01*
X129016666Y-94202380D01*
X129035714Y-94178571D01*
X129054761Y-94130952D01*
X129054761Y-94011904D01*
X129035714Y-93964285D01*
X129016666Y-93940476D01*
X128978571Y-93916666D01*
X128902380Y-93916666D01*
X128864285Y-93940476D01*
X128845238Y-93964285D01*
X128826190Y-94011904D01*
X128292857Y-92976190D02*
X128159523Y-92738095D01*
X128064285Y-92976190D02*
X128064285Y-92476190D01*
X128216666Y-92476190D01*
X128254761Y-92500000D01*
X128273809Y-92523809D01*
X128292857Y-92571428D01*
X128292857Y-92642857D01*
X128273809Y-92690476D01*
X128254761Y-92714285D01*
X128216666Y-92738095D01*
X128064285Y-92738095D01*
X128673809Y-92976190D02*
X128445238Y-92976190D01*
X128559523Y-92976190D02*
X128559523Y-92476190D01*
X128521428Y-92547619D01*
X128483333Y-92595238D01*
X128445238Y-92619047D01*
X128807142Y-92476190D02*
X129073809Y-92476190D01*
X128902380Y-92976190D01*
X131026190Y-87257142D02*
X130788095Y-87390476D01*
X131026190Y-87485714D02*
X130526190Y-87485714D01*
X130526190Y-87333333D01*
X130550000Y-87295238D01*
X130573809Y-87276190D01*
X130621428Y-87257142D01*
X130692857Y-87257142D01*
X130740476Y-87276190D01*
X130764285Y-87295238D01*
X130788095Y-87333333D01*
X130788095Y-87485714D01*
X131026190Y-86876190D02*
X131026190Y-87104761D01*
X131026190Y-86990476D02*
X130526190Y-86990476D01*
X130597619Y-87028571D01*
X130645238Y-87066666D01*
X130669047Y-87104761D01*
X130740476Y-86647619D02*
X130716666Y-86685714D01*
X130692857Y-86704761D01*
X130645238Y-86723809D01*
X130621428Y-86723809D01*
X130573809Y-86704761D01*
X130550000Y-86685714D01*
X130526190Y-86647619D01*
X130526190Y-86571428D01*
X130550000Y-86533333D01*
X130573809Y-86514285D01*
X130621428Y-86495238D01*
X130645238Y-86495238D01*
X130692857Y-86514285D01*
X130716666Y-86533333D01*
X130740476Y-86571428D01*
X130740476Y-86647619D01*
X130764285Y-86685714D01*
X130788095Y-86704761D01*
X130835714Y-86723809D01*
X130930952Y-86723809D01*
X130978571Y-86704761D01*
X131002380Y-86685714D01*
X131026190Y-86647619D01*
X131026190Y-86571428D01*
X131002380Y-86533333D01*
X130978571Y-86514285D01*
X130930952Y-86495238D01*
X130835714Y-86495238D01*
X130788095Y-86514285D01*
X130764285Y-86533333D01*
X130740476Y-86571428D01*
X133726190Y-96707142D02*
X133488095Y-96840476D01*
X133726190Y-96935714D02*
X133226190Y-96935714D01*
X133226190Y-96783333D01*
X133250000Y-96745238D01*
X133273809Y-96726190D01*
X133321428Y-96707142D01*
X133392857Y-96707142D01*
X133440476Y-96726190D01*
X133464285Y-96745238D01*
X133488095Y-96783333D01*
X133488095Y-96935714D01*
X133726190Y-96326190D02*
X133726190Y-96554761D01*
X133726190Y-96440476D02*
X133226190Y-96440476D01*
X133297619Y-96478571D01*
X133345238Y-96516666D01*
X133369047Y-96554761D01*
X133726190Y-96135714D02*
X133726190Y-96059523D01*
X133702380Y-96021428D01*
X133678571Y-96002380D01*
X133607142Y-95964285D01*
X133511904Y-95945238D01*
X133321428Y-95945238D01*
X133273809Y-95964285D01*
X133250000Y-95983333D01*
X133226190Y-96021428D01*
X133226190Y-96097619D01*
X133250000Y-96135714D01*
X133273809Y-96154761D01*
X133321428Y-96173809D01*
X133440476Y-96173809D01*
X133488095Y-96154761D01*
X133511904Y-96135714D01*
X133535714Y-96097619D01*
X133535714Y-96021428D01*
X133511904Y-95983333D01*
X133488095Y-95964285D01*
X133440476Y-95945238D01*
X132476190Y-96707142D02*
X132238095Y-96840476D01*
X132476190Y-96935714D02*
X131976190Y-96935714D01*
X131976190Y-96783333D01*
X132000000Y-96745238D01*
X132023809Y-96726190D01*
X132071428Y-96707142D01*
X132142857Y-96707142D01*
X132190476Y-96726190D01*
X132214285Y-96745238D01*
X132238095Y-96783333D01*
X132238095Y-96935714D01*
X132023809Y-96554761D02*
X132000000Y-96535714D01*
X131976190Y-96497619D01*
X131976190Y-96402380D01*
X132000000Y-96364285D01*
X132023809Y-96345238D01*
X132071428Y-96326190D01*
X132119047Y-96326190D01*
X132190476Y-96345238D01*
X132476190Y-96573809D01*
X132476190Y-96326190D01*
X131976190Y-96078571D02*
X131976190Y-96040476D01*
X132000000Y-96002380D01*
X132023809Y-95983333D01*
X132071428Y-95964285D01*
X132166666Y-95945238D01*
X132285714Y-95945238D01*
X132380952Y-95964285D01*
X132428571Y-95983333D01*
X132452380Y-96002380D01*
X132476190Y-96040476D01*
X132476190Y-96078571D01*
X132452380Y-96116666D01*
X132428571Y-96135714D01*
X132380952Y-96154761D01*
X132285714Y-96173809D01*
X132166666Y-96173809D01*
X132071428Y-96154761D01*
X132023809Y-96135714D01*
X132000000Y-96116666D01*
X131976190Y-96078571D01*
X134976190Y-96707142D02*
X134738095Y-96840476D01*
X134976190Y-96935714D02*
X134476190Y-96935714D01*
X134476190Y-96783333D01*
X134500000Y-96745238D01*
X134523809Y-96726190D01*
X134571428Y-96707142D01*
X134642857Y-96707142D01*
X134690476Y-96726190D01*
X134714285Y-96745238D01*
X134738095Y-96783333D01*
X134738095Y-96935714D01*
X134523809Y-96554761D02*
X134500000Y-96535714D01*
X134476190Y-96497619D01*
X134476190Y-96402380D01*
X134500000Y-96364285D01*
X134523809Y-96345238D01*
X134571428Y-96326190D01*
X134619047Y-96326190D01*
X134690476Y-96345238D01*
X134976190Y-96573809D01*
X134976190Y-96326190D01*
X134976190Y-95945238D02*
X134976190Y-96173809D01*
X134976190Y-96059523D02*
X134476190Y-96059523D01*
X134547619Y-96097619D01*
X134595238Y-96135714D01*
X134619047Y-96173809D01*
X142383333Y-58226190D02*
X142250000Y-57988095D01*
X142154761Y-58226190D02*
X142154761Y-57726190D01*
X142307142Y-57726190D01*
X142345238Y-57750000D01*
X142364285Y-57773809D01*
X142383333Y-57821428D01*
X142383333Y-57892857D01*
X142364285Y-57940476D01*
X142345238Y-57964285D01*
X142307142Y-57988095D01*
X142154761Y-57988095D01*
X142516666Y-57726190D02*
X142764285Y-57726190D01*
X142630952Y-57916666D01*
X142688095Y-57916666D01*
X142726190Y-57940476D01*
X142745238Y-57964285D01*
X142764285Y-58011904D01*
X142764285Y-58130952D01*
X142745238Y-58178571D01*
X142726190Y-58202380D01*
X142688095Y-58226190D01*
X142573809Y-58226190D01*
X142535714Y-58202380D01*
X142516666Y-58178571D01*
X143442857Y-59476190D02*
X143309523Y-59238095D01*
X143214285Y-59476190D02*
X143214285Y-58976190D01*
X143366666Y-58976190D01*
X143404761Y-59000000D01*
X143423809Y-59023809D01*
X143442857Y-59071428D01*
X143442857Y-59142857D01*
X143423809Y-59190476D01*
X143404761Y-59214285D01*
X143366666Y-59238095D01*
X143214285Y-59238095D01*
X143823809Y-59476190D02*
X143595238Y-59476190D01*
X143709523Y-59476190D02*
X143709523Y-58976190D01*
X143671428Y-59047619D01*
X143633333Y-59095238D01*
X143595238Y-59119047D01*
X144071428Y-58976190D02*
X144109523Y-58976190D01*
X144147619Y-59000000D01*
X144166666Y-59023809D01*
X144185714Y-59071428D01*
X144204761Y-59166666D01*
X144204761Y-59285714D01*
X144185714Y-59380952D01*
X144166666Y-59428571D01*
X144147619Y-59452380D01*
X144109523Y-59476190D01*
X144071428Y-59476190D01*
X144033333Y-59452380D01*
X144014285Y-59428571D01*
X143995238Y-59380952D01*
X143976190Y-59285714D01*
X143976190Y-59166666D01*
X143995238Y-59071428D01*
X144014285Y-59023809D01*
X144033333Y-59000000D01*
X144071428Y-58976190D01*
X143442857Y-60476190D02*
X143309523Y-60238095D01*
X143214285Y-60476190D02*
X143214285Y-59976190D01*
X143366666Y-59976190D01*
X143404761Y-60000000D01*
X143423809Y-60023809D01*
X143442857Y-60071428D01*
X143442857Y-60142857D01*
X143423809Y-60190476D01*
X143404761Y-60214285D01*
X143366666Y-60238095D01*
X143214285Y-60238095D01*
X143823809Y-60476190D02*
X143595238Y-60476190D01*
X143709523Y-60476190D02*
X143709523Y-59976190D01*
X143671428Y-60047619D01*
X143633333Y-60095238D01*
X143595238Y-60119047D01*
X144204761Y-60476190D02*
X143976190Y-60476190D01*
X144090476Y-60476190D02*
X144090476Y-59976190D01*
X144052380Y-60047619D01*
X144014285Y-60095238D01*
X143976190Y-60119047D01*
X138542857Y-98726190D02*
X138409523Y-98488095D01*
X138314285Y-98726190D02*
X138314285Y-98226190D01*
X138466666Y-98226190D01*
X138504761Y-98250000D01*
X138523809Y-98273809D01*
X138542857Y-98321428D01*
X138542857Y-98392857D01*
X138523809Y-98440476D01*
X138504761Y-98464285D01*
X138466666Y-98488095D01*
X138314285Y-98488095D01*
X138695238Y-98273809D02*
X138714285Y-98250000D01*
X138752380Y-98226190D01*
X138847619Y-98226190D01*
X138885714Y-98250000D01*
X138904761Y-98273809D01*
X138923809Y-98321428D01*
X138923809Y-98369047D01*
X138904761Y-98440476D01*
X138676190Y-98726190D01*
X138923809Y-98726190D01*
X139076190Y-98273809D02*
X139095238Y-98250000D01*
X139133333Y-98226190D01*
X139228571Y-98226190D01*
X139266666Y-98250000D01*
X139285714Y-98273809D01*
X139304761Y-98321428D01*
X139304761Y-98369047D01*
X139285714Y-98440476D01*
X139057142Y-98726190D01*
X139304761Y-98726190D01*
X131976190Y-67416666D02*
X131738095Y-67550000D01*
X131976190Y-67645238D02*
X131476190Y-67645238D01*
X131476190Y-67492857D01*
X131500000Y-67454761D01*
X131523809Y-67435714D01*
X131571428Y-67416666D01*
X131642857Y-67416666D01*
X131690476Y-67435714D01*
X131714285Y-67454761D01*
X131738095Y-67492857D01*
X131738095Y-67645238D01*
X131642857Y-67073809D02*
X131976190Y-67073809D01*
X131452380Y-67169047D02*
X131809523Y-67264285D01*
X131809523Y-67016666D01*
X133226190Y-67416666D02*
X132988095Y-67550000D01*
X133226190Y-67645238D02*
X132726190Y-67645238D01*
X132726190Y-67492857D01*
X132750000Y-67454761D01*
X132773809Y-67435714D01*
X132821428Y-67416666D01*
X132892857Y-67416666D01*
X132940476Y-67435714D01*
X132964285Y-67454761D01*
X132988095Y-67492857D01*
X132988095Y-67645238D01*
X132726190Y-67054761D02*
X132726190Y-67245238D01*
X132964285Y-67264285D01*
X132940476Y-67245238D01*
X132916666Y-67207142D01*
X132916666Y-67111904D01*
X132940476Y-67073809D01*
X132964285Y-67054761D01*
X133011904Y-67035714D01*
X133130952Y-67035714D01*
X133178571Y-67054761D01*
X133202380Y-67073809D01*
X133226190Y-67111904D01*
X133226190Y-67207142D01*
X133202380Y-67245238D01*
X133178571Y-67264285D01*
X134476190Y-67416666D02*
X134238095Y-67550000D01*
X134476190Y-67645238D02*
X133976190Y-67645238D01*
X133976190Y-67492857D01*
X134000000Y-67454761D01*
X134023809Y-67435714D01*
X134071428Y-67416666D01*
X134142857Y-67416666D01*
X134190476Y-67435714D01*
X134214285Y-67454761D01*
X134238095Y-67492857D01*
X134238095Y-67645238D01*
X133976190Y-67073809D02*
X133976190Y-67150000D01*
X134000000Y-67188095D01*
X134023809Y-67207142D01*
X134095238Y-67245238D01*
X134190476Y-67264285D01*
X134380952Y-67264285D01*
X134428571Y-67245238D01*
X134452380Y-67226190D01*
X134476190Y-67188095D01*
X134476190Y-67111904D01*
X134452380Y-67073809D01*
X134428571Y-67054761D01*
X134380952Y-67035714D01*
X134261904Y-67035714D01*
X134214285Y-67054761D01*
X134190476Y-67073809D01*
X134166666Y-67111904D01*
X134166666Y-67188095D01*
X134190476Y-67226190D01*
X134214285Y-67245238D01*
X134261904Y-67264285D01*
X140726190Y-67416666D02*
X140488095Y-67550000D01*
X140726190Y-67645238D02*
X140226190Y-67645238D01*
X140226190Y-67492857D01*
X140250000Y-67454761D01*
X140273809Y-67435714D01*
X140321428Y-67416666D01*
X140392857Y-67416666D01*
X140440476Y-67435714D01*
X140464285Y-67454761D01*
X140488095Y-67492857D01*
X140488095Y-67645238D01*
X140440476Y-67188095D02*
X140416666Y-67226190D01*
X140392857Y-67245238D01*
X140345238Y-67264285D01*
X140321428Y-67264285D01*
X140273809Y-67245238D01*
X140250000Y-67226190D01*
X140226190Y-67188095D01*
X140226190Y-67111904D01*
X140250000Y-67073809D01*
X140273809Y-67054761D01*
X140321428Y-67035714D01*
X140345238Y-67035714D01*
X140392857Y-67054761D01*
X140416666Y-67073809D01*
X140440476Y-67111904D01*
X140440476Y-67188095D01*
X140464285Y-67226190D01*
X140488095Y-67245238D01*
X140535714Y-67264285D01*
X140630952Y-67264285D01*
X140678571Y-67245238D01*
X140702380Y-67226190D01*
X140726190Y-67188095D01*
X140726190Y-67111904D01*
X140702380Y-67073809D01*
X140678571Y-67054761D01*
X140630952Y-67035714D01*
X140535714Y-67035714D01*
X140488095Y-67054761D01*
X140464285Y-67073809D01*
X140440476Y-67111904D01*
X143992857Y-94726190D02*
X143859523Y-94488095D01*
X143764285Y-94726190D02*
X143764285Y-94226190D01*
X143916666Y-94226190D01*
X143954761Y-94250000D01*
X143973809Y-94273809D01*
X143992857Y-94321428D01*
X143992857Y-94392857D01*
X143973809Y-94440476D01*
X143954761Y-94464285D01*
X143916666Y-94488095D01*
X143764285Y-94488095D01*
X144145238Y-94273809D02*
X144164285Y-94250000D01*
X144202380Y-94226190D01*
X144297619Y-94226190D01*
X144335714Y-94250000D01*
X144354761Y-94273809D01*
X144373809Y-94321428D01*
X144373809Y-94369047D01*
X144354761Y-94440476D01*
X144126190Y-94726190D01*
X144373809Y-94726190D01*
X144735714Y-94226190D02*
X144545238Y-94226190D01*
X144526190Y-94464285D01*
X144545238Y-94440476D01*
X144583333Y-94416666D01*
X144678571Y-94416666D01*
X144716666Y-94440476D01*
X144735714Y-94464285D01*
X144754761Y-94511904D01*
X144754761Y-94630952D01*
X144735714Y-94678571D01*
X144716666Y-94702380D01*
X144678571Y-94726190D01*
X144583333Y-94726190D01*
X144545238Y-94702380D01*
X144526190Y-94678571D01*
D16*
X121321142Y-80071428D02*
X121270857Y-80134285D01*
X121120000Y-80197142D01*
X121019428Y-80197142D01*
X120868571Y-80134285D01*
X120768000Y-80008571D01*
X120717714Y-79882857D01*
X120667428Y-79631428D01*
X120667428Y-79442857D01*
X120717714Y-79191428D01*
X120768000Y-79065714D01*
X120868571Y-78940000D01*
X121019428Y-78877142D01*
X121120000Y-78877142D01*
X121270857Y-78940000D01*
X121321142Y-79002857D01*
X121673142Y-78877142D02*
X122326857Y-78877142D01*
X121974857Y-79380000D01*
X122125714Y-79380000D01*
X122226285Y-79442857D01*
X122276571Y-79505714D01*
X122326857Y-79631428D01*
X122326857Y-79945714D01*
X122276571Y-80071428D01*
X122226285Y-80134285D01*
X122125714Y-80197142D01*
X121824000Y-80197142D01*
X121723428Y-80134285D01*
X121673142Y-80071428D01*
X122729142Y-79002857D02*
X122779428Y-78940000D01*
X122880000Y-78877142D01*
X123131428Y-78877142D01*
X123232000Y-78940000D01*
X123282285Y-79002857D01*
X123332571Y-79128571D01*
X123332571Y-79254285D01*
X123282285Y-79442857D01*
X122678857Y-80197142D01*
X123332571Y-80197142D01*
D13*
X141183333Y-61678571D02*
X141164285Y-61702380D01*
X141107142Y-61726190D01*
X141069047Y-61726190D01*
X141011904Y-61702380D01*
X140973809Y-61654761D01*
X140954761Y-61607142D01*
X140935714Y-61511904D01*
X140935714Y-61440476D01*
X140954761Y-61345238D01*
X140973809Y-61297619D01*
X141011904Y-61250000D01*
X141069047Y-61226190D01*
X141107142Y-61226190D01*
X141164285Y-61250000D01*
X141183333Y-61273809D01*
X141526190Y-61226190D02*
X141450000Y-61226190D01*
X141411904Y-61250000D01*
X141392857Y-61273809D01*
X141354761Y-61345238D01*
X141335714Y-61440476D01*
X141335714Y-61630952D01*
X141354761Y-61678571D01*
X141373809Y-61702380D01*
X141411904Y-61726190D01*
X141488095Y-61726190D01*
X141526190Y-61702380D01*
X141545238Y-61678571D01*
X141564285Y-61630952D01*
X141564285Y-61511904D01*
X141545238Y-61464285D01*
X141526190Y-61440476D01*
X141488095Y-61416666D01*
X141411904Y-61416666D01*
X141373809Y-61440476D01*
X141354761Y-61464285D01*
X141335714Y-61511904D01*
X134433333Y-56178571D02*
X134414285Y-56202380D01*
X134357142Y-56226190D01*
X134319047Y-56226190D01*
X134261904Y-56202380D01*
X134223809Y-56154761D01*
X134204761Y-56107142D01*
X134185714Y-56011904D01*
X134185714Y-55940476D01*
X134204761Y-55845238D01*
X134223809Y-55797619D01*
X134261904Y-55750000D01*
X134319047Y-55726190D01*
X134357142Y-55726190D01*
X134414285Y-55750000D01*
X134433333Y-55773809D01*
X134566666Y-55726190D02*
X134833333Y-55726190D01*
X134661904Y-56226190D01*
X129242857Y-64428571D02*
X129223809Y-64452380D01*
X129166666Y-64476190D01*
X129128571Y-64476190D01*
X129071428Y-64452380D01*
X129033333Y-64404761D01*
X129014285Y-64357142D01*
X128995238Y-64261904D01*
X128995238Y-64190476D01*
X129014285Y-64095238D01*
X129033333Y-64047619D01*
X129071428Y-64000000D01*
X129128571Y-63976190D01*
X129166666Y-63976190D01*
X129223809Y-64000000D01*
X129242857Y-64023809D01*
X129623809Y-64476190D02*
X129395238Y-64476190D01*
X129509523Y-64476190D02*
X129509523Y-63976190D01*
X129471428Y-64047619D01*
X129433333Y-64095238D01*
X129395238Y-64119047D01*
X129871428Y-63976190D02*
X129909523Y-63976190D01*
X129947619Y-64000000D01*
X129966666Y-64023809D01*
X129985714Y-64071428D01*
X130004761Y-64166666D01*
X130004761Y-64285714D01*
X129985714Y-64380952D01*
X129966666Y-64428571D01*
X129947619Y-64452380D01*
X129909523Y-64476190D01*
X129871428Y-64476190D01*
X129833333Y-64452380D01*
X129814285Y-64428571D01*
X129795238Y-64380952D01*
X129776190Y-64285714D01*
X129776190Y-64166666D01*
X129795238Y-64071428D01*
X129814285Y-64023809D01*
X129833333Y-64000000D01*
X129871428Y-63976190D01*
X142178571Y-64507142D02*
X142202380Y-64526190D01*
X142226190Y-64583333D01*
X142226190Y-64621428D01*
X142202380Y-64678571D01*
X142154761Y-64716666D01*
X142107142Y-64735714D01*
X142011904Y-64754761D01*
X141940476Y-64754761D01*
X141845238Y-64735714D01*
X141797619Y-64716666D01*
X141750000Y-64678571D01*
X141726190Y-64621428D01*
X141726190Y-64583333D01*
X141750000Y-64526190D01*
X141773809Y-64507142D01*
X142226190Y-64126190D02*
X142226190Y-64354761D01*
X142226190Y-64240476D02*
X141726190Y-64240476D01*
X141797619Y-64278571D01*
X141845238Y-64316666D01*
X141869047Y-64354761D01*
X141892857Y-63783333D02*
X142226190Y-63783333D01*
X141702380Y-63878571D02*
X142059523Y-63973809D01*
X142059523Y-63726190D01*
X142178571Y-67412142D02*
X142202380Y-67431190D01*
X142226190Y-67488333D01*
X142226190Y-67526428D01*
X142202380Y-67583571D01*
X142154761Y-67621666D01*
X142107142Y-67640714D01*
X142011904Y-67659761D01*
X141940476Y-67659761D01*
X141845238Y-67640714D01*
X141797619Y-67621666D01*
X141750000Y-67583571D01*
X141726190Y-67526428D01*
X141726190Y-67488333D01*
X141750000Y-67431190D01*
X141773809Y-67412142D01*
X142226190Y-67031190D02*
X142226190Y-67259761D01*
X142226190Y-67145476D02*
X141726190Y-67145476D01*
X141797619Y-67183571D01*
X141845238Y-67221666D01*
X141869047Y-67259761D01*
X141726190Y-66669285D02*
X141726190Y-66859761D01*
X141964285Y-66878809D01*
X141940476Y-66859761D01*
X141916666Y-66821666D01*
X141916666Y-66726428D01*
X141940476Y-66688333D01*
X141964285Y-66669285D01*
X142011904Y-66650238D01*
X142130952Y-66650238D01*
X142178571Y-66669285D01*
X142202380Y-66688333D01*
X142226190Y-66726428D01*
X142226190Y-66821666D01*
X142202380Y-66859761D01*
X142178571Y-66878809D01*
X141478571Y-60007142D02*
X141502380Y-60026190D01*
X141526190Y-60083333D01*
X141526190Y-60121428D01*
X141502380Y-60178571D01*
X141454761Y-60216666D01*
X141407142Y-60235714D01*
X141311904Y-60254761D01*
X141240476Y-60254761D01*
X141145238Y-60235714D01*
X141097619Y-60216666D01*
X141050000Y-60178571D01*
X141026190Y-60121428D01*
X141026190Y-60083333D01*
X141050000Y-60026190D01*
X141073809Y-60007142D01*
X141526190Y-59626190D02*
X141526190Y-59854761D01*
X141526190Y-59740476D02*
X141026190Y-59740476D01*
X141097619Y-59778571D01*
X141145238Y-59816666D01*
X141169047Y-59854761D01*
X141526190Y-59245238D02*
X141526190Y-59473809D01*
X141526190Y-59359523D02*
X141026190Y-59359523D01*
X141097619Y-59397619D01*
X141145238Y-59435714D01*
X141169047Y-59473809D01*
X128292857Y-95428571D02*
X128273809Y-95452380D01*
X128216666Y-95476190D01*
X128178571Y-95476190D01*
X128121428Y-95452380D01*
X128083333Y-95404761D01*
X128064285Y-95357142D01*
X128045238Y-95261904D01*
X128045238Y-95190476D01*
X128064285Y-95095238D01*
X128083333Y-95047619D01*
X128121428Y-95000000D01*
X128178571Y-94976190D01*
X128216666Y-94976190D01*
X128273809Y-95000000D01*
X128292857Y-95023809D01*
X128445238Y-95023809D02*
X128464285Y-95000000D01*
X128502380Y-94976190D01*
X128597619Y-94976190D01*
X128635714Y-95000000D01*
X128654761Y-95023809D01*
X128673809Y-95071428D01*
X128673809Y-95119047D01*
X128654761Y-95190476D01*
X128426190Y-95476190D01*
X128673809Y-95476190D01*
X129054761Y-95476190D02*
X128826190Y-95476190D01*
X128940476Y-95476190D02*
X128940476Y-94976190D01*
X128902380Y-95047619D01*
X128864285Y-95095238D01*
X128826190Y-95119047D01*
X137242857Y-93578571D02*
X137223809Y-93602380D01*
X137166666Y-93626190D01*
X137128571Y-93626190D01*
X137071428Y-93602380D01*
X137033333Y-93554761D01*
X137014285Y-93507142D01*
X136995238Y-93411904D01*
X136995238Y-93340476D01*
X137014285Y-93245238D01*
X137033333Y-93197619D01*
X137071428Y-93150000D01*
X137128571Y-93126190D01*
X137166666Y-93126190D01*
X137223809Y-93150000D01*
X137242857Y-93173809D01*
X137395238Y-93173809D02*
X137414285Y-93150000D01*
X137452380Y-93126190D01*
X137547619Y-93126190D01*
X137585714Y-93150000D01*
X137604761Y-93173809D01*
X137623809Y-93221428D01*
X137623809Y-93269047D01*
X137604761Y-93340476D01*
X137376190Y-93626190D01*
X137623809Y-93626190D01*
X137776190Y-93173809D02*
X137795238Y-93150000D01*
X137833333Y-93126190D01*
X137928571Y-93126190D01*
X137966666Y-93150000D01*
X137985714Y-93173809D01*
X138004761Y-93221428D01*
X138004761Y-93269047D01*
X137985714Y-93340476D01*
X137757142Y-93626190D01*
X138004761Y-93626190D01*
X128842857Y-97428571D02*
X128823809Y-97452380D01*
X128766666Y-97476190D01*
X128728571Y-97476190D01*
X128671428Y-97452380D01*
X128633333Y-97404761D01*
X128614285Y-97357142D01*
X128595238Y-97261904D01*
X128595238Y-97190476D01*
X128614285Y-97095238D01*
X128633333Y-97047619D01*
X128671428Y-97000000D01*
X128728571Y-96976190D01*
X128766666Y-96976190D01*
X128823809Y-97000000D01*
X128842857Y-97023809D01*
X128995238Y-97023809D02*
X129014285Y-97000000D01*
X129052380Y-96976190D01*
X129147619Y-96976190D01*
X129185714Y-97000000D01*
X129204761Y-97023809D01*
X129223809Y-97071428D01*
X129223809Y-97119047D01*
X129204761Y-97190476D01*
X128976190Y-97476190D01*
X129223809Y-97476190D01*
X129357142Y-96976190D02*
X129604761Y-96976190D01*
X129471428Y-97166666D01*
X129528571Y-97166666D01*
X129566666Y-97190476D01*
X129585714Y-97214285D01*
X129604761Y-97261904D01*
X129604761Y-97380952D01*
X129585714Y-97428571D01*
X129566666Y-97452380D01*
X129528571Y-97476190D01*
X129414285Y-97476190D01*
X129376190Y-97452380D01*
X129357142Y-97428571D01*
X128842857Y-98678571D02*
X128823809Y-98702380D01*
X128766666Y-98726190D01*
X128728571Y-98726190D01*
X128671428Y-98702380D01*
X128633333Y-98654761D01*
X128614285Y-98607142D01*
X128595238Y-98511904D01*
X128595238Y-98440476D01*
X128614285Y-98345238D01*
X128633333Y-98297619D01*
X128671428Y-98250000D01*
X128728571Y-98226190D01*
X128766666Y-98226190D01*
X128823809Y-98250000D01*
X128842857Y-98273809D01*
X128995238Y-98273809D02*
X129014285Y-98250000D01*
X129052380Y-98226190D01*
X129147619Y-98226190D01*
X129185714Y-98250000D01*
X129204761Y-98273809D01*
X129223809Y-98321428D01*
X129223809Y-98369047D01*
X129204761Y-98440476D01*
X128976190Y-98726190D01*
X129223809Y-98726190D01*
X129566666Y-98392857D02*
X129566666Y-98726190D01*
X129471428Y-98202380D02*
X129376190Y-98559523D01*
X129623809Y-98559523D01*
X135678571Y-67416666D02*
X135702380Y-67435714D01*
X135726190Y-67492857D01*
X135726190Y-67530952D01*
X135702380Y-67588095D01*
X135654761Y-67626190D01*
X135607142Y-67645238D01*
X135511904Y-67664285D01*
X135440476Y-67664285D01*
X135345238Y-67645238D01*
X135297619Y-67626190D01*
X135250000Y-67588095D01*
X135226190Y-67530952D01*
X135226190Y-67492857D01*
X135250000Y-67435714D01*
X135273809Y-67416666D01*
X135392857Y-67073809D02*
X135726190Y-67073809D01*
X135202380Y-67169047D02*
X135559523Y-67264285D01*
X135559523Y-67016666D01*
X136928571Y-67416666D02*
X136952380Y-67435714D01*
X136976190Y-67492857D01*
X136976190Y-67530952D01*
X136952380Y-67588095D01*
X136904761Y-67626190D01*
X136857142Y-67645238D01*
X136761904Y-67664285D01*
X136690476Y-67664285D01*
X136595238Y-67645238D01*
X136547619Y-67626190D01*
X136500000Y-67588095D01*
X136476190Y-67530952D01*
X136476190Y-67492857D01*
X136500000Y-67435714D01*
X136523809Y-67416666D01*
X136476190Y-67054761D02*
X136476190Y-67245238D01*
X136714285Y-67264285D01*
X136690476Y-67245238D01*
X136666666Y-67207142D01*
X136666666Y-67111904D01*
X136690476Y-67073809D01*
X136714285Y-67054761D01*
X136761904Y-67035714D01*
X136880952Y-67035714D01*
X136928571Y-67054761D01*
X136952380Y-67073809D01*
X136976190Y-67111904D01*
X136976190Y-67207142D01*
X136952380Y-67245238D01*
X136928571Y-67264285D01*
X129578571Y-59507142D02*
X129602380Y-59526190D01*
X129626190Y-59583333D01*
X129626190Y-59621428D01*
X129602380Y-59678571D01*
X129554761Y-59716666D01*
X129507142Y-59735714D01*
X129411904Y-59754761D01*
X129340476Y-59754761D01*
X129245238Y-59735714D01*
X129197619Y-59716666D01*
X129150000Y-59678571D01*
X129126190Y-59621428D01*
X129126190Y-59583333D01*
X129150000Y-59526190D01*
X129173809Y-59507142D01*
X129626190Y-59126190D02*
X129626190Y-59354761D01*
X129626190Y-59240476D02*
X129126190Y-59240476D01*
X129197619Y-59278571D01*
X129245238Y-59316666D01*
X129269047Y-59354761D01*
X129173809Y-58973809D02*
X129150000Y-58954761D01*
X129126190Y-58916666D01*
X129126190Y-58821428D01*
X129150000Y-58783333D01*
X129173809Y-58764285D01*
X129221428Y-58745238D01*
X129269047Y-58745238D01*
X129340476Y-58764285D01*
X129626190Y-58992857D01*
X129626190Y-58745238D01*
X136992857Y-55278571D02*
X136973809Y-55302380D01*
X136916666Y-55326190D01*
X136878571Y-55326190D01*
X136821428Y-55302380D01*
X136783333Y-55254761D01*
X136764285Y-55207142D01*
X136745238Y-55111904D01*
X136745238Y-55040476D01*
X136764285Y-54945238D01*
X136783333Y-54897619D01*
X136821428Y-54850000D01*
X136878571Y-54826190D01*
X136916666Y-54826190D01*
X136973809Y-54850000D01*
X136992857Y-54873809D01*
X137373809Y-55326190D02*
X137145238Y-55326190D01*
X137259523Y-55326190D02*
X137259523Y-54826190D01*
X137221428Y-54897619D01*
X137183333Y-54945238D01*
X137145238Y-54969047D01*
X137507142Y-54826190D02*
X137754761Y-54826190D01*
X137621428Y-55016666D01*
X137678571Y-55016666D01*
X137716666Y-55040476D01*
X137735714Y-55064285D01*
X137754761Y-55111904D01*
X137754761Y-55230952D01*
X137735714Y-55278571D01*
X137716666Y-55302380D01*
X137678571Y-55326190D01*
X137564285Y-55326190D01*
X137526190Y-55302380D01*
X137507142Y-55278571D01*
X145378571Y-92162142D02*
X145402380Y-92181190D01*
X145426190Y-92238333D01*
X145426190Y-92276428D01*
X145402380Y-92333571D01*
X145354761Y-92371666D01*
X145307142Y-92390714D01*
X145211904Y-92409761D01*
X145140476Y-92409761D01*
X145045238Y-92390714D01*
X144997619Y-92371666D01*
X144950000Y-92333571D01*
X144926190Y-92276428D01*
X144926190Y-92238333D01*
X144950000Y-92181190D01*
X144973809Y-92162142D01*
X144973809Y-92009761D02*
X144950000Y-91990714D01*
X144926190Y-91952619D01*
X144926190Y-91857380D01*
X144950000Y-91819285D01*
X144973809Y-91800238D01*
X145021428Y-91781190D01*
X145069047Y-91781190D01*
X145140476Y-91800238D01*
X145426190Y-92028809D01*
X145426190Y-91781190D01*
X145426190Y-91590714D02*
X145426190Y-91514523D01*
X145402380Y-91476428D01*
X145378571Y-91457380D01*
X145307142Y-91419285D01*
X145211904Y-91400238D01*
X145021428Y-91400238D01*
X144973809Y-91419285D01*
X144950000Y-91438333D01*
X144926190Y-91476428D01*
X144926190Y-91552619D01*
X144950000Y-91590714D01*
X144973809Y-91609761D01*
X145021428Y-91628809D01*
X145140476Y-91628809D01*
X145188095Y-91609761D01*
X145211904Y-91590714D01*
X145235714Y-91552619D01*
X145235714Y-91476428D01*
X145211904Y-91438333D01*
X145188095Y-91419285D01*
X145140476Y-91400238D01*
X139428571Y-67416666D02*
X139452380Y-67435714D01*
X139476190Y-67492857D01*
X139476190Y-67530952D01*
X139452380Y-67588095D01*
X139404761Y-67626190D01*
X139357142Y-67645238D01*
X139261904Y-67664285D01*
X139190476Y-67664285D01*
X139095238Y-67645238D01*
X139047619Y-67626190D01*
X139000000Y-67588095D01*
X138976190Y-67530952D01*
X138976190Y-67492857D01*
X139000000Y-67435714D01*
X139023809Y-67416666D01*
X139190476Y-67188095D02*
X139166666Y-67226190D01*
X139142857Y-67245238D01*
X139095238Y-67264285D01*
X139071428Y-67264285D01*
X139023809Y-67245238D01*
X139000000Y-67226190D01*
X138976190Y-67188095D01*
X138976190Y-67111904D01*
X139000000Y-67073809D01*
X139023809Y-67054761D01*
X139071428Y-67035714D01*
X139095238Y-67035714D01*
X139142857Y-67054761D01*
X139166666Y-67073809D01*
X139190476Y-67111904D01*
X139190476Y-67188095D01*
X139214285Y-67226190D01*
X139238095Y-67245238D01*
X139285714Y-67264285D01*
X139380952Y-67264285D01*
X139428571Y-67245238D01*
X139452380Y-67226190D01*
X139476190Y-67188095D01*
X139476190Y-67111904D01*
X139452380Y-67073809D01*
X139428571Y-67054761D01*
X139380952Y-67035714D01*
X139285714Y-67035714D01*
X139238095Y-67054761D01*
X139214285Y-67073809D01*
X139190476Y-67111904D01*
X138178571Y-67416666D02*
X138202380Y-67435714D01*
X138226190Y-67492857D01*
X138226190Y-67530952D01*
X138202380Y-67588095D01*
X138154761Y-67626190D01*
X138107142Y-67645238D01*
X138011904Y-67664285D01*
X137940476Y-67664285D01*
X137845238Y-67645238D01*
X137797619Y-67626190D01*
X137750000Y-67588095D01*
X137726190Y-67530952D01*
X137726190Y-67492857D01*
X137750000Y-67435714D01*
X137773809Y-67416666D01*
X138226190Y-67226190D02*
X138226190Y-67150000D01*
X138202380Y-67111904D01*
X138178571Y-67092857D01*
X138107142Y-67054761D01*
X138011904Y-67035714D01*
X137821428Y-67035714D01*
X137773809Y-67054761D01*
X137750000Y-67073809D01*
X137726190Y-67111904D01*
X137726190Y-67188095D01*
X137750000Y-67226190D01*
X137773809Y-67245238D01*
X137821428Y-67264285D01*
X137940476Y-67264285D01*
X137988095Y-67245238D01*
X138011904Y-67226190D01*
X138035714Y-67188095D01*
X138035714Y-67111904D01*
X138011904Y-67073809D01*
X137988095Y-67054761D01*
X137940476Y-67035714D01*
X129678571Y-87257142D02*
X129702380Y-87276190D01*
X129726190Y-87333333D01*
X129726190Y-87371428D01*
X129702380Y-87428571D01*
X129654761Y-87466666D01*
X129607142Y-87485714D01*
X129511904Y-87504761D01*
X129440476Y-87504761D01*
X129345238Y-87485714D01*
X129297619Y-87466666D01*
X129250000Y-87428571D01*
X129226190Y-87371428D01*
X129226190Y-87333333D01*
X129250000Y-87276190D01*
X129273809Y-87257142D01*
X129273809Y-87104761D02*
X129250000Y-87085714D01*
X129226190Y-87047619D01*
X129226190Y-86952380D01*
X129250000Y-86914285D01*
X129273809Y-86895238D01*
X129321428Y-86876190D01*
X129369047Y-86876190D01*
X129440476Y-86895238D01*
X129726190Y-87123809D01*
X129726190Y-86876190D01*
X129226190Y-86628571D02*
X129226190Y-86590476D01*
X129250000Y-86552380D01*
X129273809Y-86533333D01*
X129321428Y-86514285D01*
X129416666Y-86495238D01*
X129535714Y-86495238D01*
X129630952Y-86514285D01*
X129678571Y-86533333D01*
X129702380Y-86552380D01*
X129726190Y-86590476D01*
X129726190Y-86628571D01*
X129702380Y-86666666D01*
X129678571Y-86685714D01*
X129630952Y-86704761D01*
X129535714Y-86723809D01*
X129416666Y-86723809D01*
X129321428Y-86704761D01*
X129273809Y-86685714D01*
X129250000Y-86666666D01*
X129226190Y-86628571D01*
X139728571Y-79007142D02*
X139752380Y-79026190D01*
X139776190Y-79083333D01*
X139776190Y-79121428D01*
X139752380Y-79178571D01*
X139704761Y-79216666D01*
X139657142Y-79235714D01*
X139561904Y-79254761D01*
X139490476Y-79254761D01*
X139395238Y-79235714D01*
X139347619Y-79216666D01*
X139300000Y-79178571D01*
X139276190Y-79121428D01*
X139276190Y-79083333D01*
X139300000Y-79026190D01*
X139323809Y-79007142D01*
X139323809Y-78854761D02*
X139300000Y-78835714D01*
X139276190Y-78797619D01*
X139276190Y-78702380D01*
X139300000Y-78664285D01*
X139323809Y-78645238D01*
X139371428Y-78626190D01*
X139419047Y-78626190D01*
X139490476Y-78645238D01*
X139776190Y-78873809D01*
X139776190Y-78626190D01*
X139276190Y-78492857D02*
X139276190Y-78226190D01*
X139776190Y-78397619D01*
X138542857Y-97428571D02*
X138523809Y-97452380D01*
X138466666Y-97476190D01*
X138428571Y-97476190D01*
X138371428Y-97452380D01*
X138333333Y-97404761D01*
X138314285Y-97357142D01*
X138295238Y-97261904D01*
X138295238Y-97190476D01*
X138314285Y-97095238D01*
X138333333Y-97047619D01*
X138371428Y-97000000D01*
X138428571Y-96976190D01*
X138466666Y-96976190D01*
X138523809Y-97000000D01*
X138542857Y-97023809D01*
X138695238Y-97023809D02*
X138714285Y-97000000D01*
X138752380Y-96976190D01*
X138847619Y-96976190D01*
X138885714Y-97000000D01*
X138904761Y-97023809D01*
X138923809Y-97071428D01*
X138923809Y-97119047D01*
X138904761Y-97190476D01*
X138676190Y-97476190D01*
X138923809Y-97476190D01*
X139285714Y-96976190D02*
X139095238Y-96976190D01*
X139076190Y-97214285D01*
X139095238Y-97190476D01*
X139133333Y-97166666D01*
X139228571Y-97166666D01*
X139266666Y-97190476D01*
X139285714Y-97214285D01*
X139304761Y-97261904D01*
X139304761Y-97380952D01*
X139285714Y-97428571D01*
X139266666Y-97452380D01*
X139228571Y-97476190D01*
X139133333Y-97476190D01*
X139095238Y-97452380D01*
X139076190Y-97428571D01*
D15*
X123933333Y-75314285D02*
X123857142Y-75409523D01*
X123628571Y-75504761D01*
X123476190Y-75504761D01*
X123247619Y-75409523D01*
X123095238Y-75219047D01*
X123019047Y-75028571D01*
X122942857Y-74647619D01*
X122942857Y-74361904D01*
X123019047Y-73980952D01*
X123095238Y-73790476D01*
X123247619Y-73600000D01*
X123476190Y-73504761D01*
X123628571Y-73504761D01*
X123857142Y-73600000D01*
X123933333Y-73695238D01*
X125457142Y-75504761D02*
X124542857Y-75504761D01*
X125000000Y-75504761D02*
X125000000Y-73504761D01*
X124847619Y-73790476D01*
X124695238Y-73980952D01*
X124542857Y-74076190D01*
X122971428Y-100214285D02*
X122895238Y-100309523D01*
X122666666Y-100404761D01*
X122514285Y-100404761D01*
X122285714Y-100309523D01*
X122133333Y-100119047D01*
X122057142Y-99928571D01*
X121980952Y-99547619D01*
X121980952Y-99261904D01*
X122057142Y-98880952D01*
X122133333Y-98690476D01*
X122285714Y-98500000D01*
X122514285Y-98404761D01*
X122666666Y-98404761D01*
X122895238Y-98500000D01*
X122971428Y-98595238D01*
X124495238Y-100404761D02*
X123580952Y-100404761D01*
X124038095Y-100404761D02*
X124038095Y-98404761D01*
X123885714Y-98690476D01*
X123733333Y-98880952D01*
X123580952Y-98976190D01*
X125257142Y-100404761D02*
X125561904Y-100404761D01*
X125714285Y-100309523D01*
X125790476Y-100214285D01*
X125942857Y-99928571D01*
X126019047Y-99547619D01*
X126019047Y-98785714D01*
X125942857Y-98595238D01*
X125866666Y-98500000D01*
X125714285Y-98404761D01*
X125409523Y-98404761D01*
X125257142Y-98500000D01*
X125180952Y-98595238D01*
X125104761Y-98785714D01*
X125104761Y-99261904D01*
X125180952Y-99452380D01*
X125257142Y-99547619D01*
X125409523Y-99642857D01*
X125714285Y-99642857D01*
X125866666Y-99547619D01*
X125942857Y-99452380D01*
X126019047Y-99261904D01*
D14*
X142996190Y-92060761D02*
X143740952Y-92060761D01*
X143828571Y-92025714D01*
X143872380Y-91990666D01*
X143916190Y-91920571D01*
X143916190Y-91780380D01*
X143872380Y-91710285D01*
X143828571Y-91675238D01*
X143740952Y-91640190D01*
X142996190Y-91640190D01*
X142996190Y-91359809D02*
X142996190Y-90904190D01*
X143346666Y-91149523D01*
X143346666Y-91044380D01*
X143390476Y-90974285D01*
X143434285Y-90939238D01*
X143521904Y-90904190D01*
X143740952Y-90904190D01*
X143828571Y-90939238D01*
X143872380Y-90974285D01*
X143916190Y-91044380D01*
X143916190Y-91254666D01*
X143872380Y-91324761D01*
X143828571Y-91359809D01*
D13*
X129726190Y-80457142D02*
X129488095Y-80590476D01*
X129726190Y-80685714D02*
X129226190Y-80685714D01*
X129226190Y-80533333D01*
X129250000Y-80495238D01*
X129273809Y-80476190D01*
X129321428Y-80457142D01*
X129392857Y-80457142D01*
X129440476Y-80476190D01*
X129464285Y-80495238D01*
X129488095Y-80533333D01*
X129488095Y-80685714D01*
X129226190Y-80323809D02*
X129226190Y-80076190D01*
X129416666Y-80209523D01*
X129416666Y-80152380D01*
X129440476Y-80114285D01*
X129464285Y-80095238D01*
X129511904Y-80076190D01*
X129630952Y-80076190D01*
X129678571Y-80095238D01*
X129702380Y-80114285D01*
X129726190Y-80152380D01*
X129726190Y-80266666D01*
X129702380Y-80304761D01*
X129678571Y-80323809D01*
X129273809Y-79923809D02*
X129250000Y-79904761D01*
X129226190Y-79866666D01*
X129226190Y-79771428D01*
X129250000Y-79733333D01*
X129273809Y-79714285D01*
X129321428Y-79695238D01*
X129369047Y-79695238D01*
X129440476Y-79714285D01*
X129726190Y-79942857D01*
X129726190Y-79695238D01*
X128292857Y-91726190D02*
X128159523Y-91488095D01*
X128064285Y-91726190D02*
X128064285Y-91226190D01*
X128216666Y-91226190D01*
X128254761Y-91250000D01*
X128273809Y-91273809D01*
X128292857Y-91321428D01*
X128292857Y-91392857D01*
X128273809Y-91440476D01*
X128254761Y-91464285D01*
X128216666Y-91488095D01*
X128064285Y-91488095D01*
X128426190Y-91226190D02*
X128673809Y-91226190D01*
X128540476Y-91416666D01*
X128597619Y-91416666D01*
X128635714Y-91440476D01*
X128654761Y-91464285D01*
X128673809Y-91511904D01*
X128673809Y-91630952D01*
X128654761Y-91678571D01*
X128635714Y-91702380D01*
X128597619Y-91726190D01*
X128483333Y-91726190D01*
X128445238Y-91702380D01*
X128426190Y-91678571D01*
X128807142Y-91226190D02*
X129054761Y-91226190D01*
X128921428Y-91416666D01*
X128978571Y-91416666D01*
X129016666Y-91440476D01*
X129035714Y-91464285D01*
X129054761Y-91511904D01*
X129054761Y-91630952D01*
X129035714Y-91678571D01*
X129016666Y-91702380D01*
X128978571Y-91726190D01*
X128864285Y-91726190D01*
X128826190Y-91702380D01*
X128807142Y-91678571D01*
X129726190Y-78257142D02*
X129488095Y-78390476D01*
X129726190Y-78485714D02*
X129226190Y-78485714D01*
X129226190Y-78333333D01*
X129250000Y-78295238D01*
X129273809Y-78276190D01*
X129321428Y-78257142D01*
X129392857Y-78257142D01*
X129440476Y-78276190D01*
X129464285Y-78295238D01*
X129488095Y-78333333D01*
X129488095Y-78485714D01*
X129226190Y-78123809D02*
X129226190Y-77876190D01*
X129416666Y-78009523D01*
X129416666Y-77952380D01*
X129440476Y-77914285D01*
X129464285Y-77895238D01*
X129511904Y-77876190D01*
X129630952Y-77876190D01*
X129678571Y-77895238D01*
X129702380Y-77914285D01*
X129726190Y-77952380D01*
X129726190Y-78066666D01*
X129702380Y-78104761D01*
X129678571Y-78123809D01*
X129392857Y-77533333D02*
X129726190Y-77533333D01*
X129202380Y-77628571D02*
X129559523Y-77723809D01*
X129559523Y-77476190D01*
D16*
X137121142Y-90071428D02*
X137070857Y-90134285D01*
X136920000Y-90197142D01*
X136819428Y-90197142D01*
X136668571Y-90134285D01*
X136568000Y-90008571D01*
X136517714Y-89882857D01*
X136467428Y-89631428D01*
X136467428Y-89442857D01*
X136517714Y-89191428D01*
X136568000Y-89065714D01*
X136668571Y-88940000D01*
X136819428Y-88877142D01*
X136920000Y-88877142D01*
X137070857Y-88940000D01*
X137121142Y-89002857D01*
X137523428Y-89002857D02*
X137573714Y-88940000D01*
X137674285Y-88877142D01*
X137925714Y-88877142D01*
X138026285Y-88940000D01*
X138076571Y-89002857D01*
X138126857Y-89128571D01*
X138126857Y-89254285D01*
X138076571Y-89442857D01*
X137473142Y-90197142D01*
X138126857Y-90197142D01*
X139032000Y-88877142D02*
X138830857Y-88877142D01*
X138730285Y-88940000D01*
X138680000Y-89002857D01*
X138579428Y-89191428D01*
X138529142Y-89442857D01*
X138529142Y-89945714D01*
X138579428Y-90071428D01*
X138629714Y-90134285D01*
X138730285Y-90197142D01*
X138931428Y-90197142D01*
X139032000Y-90134285D01*
X139082285Y-90071428D01*
X139132571Y-89945714D01*
X139132571Y-89631428D01*
X139082285Y-89505714D01*
X139032000Y-89442857D01*
X138931428Y-89380000D01*
X138730285Y-89380000D01*
X138629714Y-89442857D01*
X138579428Y-89505714D01*
X138529142Y-89631428D01*
D14*
X144529904Y-96903809D02*
X144459809Y-96860000D01*
X144389714Y-96772380D01*
X144284571Y-96640952D01*
X144214476Y-96597142D01*
X144144380Y-96597142D01*
X144179428Y-96816190D02*
X144109333Y-96772380D01*
X144039238Y-96684761D01*
X144004190Y-96509523D01*
X144004190Y-96202857D01*
X144039238Y-96027619D01*
X144109333Y-95940000D01*
X144179428Y-95896190D01*
X144319619Y-95896190D01*
X144389714Y-95940000D01*
X144459809Y-96027619D01*
X144494857Y-96202857D01*
X144494857Y-96509523D01*
X144459809Y-96684761D01*
X144389714Y-96772380D01*
X144319619Y-96816190D01*
X144179428Y-96816190D01*
X144740190Y-95896190D02*
X145230857Y-95896190D01*
X144915428Y-96816190D01*
D13*
X104476190Y-100957142D02*
X104238095Y-101090476D01*
X104476190Y-101185714D02*
X103976190Y-101185714D01*
X103976190Y-101033333D01*
X104000000Y-100995238D01*
X104023809Y-100976190D01*
X104071428Y-100957142D01*
X104142857Y-100957142D01*
X104190476Y-100976190D01*
X104214285Y-100995238D01*
X104238095Y-101033333D01*
X104238095Y-101185714D01*
X103976190Y-100823809D02*
X103976190Y-100576190D01*
X104166666Y-100709523D01*
X104166666Y-100652380D01*
X104190476Y-100614285D01*
X104214285Y-100595238D01*
X104261904Y-100576190D01*
X104380952Y-100576190D01*
X104428571Y-100595238D01*
X104452380Y-100614285D01*
X104476190Y-100652380D01*
X104476190Y-100766666D01*
X104452380Y-100804761D01*
X104428571Y-100823809D01*
X103976190Y-100214285D02*
X103976190Y-100404761D01*
X104214285Y-100423809D01*
X104190476Y-100404761D01*
X104166666Y-100366666D01*
X104166666Y-100271428D01*
X104190476Y-100233333D01*
X104214285Y-100214285D01*
X104261904Y-100195238D01*
X104380952Y-100195238D01*
X104428571Y-100214285D01*
X104452380Y-100233333D01*
X104476190Y-100271428D01*
X104476190Y-100366666D01*
X104452380Y-100404761D01*
X104428571Y-100423809D01*
X107976190Y-101007142D02*
X107738095Y-101140476D01*
X107976190Y-101235714D02*
X107476190Y-101235714D01*
X107476190Y-101083333D01*
X107500000Y-101045238D01*
X107523809Y-101026190D01*
X107571428Y-101007142D01*
X107642857Y-101007142D01*
X107690476Y-101026190D01*
X107714285Y-101045238D01*
X107738095Y-101083333D01*
X107738095Y-101235714D01*
X107476190Y-100873809D02*
X107476190Y-100626190D01*
X107666666Y-100759523D01*
X107666666Y-100702380D01*
X107690476Y-100664285D01*
X107714285Y-100645238D01*
X107761904Y-100626190D01*
X107880952Y-100626190D01*
X107928571Y-100645238D01*
X107952380Y-100664285D01*
X107976190Y-100702380D01*
X107976190Y-100816666D01*
X107952380Y-100854761D01*
X107928571Y-100873809D01*
X107476190Y-100283333D02*
X107476190Y-100359523D01*
X107500000Y-100397619D01*
X107523809Y-100416666D01*
X107595238Y-100454761D01*
X107690476Y-100473809D01*
X107880952Y-100473809D01*
X107928571Y-100454761D01*
X107952380Y-100435714D01*
X107976190Y-100397619D01*
X107976190Y-100321428D01*
X107952380Y-100283333D01*
X107928571Y-100264285D01*
X107880952Y-100245238D01*
X107761904Y-100245238D01*
X107714285Y-100264285D01*
X107690476Y-100283333D01*
X107666666Y-100321428D01*
X107666666Y-100397619D01*
X107690476Y-100435714D01*
X107714285Y-100454761D01*
X107761904Y-100473809D01*
X106226190Y-100957142D02*
X105988095Y-101090476D01*
X106226190Y-101185714D02*
X105726190Y-101185714D01*
X105726190Y-101033333D01*
X105750000Y-100995238D01*
X105773809Y-100976190D01*
X105821428Y-100957142D01*
X105892857Y-100957142D01*
X105940476Y-100976190D01*
X105964285Y-100995238D01*
X105988095Y-101033333D01*
X105988095Y-101185714D01*
X105726190Y-100823809D02*
X105726190Y-100576190D01*
X105916666Y-100709523D01*
X105916666Y-100652380D01*
X105940476Y-100614285D01*
X105964285Y-100595238D01*
X106011904Y-100576190D01*
X106130952Y-100576190D01*
X106178571Y-100595238D01*
X106202380Y-100614285D01*
X106226190Y-100652380D01*
X106226190Y-100766666D01*
X106202380Y-100804761D01*
X106178571Y-100823809D01*
X105726190Y-100442857D02*
X105726190Y-100176190D01*
X106226190Y-100347619D01*
M02*
