G04 #@! TF.FileFunction,Other,Fab,Bot*
%FSLAX46Y46*%
G04 Gerber Fmt 4.6, Leading zero omitted, Abs format (unit mm)*
G04 Created by KiCad (PCBNEW (2016-11-21 revision f7cc0a9)-makepkg) date 06/05/17 10:20:10*
%MOMM*%
%LPD*%
G01*
G04 APERTURE LIST*
%ADD10C,0.100000*%
%ADD11C,0.120000*%
%ADD12C,0.200000*%
G04 APERTURE END LIST*
D10*
D11*
X124950000Y-52650000D02*
X121550000Y-52650000D01*
X124950000Y-55350000D02*
X124950000Y-52650000D01*
X121550000Y-55350000D02*
X124950000Y-55350000D01*
X121550000Y-52650000D02*
X121550000Y-55350000D01*
X121040000Y-62280000D02*
X116460000Y-62280000D01*
X121040000Y-66220000D02*
X121040000Y-62280000D01*
X117730000Y-66220000D02*
X121040000Y-66220000D01*
X116460000Y-64950000D02*
X117730000Y-66220000D01*
X116460000Y-62280000D02*
X116460000Y-64950000D01*
X123892857Y-54357142D02*
X123940476Y-54404761D01*
X124083333Y-54452380D01*
X124178571Y-54452380D01*
X124321428Y-54404761D01*
X124416666Y-54309523D01*
X124464285Y-54214285D01*
X124511904Y-54023809D01*
X124511904Y-53880952D01*
X124464285Y-53690476D01*
X124416666Y-53595238D01*
X124321428Y-53500000D01*
X124178571Y-53452380D01*
X124083333Y-53452380D01*
X123940476Y-53500000D01*
X123892857Y-53547619D01*
X122940476Y-54452380D02*
X123511904Y-54452380D01*
X123226190Y-54452380D02*
X123226190Y-53452380D01*
X123321428Y-53595238D01*
X123416666Y-53690476D01*
X123511904Y-53738095D01*
X122369047Y-53880952D02*
X122464285Y-53833333D01*
X122511904Y-53785714D01*
X122559523Y-53690476D01*
X122559523Y-53642857D01*
X122511904Y-53547619D01*
X122464285Y-53500000D01*
X122369047Y-53452380D01*
X122178571Y-53452380D01*
X122083333Y-53500000D01*
X122035714Y-53547619D01*
X121988095Y-53642857D01*
X121988095Y-53690476D01*
X122035714Y-53785714D01*
X122083333Y-53833333D01*
X122178571Y-53880952D01*
X122369047Y-53880952D01*
X122464285Y-53928571D01*
X122511904Y-53976190D01*
X122559523Y-54071428D01*
X122559523Y-54261904D01*
X122511904Y-54357142D01*
X122464285Y-54404761D01*
X122369047Y-54452380D01*
X122178571Y-54452380D01*
X122083333Y-54404761D01*
X122035714Y-54357142D01*
X121988095Y-54261904D01*
X121988095Y-54071428D01*
X122035714Y-53976190D01*
X122083333Y-53928571D01*
X122178571Y-53880952D01*
D12*
X119930952Y-65154761D02*
X119930952Y-63154761D01*
X119550000Y-63154761D01*
X119321428Y-63250000D01*
X119169047Y-63440476D01*
X119092857Y-63630952D01*
X119016666Y-64011904D01*
X119016666Y-64297619D01*
X119092857Y-64678571D01*
X119169047Y-64869047D01*
X119321428Y-65059523D01*
X119550000Y-65154761D01*
X119930952Y-65154761D01*
X118407142Y-63345238D02*
X118330952Y-63250000D01*
X118178571Y-63154761D01*
X117797619Y-63154761D01*
X117645238Y-63250000D01*
X117569047Y-63345238D01*
X117492857Y-63535714D01*
X117492857Y-63726190D01*
X117569047Y-64011904D01*
X118483333Y-65154761D01*
X117492857Y-65154761D01*
D11*
X106502380Y-99661904D02*
X106502380Y-98861904D01*
X106197619Y-98861904D01*
X106121428Y-98900000D01*
X106083333Y-98938095D01*
X106045238Y-99014285D01*
X106045238Y-99128571D01*
X106083333Y-99204761D01*
X106121428Y-99242857D01*
X106197619Y-99280952D01*
X106502380Y-99280952D01*
X105245238Y-99661904D02*
X105511904Y-99280952D01*
X105702380Y-99661904D02*
X105702380Y-98861904D01*
X105397619Y-98861904D01*
X105321428Y-98900000D01*
X105283333Y-98938095D01*
X105245238Y-99014285D01*
X105245238Y-99128571D01*
X105283333Y-99204761D01*
X105321428Y-99242857D01*
X105397619Y-99280952D01*
X105702380Y-99280952D01*
X104750000Y-98861904D02*
X104597619Y-98861904D01*
X104521428Y-98900000D01*
X104445238Y-98976190D01*
X104407142Y-99128571D01*
X104407142Y-99395238D01*
X104445238Y-99547619D01*
X104521428Y-99623809D01*
X104597619Y-99661904D01*
X104750000Y-99661904D01*
X104826190Y-99623809D01*
X104902380Y-99547619D01*
X104940476Y-99395238D01*
X104940476Y-99128571D01*
X104902380Y-98976190D01*
X104826190Y-98900000D01*
X104750000Y-98861904D01*
X103797619Y-99242857D02*
X103683333Y-99280952D01*
X103645238Y-99319047D01*
X103607142Y-99395238D01*
X103607142Y-99509523D01*
X103645238Y-99585714D01*
X103683333Y-99623809D01*
X103759523Y-99661904D01*
X104064285Y-99661904D01*
X104064285Y-98861904D01*
X103797619Y-98861904D01*
X103721428Y-98900000D01*
X103683333Y-98938095D01*
X103645238Y-99014285D01*
X103645238Y-99090476D01*
X103683333Y-99166666D01*
X103721428Y-99204761D01*
X103797619Y-99242857D01*
X104064285Y-99242857D01*
X103264285Y-99242857D02*
X102997619Y-99242857D01*
X102883333Y-99661904D02*
X103264285Y-99661904D01*
X103264285Y-98861904D01*
X102883333Y-98861904D01*
X102730952Y-99738095D02*
X102121428Y-99738095D01*
X101930952Y-99661904D02*
X101930952Y-98861904D01*
X101930952Y-99242857D02*
X101473809Y-99242857D01*
X101473809Y-99661904D02*
X101473809Y-98861904D01*
X100940476Y-98861904D02*
X100788095Y-98861904D01*
X100711904Y-98900000D01*
X100635714Y-98976190D01*
X100597619Y-99128571D01*
X100597619Y-99395238D01*
X100635714Y-99547619D01*
X100711904Y-99623809D01*
X100788095Y-99661904D01*
X100940476Y-99661904D01*
X101016666Y-99623809D01*
X101092857Y-99547619D01*
X101130952Y-99395238D01*
X101130952Y-99128571D01*
X101092857Y-98976190D01*
X101016666Y-98900000D01*
X100940476Y-98861904D01*
X100102380Y-98861904D02*
X99950000Y-98861904D01*
X99873809Y-98900000D01*
X99797619Y-98976190D01*
X99759523Y-99128571D01*
X99759523Y-99395238D01*
X99797619Y-99547619D01*
X99873809Y-99623809D01*
X99950000Y-99661904D01*
X100102380Y-99661904D01*
X100178571Y-99623809D01*
X100254761Y-99547619D01*
X100292857Y-99395238D01*
X100292857Y-99128571D01*
X100254761Y-98976190D01*
X100178571Y-98900000D01*
X100102380Y-98861904D01*
X99416666Y-99661904D02*
X99416666Y-98861904D01*
X98959523Y-99661904D02*
X99302380Y-99204761D01*
X98959523Y-98861904D02*
X99416666Y-99319047D01*
X148752380Y-88361904D02*
X148752380Y-87561904D01*
X148447619Y-87561904D01*
X148371428Y-87600000D01*
X148333333Y-87638095D01*
X148295238Y-87714285D01*
X148295238Y-87828571D01*
X148333333Y-87904761D01*
X148371428Y-87942857D01*
X148447619Y-87980952D01*
X148752380Y-87980952D01*
X147495238Y-88361904D02*
X147761904Y-87980952D01*
X147952380Y-88361904D02*
X147952380Y-87561904D01*
X147647619Y-87561904D01*
X147571428Y-87600000D01*
X147533333Y-87638095D01*
X147495238Y-87714285D01*
X147495238Y-87828571D01*
X147533333Y-87904761D01*
X147571428Y-87942857D01*
X147647619Y-87980952D01*
X147952380Y-87980952D01*
X147000000Y-87561904D02*
X146847619Y-87561904D01*
X146771428Y-87600000D01*
X146695238Y-87676190D01*
X146657142Y-87828571D01*
X146657142Y-88095238D01*
X146695238Y-88247619D01*
X146771428Y-88323809D01*
X146847619Y-88361904D01*
X147000000Y-88361904D01*
X147076190Y-88323809D01*
X147152380Y-88247619D01*
X147190476Y-88095238D01*
X147190476Y-87828571D01*
X147152380Y-87676190D01*
X147076190Y-87600000D01*
X147000000Y-87561904D01*
X146047619Y-87942857D02*
X145933333Y-87980952D01*
X145895238Y-88019047D01*
X145857142Y-88095238D01*
X145857142Y-88209523D01*
X145895238Y-88285714D01*
X145933333Y-88323809D01*
X146009523Y-88361904D01*
X146314285Y-88361904D01*
X146314285Y-87561904D01*
X146047619Y-87561904D01*
X145971428Y-87600000D01*
X145933333Y-87638095D01*
X145895238Y-87714285D01*
X145895238Y-87790476D01*
X145933333Y-87866666D01*
X145971428Y-87904761D01*
X146047619Y-87942857D01*
X146314285Y-87942857D01*
X145514285Y-87942857D02*
X145247619Y-87942857D01*
X145133333Y-88361904D02*
X145514285Y-88361904D01*
X145514285Y-87561904D01*
X145133333Y-87561904D01*
X144980952Y-88438095D02*
X144371428Y-88438095D01*
X144180952Y-88361904D02*
X144180952Y-87561904D01*
X144180952Y-87942857D02*
X143723809Y-87942857D01*
X143723809Y-88361904D02*
X143723809Y-87561904D01*
X143190476Y-87561904D02*
X143038095Y-87561904D01*
X142961904Y-87600000D01*
X142885714Y-87676190D01*
X142847619Y-87828571D01*
X142847619Y-88095238D01*
X142885714Y-88247619D01*
X142961904Y-88323809D01*
X143038095Y-88361904D01*
X143190476Y-88361904D01*
X143266666Y-88323809D01*
X143342857Y-88247619D01*
X143380952Y-88095238D01*
X143380952Y-87828571D01*
X143342857Y-87676190D01*
X143266666Y-87600000D01*
X143190476Y-87561904D01*
X142352380Y-87561904D02*
X142200000Y-87561904D01*
X142123809Y-87600000D01*
X142047619Y-87676190D01*
X142009523Y-87828571D01*
X142009523Y-88095238D01*
X142047619Y-88247619D01*
X142123809Y-88323809D01*
X142200000Y-88361904D01*
X142352380Y-88361904D01*
X142428571Y-88323809D01*
X142504761Y-88247619D01*
X142542857Y-88095238D01*
X142542857Y-87828571D01*
X142504761Y-87676190D01*
X142428571Y-87600000D01*
X142352380Y-87561904D01*
X141666666Y-88361904D02*
X141666666Y-87561904D01*
X141209523Y-88361904D02*
X141552380Y-87904761D01*
X141209523Y-87561904D02*
X141666666Y-88019047D01*
X106502380Y-103411904D02*
X106502380Y-102611904D01*
X106197619Y-102611904D01*
X106121428Y-102650000D01*
X106083333Y-102688095D01*
X106045238Y-102764285D01*
X106045238Y-102878571D01*
X106083333Y-102954761D01*
X106121428Y-102992857D01*
X106197619Y-103030952D01*
X106502380Y-103030952D01*
X105245238Y-103411904D02*
X105511904Y-103030952D01*
X105702380Y-103411904D02*
X105702380Y-102611904D01*
X105397619Y-102611904D01*
X105321428Y-102650000D01*
X105283333Y-102688095D01*
X105245238Y-102764285D01*
X105245238Y-102878571D01*
X105283333Y-102954761D01*
X105321428Y-102992857D01*
X105397619Y-103030952D01*
X105702380Y-103030952D01*
X104750000Y-102611904D02*
X104597619Y-102611904D01*
X104521428Y-102650000D01*
X104445238Y-102726190D01*
X104407142Y-102878571D01*
X104407142Y-103145238D01*
X104445238Y-103297619D01*
X104521428Y-103373809D01*
X104597619Y-103411904D01*
X104750000Y-103411904D01*
X104826190Y-103373809D01*
X104902380Y-103297619D01*
X104940476Y-103145238D01*
X104940476Y-102878571D01*
X104902380Y-102726190D01*
X104826190Y-102650000D01*
X104750000Y-102611904D01*
X103797619Y-102992857D02*
X103683333Y-103030952D01*
X103645238Y-103069047D01*
X103607142Y-103145238D01*
X103607142Y-103259523D01*
X103645238Y-103335714D01*
X103683333Y-103373809D01*
X103759523Y-103411904D01*
X104064285Y-103411904D01*
X104064285Y-102611904D01*
X103797619Y-102611904D01*
X103721428Y-102650000D01*
X103683333Y-102688095D01*
X103645238Y-102764285D01*
X103645238Y-102840476D01*
X103683333Y-102916666D01*
X103721428Y-102954761D01*
X103797619Y-102992857D01*
X104064285Y-102992857D01*
X103264285Y-102992857D02*
X102997619Y-102992857D01*
X102883333Y-103411904D02*
X103264285Y-103411904D01*
X103264285Y-102611904D01*
X102883333Y-102611904D01*
X102730952Y-103488095D02*
X102121428Y-103488095D01*
X101930952Y-103411904D02*
X101930952Y-102611904D01*
X101930952Y-102992857D02*
X101473809Y-102992857D01*
X101473809Y-103411904D02*
X101473809Y-102611904D01*
X100940476Y-102611904D02*
X100788095Y-102611904D01*
X100711904Y-102650000D01*
X100635714Y-102726190D01*
X100597619Y-102878571D01*
X100597619Y-103145238D01*
X100635714Y-103297619D01*
X100711904Y-103373809D01*
X100788095Y-103411904D01*
X100940476Y-103411904D01*
X101016666Y-103373809D01*
X101092857Y-103297619D01*
X101130952Y-103145238D01*
X101130952Y-102878571D01*
X101092857Y-102726190D01*
X101016666Y-102650000D01*
X100940476Y-102611904D01*
X100102380Y-102611904D02*
X99950000Y-102611904D01*
X99873809Y-102650000D01*
X99797619Y-102726190D01*
X99759523Y-102878571D01*
X99759523Y-103145238D01*
X99797619Y-103297619D01*
X99873809Y-103373809D01*
X99950000Y-103411904D01*
X100102380Y-103411904D01*
X100178571Y-103373809D01*
X100254761Y-103297619D01*
X100292857Y-103145238D01*
X100292857Y-102878571D01*
X100254761Y-102726190D01*
X100178571Y-102650000D01*
X100102380Y-102611904D01*
X99416666Y-103411904D02*
X99416666Y-102611904D01*
X98959523Y-103411904D02*
X99302380Y-102954761D01*
X98959523Y-102611904D02*
X99416666Y-103069047D01*
M02*
