G04 #@! TF.FileFunction,Other,Comment*
%FSLAX46Y46*%
G04 Gerber Fmt 4.6, Leading zero omitted, Abs format (unit mm)*
G04 Created by KiCad (PCBNEW (2016-11-21 revision f7cc0a9)-makepkg) date 06/05/17 10:20:09*
%MOMM*%
%LPD*%
G01*
G04 APERTURE LIST*
%ADD10C,0.100000*%
%ADD11C,0.400000*%
G04 APERTURE END LIST*
D10*
D11*
X169260000Y-53457142D02*
X169260000Y-55457142D01*
X168545714Y-52314285D02*
X167831428Y-54457142D01*
X169688571Y-54457142D01*
X174545714Y-55457142D02*
X173117142Y-55457142D01*
X173117142Y-52457142D01*
X176831428Y-55457142D02*
X176831428Y-53885714D01*
X176688571Y-53600000D01*
X176402857Y-53457142D01*
X175831428Y-53457142D01*
X175545714Y-53600000D01*
X176831428Y-55314285D02*
X176545714Y-55457142D01*
X175831428Y-55457142D01*
X175545714Y-55314285D01*
X175402857Y-55028571D01*
X175402857Y-54742857D01*
X175545714Y-54457142D01*
X175831428Y-54314285D01*
X176545714Y-54314285D01*
X176831428Y-54171428D01*
X177974285Y-53457142D02*
X178688571Y-55457142D01*
X179402857Y-53457142D02*
X178688571Y-55457142D01*
X178402857Y-56171428D01*
X178260000Y-56314285D01*
X177974285Y-56457142D01*
X181688571Y-55314285D02*
X181402857Y-55457142D01*
X180831428Y-55457142D01*
X180545714Y-55314285D01*
X180402857Y-55028571D01*
X180402857Y-53885714D01*
X180545714Y-53600000D01*
X180831428Y-53457142D01*
X181402857Y-53457142D01*
X181688571Y-53600000D01*
X181831428Y-53885714D01*
X181831428Y-54171428D01*
X180402857Y-54457142D01*
X183117142Y-55457142D02*
X183117142Y-53457142D01*
X183117142Y-54028571D02*
X183260000Y-53742857D01*
X183402857Y-53600000D01*
X183688571Y-53457142D01*
X183974285Y-53457142D01*
X185117142Y-55314285D02*
X185117142Y-55457142D01*
X184974285Y-55742857D01*
X184831428Y-55885714D01*
X190260000Y-55457142D02*
X188545714Y-55457142D01*
X189402857Y-55457142D02*
X189402857Y-52457142D01*
X189117142Y-52885714D01*
X188831428Y-53171428D01*
X188545714Y-53314285D01*
X191545714Y-55171428D02*
X191688571Y-55314285D01*
X191545714Y-55457142D01*
X191402857Y-55314285D01*
X191545714Y-55171428D01*
X191545714Y-55457142D01*
X193545714Y-52457142D02*
X193831428Y-52457142D01*
X194117142Y-52600000D01*
X194260000Y-52742857D01*
X194402857Y-53028571D01*
X194545714Y-53600000D01*
X194545714Y-54314285D01*
X194402857Y-54885714D01*
X194260000Y-55171428D01*
X194117142Y-55314285D01*
X193831428Y-55457142D01*
X193545714Y-55457142D01*
X193260000Y-55314285D01*
X193117142Y-55171428D01*
X192974285Y-54885714D01*
X192831428Y-54314285D01*
X192831428Y-53600000D01*
X192974285Y-53028571D01*
X193117142Y-52742857D01*
X193260000Y-52600000D01*
X193545714Y-52457142D01*
X195831428Y-55457142D02*
X195831428Y-53457142D01*
X195831428Y-53742857D02*
X195974285Y-53600000D01*
X196260000Y-53457142D01*
X196688571Y-53457142D01*
X196974285Y-53600000D01*
X197117142Y-53885714D01*
X197117142Y-55457142D01*
X197117142Y-53885714D02*
X197260000Y-53600000D01*
X197545714Y-53457142D01*
X197974285Y-53457142D01*
X198260000Y-53600000D01*
X198402857Y-53885714D01*
X198402857Y-55457142D01*
X199831428Y-55457142D02*
X199831428Y-53457142D01*
X199831428Y-53742857D02*
X199974285Y-53600000D01*
X200260000Y-53457142D01*
X200688571Y-53457142D01*
X200974285Y-53600000D01*
X201117142Y-53885714D01*
X201117142Y-55457142D01*
X201117142Y-53885714D02*
X201260000Y-53600000D01*
X201545714Y-53457142D01*
X201974285Y-53457142D01*
X202260000Y-53600000D01*
X202402857Y-53885714D01*
X202402857Y-55457142D01*
X205688571Y-53457142D02*
X206831428Y-53457142D01*
X206117142Y-52457142D02*
X206117142Y-55028571D01*
X206260000Y-55314285D01*
X206545714Y-55457142D01*
X206831428Y-55457142D01*
X207831428Y-55457142D02*
X207831428Y-52457142D01*
X209117142Y-55457142D02*
X209117142Y-53885714D01*
X208974285Y-53600000D01*
X208688571Y-53457142D01*
X208260000Y-53457142D01*
X207974285Y-53600000D01*
X207831428Y-53742857D01*
X210545714Y-55457142D02*
X210545714Y-53457142D01*
X210545714Y-52457142D02*
X210402857Y-52600000D01*
X210545714Y-52742857D01*
X210688571Y-52600000D01*
X210545714Y-52457142D01*
X210545714Y-52742857D01*
X213260000Y-55314285D02*
X212974285Y-55457142D01*
X212402857Y-55457142D01*
X212117142Y-55314285D01*
X211974285Y-55171428D01*
X211831428Y-54885714D01*
X211831428Y-54028571D01*
X211974285Y-53742857D01*
X212117142Y-53600000D01*
X212402857Y-53457142D01*
X212974285Y-53457142D01*
X213260000Y-53600000D01*
X214545714Y-55457142D02*
X214545714Y-52457142D01*
X214831428Y-54314285D02*
X215688571Y-55457142D01*
X215688571Y-53457142D02*
X214545714Y-54600000D01*
X167688571Y-57357142D02*
X169688571Y-57357142D01*
X168402857Y-60357142D01*
X171402857Y-57357142D02*
X171688571Y-57357142D01*
X171974285Y-57500000D01*
X172117142Y-57642857D01*
X172260000Y-57928571D01*
X172402857Y-58500000D01*
X172402857Y-59214285D01*
X172260000Y-59785714D01*
X172117142Y-60071428D01*
X171974285Y-60214285D01*
X171688571Y-60357142D01*
X171402857Y-60357142D01*
X171117142Y-60214285D01*
X170974285Y-60071428D01*
X170831428Y-59785714D01*
X170688571Y-59214285D01*
X170688571Y-58500000D01*
X170831428Y-57928571D01*
X170974285Y-57642857D01*
X171117142Y-57500000D01*
X171402857Y-57357142D01*
X174974285Y-58357142D02*
X174974285Y-60357142D01*
X173688571Y-58357142D02*
X173688571Y-59928571D01*
X173831428Y-60214285D01*
X174117142Y-60357142D01*
X174545714Y-60357142D01*
X174831428Y-60214285D01*
X174974285Y-60071428D01*
X176402857Y-60357142D02*
X176402857Y-58357142D01*
X176402857Y-58642857D02*
X176545714Y-58500000D01*
X176831428Y-58357142D01*
X177260000Y-58357142D01*
X177545714Y-58500000D01*
X177688571Y-58785714D01*
X177688571Y-60357142D01*
X177688571Y-58785714D02*
X177831428Y-58500000D01*
X178117142Y-58357142D01*
X178545714Y-58357142D01*
X178831428Y-58500000D01*
X178974285Y-58785714D01*
X178974285Y-60357142D01*
X183545714Y-61500000D02*
X183402857Y-61357142D01*
X183117142Y-60928571D01*
X182974285Y-60642857D01*
X182831428Y-60214285D01*
X182688571Y-59500000D01*
X182688571Y-58928571D01*
X182831428Y-58214285D01*
X182974285Y-57785714D01*
X183117142Y-57500000D01*
X183402857Y-57071428D01*
X183545714Y-56928571D01*
X184545714Y-57642857D02*
X184688571Y-57500000D01*
X184974285Y-57357142D01*
X185688571Y-57357142D01*
X185974285Y-57500000D01*
X186117142Y-57642857D01*
X186260000Y-57928571D01*
X186260000Y-58214285D01*
X186117142Y-58642857D01*
X184402857Y-60357142D01*
X186260000Y-60357142D01*
X187974285Y-60357142D02*
X187688571Y-60214285D01*
X187545714Y-60071428D01*
X187402857Y-59785714D01*
X187402857Y-58928571D01*
X187545714Y-58642857D01*
X187688571Y-58500000D01*
X187974285Y-58357142D01*
X188402857Y-58357142D01*
X188688571Y-58500000D01*
X188831428Y-58642857D01*
X188974285Y-58928571D01*
X188974285Y-59785714D01*
X188831428Y-60071428D01*
X188688571Y-60214285D01*
X188402857Y-60357142D01*
X187974285Y-60357142D01*
X189974285Y-58357142D02*
X191545714Y-58357142D01*
X189974285Y-60357142D01*
X191545714Y-60357142D01*
X192402857Y-61500000D02*
X192545714Y-61357142D01*
X192831428Y-60928571D01*
X192974285Y-60642857D01*
X193117142Y-60214285D01*
X193260000Y-59500000D01*
X193260000Y-58928571D01*
X193117142Y-58214285D01*
X192974285Y-57785714D01*
X192831428Y-57500000D01*
X192545714Y-57071428D01*
X192402857Y-56928571D01*
X197402857Y-60357142D02*
X197117142Y-60214285D01*
X196974285Y-60071428D01*
X196831428Y-59785714D01*
X196831428Y-58928571D01*
X196974285Y-58642857D01*
X197117142Y-58500000D01*
X197402857Y-58357142D01*
X197831428Y-58357142D01*
X198117142Y-58500000D01*
X198260000Y-58642857D01*
X198402857Y-58928571D01*
X198402857Y-59785714D01*
X198260000Y-60071428D01*
X198117142Y-60214285D01*
X197831428Y-60357142D01*
X197402857Y-60357142D01*
X200974285Y-58357142D02*
X200974285Y-60357142D01*
X199688571Y-58357142D02*
X199688571Y-59928571D01*
X199831428Y-60214285D01*
X200117142Y-60357142D01*
X200545714Y-60357142D01*
X200831428Y-60214285D01*
X200974285Y-60071428D01*
X201974285Y-58357142D02*
X203117142Y-58357142D01*
X202402857Y-57357142D02*
X202402857Y-59928571D01*
X202545714Y-60214285D01*
X202831428Y-60357142D01*
X203117142Y-60357142D01*
X205260000Y-60214285D02*
X204974285Y-60357142D01*
X204402857Y-60357142D01*
X204117142Y-60214285D01*
X203974285Y-59928571D01*
X203974285Y-58785714D01*
X204117142Y-58500000D01*
X204402857Y-58357142D01*
X204974285Y-58357142D01*
X205260000Y-58500000D01*
X205402857Y-58785714D01*
X205402857Y-59071428D01*
X203974285Y-59357142D01*
X206688571Y-60357142D02*
X206688571Y-58357142D01*
X206688571Y-58928571D02*
X206831428Y-58642857D01*
X206974285Y-58500000D01*
X207260000Y-58357142D01*
X207545714Y-58357142D01*
X211260000Y-60357142D02*
X210974285Y-60214285D01*
X210831428Y-59928571D01*
X210831428Y-57357142D01*
X213688571Y-60357142D02*
X213688571Y-58785714D01*
X213545714Y-58500000D01*
X213260000Y-58357142D01*
X212688571Y-58357142D01*
X212402857Y-58500000D01*
X213688571Y-60214285D02*
X213402857Y-60357142D01*
X212688571Y-60357142D01*
X212402857Y-60214285D01*
X212260000Y-59928571D01*
X212260000Y-59642857D01*
X212402857Y-59357142D01*
X212688571Y-59214285D01*
X213402857Y-59214285D01*
X213688571Y-59071428D01*
X214831428Y-58357142D02*
X215545714Y-60357142D01*
X216260000Y-58357142D02*
X215545714Y-60357142D01*
X215260000Y-61071428D01*
X215117142Y-61214285D01*
X214831428Y-61357142D01*
X218545714Y-60214285D02*
X218260000Y-60357142D01*
X217688571Y-60357142D01*
X217402857Y-60214285D01*
X217260000Y-59928571D01*
X217260000Y-58785714D01*
X217402857Y-58500000D01*
X217688571Y-58357142D01*
X218260000Y-58357142D01*
X218545714Y-58500000D01*
X218688571Y-58785714D01*
X218688571Y-59071428D01*
X217260000Y-59357142D01*
X219974285Y-60357142D02*
X219974285Y-58357142D01*
X219974285Y-58928571D02*
X220117142Y-58642857D01*
X220260000Y-58500000D01*
X220545714Y-58357142D01*
X220831428Y-58357142D01*
X221688571Y-60214285D02*
X221974285Y-60357142D01*
X222545714Y-60357142D01*
X222831428Y-60214285D01*
X222974285Y-59928571D01*
X222974285Y-59785714D01*
X222831428Y-59500000D01*
X222545714Y-59357142D01*
X222117142Y-59357142D01*
X221831428Y-59214285D01*
X221688571Y-58928571D01*
X221688571Y-58785714D01*
X221831428Y-58500000D01*
X222117142Y-58357142D01*
X222545714Y-58357142D01*
X222831428Y-58500000D01*
X169545714Y-65257142D02*
X167831428Y-65257142D01*
X168688571Y-65257142D02*
X168688571Y-62257142D01*
X168402857Y-62685714D01*
X168117142Y-62971428D01*
X167831428Y-63114285D01*
X170545714Y-62257142D02*
X172545714Y-62257142D01*
X171260000Y-65257142D01*
X174974285Y-63257142D02*
X174974285Y-65257142D01*
X173688571Y-63257142D02*
X173688571Y-64828571D01*
X173831428Y-65114285D01*
X174117142Y-65257142D01*
X174545714Y-65257142D01*
X174831428Y-65114285D01*
X174974285Y-64971428D01*
X176402857Y-65257142D02*
X176402857Y-63257142D01*
X176402857Y-63542857D02*
X176545714Y-63400000D01*
X176831428Y-63257142D01*
X177260000Y-63257142D01*
X177545714Y-63400000D01*
X177688571Y-63685714D01*
X177688571Y-65257142D01*
X177688571Y-63685714D02*
X177831428Y-63400000D01*
X178117142Y-63257142D01*
X178545714Y-63257142D01*
X178831428Y-63400000D01*
X178974285Y-63685714D01*
X178974285Y-65257142D01*
X183545714Y-66400000D02*
X183402857Y-66257142D01*
X183117142Y-65828571D01*
X182974285Y-65542857D01*
X182831428Y-65114285D01*
X182688571Y-64400000D01*
X182688571Y-63828571D01*
X182831428Y-63114285D01*
X182974285Y-62685714D01*
X183117142Y-62400000D01*
X183402857Y-61971428D01*
X183545714Y-61828571D01*
X185260000Y-62257142D02*
X185545714Y-62257142D01*
X185831428Y-62400000D01*
X185974285Y-62542857D01*
X186117142Y-62828571D01*
X186260000Y-63400000D01*
X186260000Y-64114285D01*
X186117142Y-64685714D01*
X185974285Y-64971428D01*
X185831428Y-65114285D01*
X185545714Y-65257142D01*
X185260000Y-65257142D01*
X184974285Y-65114285D01*
X184831428Y-64971428D01*
X184688571Y-64685714D01*
X184545714Y-64114285D01*
X184545714Y-63400000D01*
X184688571Y-62828571D01*
X184831428Y-62542857D01*
X184974285Y-62400000D01*
X185260000Y-62257142D01*
X187545714Y-64971428D02*
X187688571Y-65114285D01*
X187545714Y-65257142D01*
X187402857Y-65114285D01*
X187545714Y-64971428D01*
X187545714Y-65257142D01*
X190402857Y-62257142D02*
X188974285Y-62257142D01*
X188831428Y-63685714D01*
X188974285Y-63542857D01*
X189260000Y-63400000D01*
X189974285Y-63400000D01*
X190260000Y-63542857D01*
X190402857Y-63685714D01*
X190545714Y-63971428D01*
X190545714Y-64685714D01*
X190402857Y-64971428D01*
X190260000Y-65114285D01*
X189974285Y-65257142D01*
X189260000Y-65257142D01*
X188974285Y-65114285D01*
X188831428Y-64971428D01*
X192260000Y-65257142D02*
X191974285Y-65114285D01*
X191831428Y-64971428D01*
X191688571Y-64685714D01*
X191688571Y-63828571D01*
X191831428Y-63542857D01*
X191974285Y-63400000D01*
X192260000Y-63257142D01*
X192688571Y-63257142D01*
X192974285Y-63400000D01*
X193117142Y-63542857D01*
X193260000Y-63828571D01*
X193260000Y-64685714D01*
X193117142Y-64971428D01*
X192974285Y-65114285D01*
X192688571Y-65257142D01*
X192260000Y-65257142D01*
X194260000Y-63257142D02*
X195831428Y-63257142D01*
X194260000Y-65257142D01*
X195831428Y-65257142D01*
X196688571Y-66400000D02*
X196831428Y-66257142D01*
X197117142Y-65828571D01*
X197260000Y-65542857D01*
X197402857Y-65114285D01*
X197545714Y-64400000D01*
X197545714Y-63828571D01*
X197402857Y-63114285D01*
X197260000Y-62685714D01*
X197117142Y-62400000D01*
X196831428Y-61971428D01*
X196688571Y-61828571D01*
X201260000Y-65257142D02*
X201260000Y-63257142D01*
X201260000Y-62257142D02*
X201117142Y-62400000D01*
X201260000Y-62542857D01*
X201402857Y-62400000D01*
X201260000Y-62257142D01*
X201260000Y-62542857D01*
X202688571Y-63257142D02*
X202688571Y-65257142D01*
X202688571Y-63542857D02*
X202831428Y-63400000D01*
X203117142Y-63257142D01*
X203545714Y-63257142D01*
X203831428Y-63400000D01*
X203974285Y-63685714D01*
X203974285Y-65257142D01*
X205402857Y-63257142D02*
X205402857Y-65257142D01*
X205402857Y-63542857D02*
X205545714Y-63400000D01*
X205831428Y-63257142D01*
X206260000Y-63257142D01*
X206545714Y-63400000D01*
X206688571Y-63685714D01*
X206688571Y-65257142D01*
X209260000Y-65114285D02*
X208974285Y-65257142D01*
X208402857Y-65257142D01*
X208117142Y-65114285D01*
X207974285Y-64828571D01*
X207974285Y-63685714D01*
X208117142Y-63400000D01*
X208402857Y-63257142D01*
X208974285Y-63257142D01*
X209260000Y-63400000D01*
X209402857Y-63685714D01*
X209402857Y-63971428D01*
X207974285Y-64257142D01*
X210688571Y-65257142D02*
X210688571Y-63257142D01*
X210688571Y-63828571D02*
X210831428Y-63542857D01*
X210974285Y-63400000D01*
X211260000Y-63257142D01*
X211545714Y-63257142D01*
X215260000Y-65257142D02*
X214974285Y-65114285D01*
X214831428Y-64828571D01*
X214831428Y-62257142D01*
X217688571Y-65257142D02*
X217688571Y-63685714D01*
X217545714Y-63400000D01*
X217260000Y-63257142D01*
X216688571Y-63257142D01*
X216402857Y-63400000D01*
X217688571Y-65114285D02*
X217402857Y-65257142D01*
X216688571Y-65257142D01*
X216402857Y-65114285D01*
X216260000Y-64828571D01*
X216260000Y-64542857D01*
X216402857Y-64257142D01*
X216688571Y-64114285D01*
X217402857Y-64114285D01*
X217688571Y-63971428D01*
X218831428Y-63257142D02*
X219545714Y-65257142D01*
X220260000Y-63257142D02*
X219545714Y-65257142D01*
X219260000Y-65971428D01*
X219117142Y-66114285D01*
X218831428Y-66257142D01*
X222545714Y-65114285D02*
X222260000Y-65257142D01*
X221688571Y-65257142D01*
X221402857Y-65114285D01*
X221260000Y-64828571D01*
X221260000Y-63685714D01*
X221402857Y-63400000D01*
X221688571Y-63257142D01*
X222260000Y-63257142D01*
X222545714Y-63400000D01*
X222688571Y-63685714D01*
X222688571Y-63971428D01*
X221260000Y-64257142D01*
X223974285Y-65257142D02*
X223974285Y-63257142D01*
X223974285Y-63828571D02*
X224117142Y-63542857D01*
X224260000Y-63400000D01*
X224545714Y-63257142D01*
X224831428Y-63257142D01*
X225688571Y-65114285D02*
X225974285Y-65257142D01*
X226545714Y-65257142D01*
X226831428Y-65114285D01*
X226974285Y-64828571D01*
X226974285Y-64685714D01*
X226831428Y-64400000D01*
X226545714Y-64257142D01*
X226117142Y-64257142D01*
X225831428Y-64114285D01*
X225688571Y-63828571D01*
X225688571Y-63685714D01*
X225831428Y-63400000D01*
X226117142Y-63257142D01*
X226545714Y-63257142D01*
X226831428Y-63400000D01*
X167974285Y-73485714D02*
X168974285Y-73485714D01*
X169402857Y-75057142D02*
X167974285Y-75057142D01*
X167974285Y-72057142D01*
X169402857Y-72057142D01*
X170688571Y-75057142D02*
X170688571Y-72057142D01*
X172402857Y-75057142D01*
X172402857Y-72057142D01*
X173831428Y-75057142D02*
X173831428Y-72057142D01*
X176831428Y-72200000D02*
X176545714Y-72057142D01*
X176117142Y-72057142D01*
X175688571Y-72200000D01*
X175402857Y-72485714D01*
X175260000Y-72771428D01*
X175117142Y-73342857D01*
X175117142Y-73771428D01*
X175260000Y-74342857D01*
X175402857Y-74628571D01*
X175688571Y-74914285D01*
X176117142Y-75057142D01*
X176402857Y-75057142D01*
X176831428Y-74914285D01*
X176974285Y-74771428D01*
X176974285Y-73771428D01*
X176402857Y-73771428D01*
X180402857Y-74914285D02*
X180688571Y-75057142D01*
X181260000Y-75057142D01*
X181545714Y-74914285D01*
X181688571Y-74628571D01*
X181688571Y-74485714D01*
X181545714Y-74200000D01*
X181260000Y-74057142D01*
X180831428Y-74057142D01*
X180545714Y-73914285D01*
X180402857Y-73628571D01*
X180402857Y-73485714D01*
X180545714Y-73200000D01*
X180831428Y-73057142D01*
X181260000Y-73057142D01*
X181545714Y-73200000D01*
X184260000Y-73057142D02*
X184260000Y-75057142D01*
X182974285Y-73057142D02*
X182974285Y-74628571D01*
X183117142Y-74914285D01*
X183402857Y-75057142D01*
X183831428Y-75057142D01*
X184117142Y-74914285D01*
X184260000Y-74771428D01*
X185688571Y-75057142D02*
X185688571Y-73057142D01*
X185688571Y-73628571D02*
X185831428Y-73342857D01*
X185974285Y-73200000D01*
X186260000Y-73057142D01*
X186545714Y-73057142D01*
X187117142Y-73057142D02*
X188260000Y-73057142D01*
X187545714Y-75057142D02*
X187545714Y-72485714D01*
X187688571Y-72200000D01*
X187974285Y-72057142D01*
X188260000Y-72057142D01*
X190545714Y-75057142D02*
X190545714Y-73485714D01*
X190402857Y-73200000D01*
X190117142Y-73057142D01*
X189545714Y-73057142D01*
X189260000Y-73200000D01*
X190545714Y-74914285D02*
X190260000Y-75057142D01*
X189545714Y-75057142D01*
X189260000Y-74914285D01*
X189117142Y-74628571D01*
X189117142Y-74342857D01*
X189260000Y-74057142D01*
X189545714Y-73914285D01*
X190260000Y-73914285D01*
X190545714Y-73771428D01*
X193260000Y-74914285D02*
X192974285Y-75057142D01*
X192402857Y-75057142D01*
X192117142Y-74914285D01*
X191974285Y-74771428D01*
X191831428Y-74485714D01*
X191831428Y-73628571D01*
X191974285Y-73342857D01*
X192117142Y-73200000D01*
X192402857Y-73057142D01*
X192974285Y-73057142D01*
X193260000Y-73200000D01*
X195688571Y-74914285D02*
X195402857Y-75057142D01*
X194831428Y-75057142D01*
X194545714Y-74914285D01*
X194402857Y-74628571D01*
X194402857Y-73485714D01*
X194545714Y-73200000D01*
X194831428Y-73057142D01*
X195402857Y-73057142D01*
X195688571Y-73200000D01*
X195831428Y-73485714D01*
X195831428Y-73771428D01*
X194402857Y-74057142D01*
X198974285Y-73057142D02*
X200117142Y-73057142D01*
X199402857Y-75057142D02*
X199402857Y-72485714D01*
X199545714Y-72200000D01*
X199831428Y-72057142D01*
X200117142Y-72057142D01*
X201117142Y-75057142D02*
X201117142Y-73057142D01*
X201117142Y-72057142D02*
X200974285Y-72200000D01*
X201117142Y-72342857D01*
X201260000Y-72200000D01*
X201117142Y-72057142D01*
X201117142Y-72342857D01*
X202545714Y-73057142D02*
X202545714Y-75057142D01*
X202545714Y-73342857D02*
X202688571Y-73200000D01*
X202974285Y-73057142D01*
X203402857Y-73057142D01*
X203688571Y-73200000D01*
X203831428Y-73485714D01*
X203831428Y-75057142D01*
X205260000Y-75057142D02*
X205260000Y-73057142D01*
X205260000Y-72057142D02*
X205117142Y-72200000D01*
X205260000Y-72342857D01*
X205402857Y-72200000D01*
X205260000Y-72057142D01*
X205260000Y-72342857D01*
X206545714Y-74914285D02*
X206831428Y-75057142D01*
X207402857Y-75057142D01*
X207688571Y-74914285D01*
X207831428Y-74628571D01*
X207831428Y-74485714D01*
X207688571Y-74200000D01*
X207402857Y-74057142D01*
X206974285Y-74057142D01*
X206688571Y-73914285D01*
X206545714Y-73628571D01*
X206545714Y-73485714D01*
X206688571Y-73200000D01*
X206974285Y-73057142D01*
X207402857Y-73057142D01*
X207688571Y-73200000D01*
X209117142Y-75057142D02*
X209117142Y-72057142D01*
X210402857Y-75057142D02*
X210402857Y-73485714D01*
X210260000Y-73200000D01*
X209974285Y-73057142D01*
X209545714Y-73057142D01*
X209260000Y-73200000D01*
X209117142Y-73342857D01*
X169545714Y-77100000D02*
X169260000Y-76957142D01*
X168831428Y-76957142D01*
X168402857Y-77100000D01*
X168117142Y-77385714D01*
X167974285Y-77671428D01*
X167831428Y-78242857D01*
X167831428Y-78671428D01*
X167974285Y-79242857D01*
X168117142Y-79528571D01*
X168402857Y-79814285D01*
X168831428Y-79957142D01*
X169117142Y-79957142D01*
X169545714Y-79814285D01*
X169688571Y-79671428D01*
X169688571Y-78671428D01*
X169117142Y-78671428D01*
X170974285Y-79957142D02*
X170974285Y-77957142D01*
X170974285Y-78528571D02*
X171117142Y-78242857D01*
X171260000Y-78100000D01*
X171545714Y-77957142D01*
X171831428Y-77957142D01*
X173974285Y-79814285D02*
X173688571Y-79957142D01*
X173117142Y-79957142D01*
X172831428Y-79814285D01*
X172688571Y-79528571D01*
X172688571Y-78385714D01*
X172831428Y-78100000D01*
X173117142Y-77957142D01*
X173688571Y-77957142D01*
X173974285Y-78100000D01*
X174117142Y-78385714D01*
X174117142Y-78671428D01*
X172688571Y-78957142D01*
X176545714Y-79814285D02*
X176260000Y-79957142D01*
X175688571Y-79957142D01*
X175402857Y-79814285D01*
X175260000Y-79528571D01*
X175260000Y-78385714D01*
X175402857Y-78100000D01*
X175688571Y-77957142D01*
X176260000Y-77957142D01*
X176545714Y-78100000D01*
X176688571Y-78385714D01*
X176688571Y-78671428D01*
X175260000Y-78957142D01*
X177974285Y-77957142D02*
X177974285Y-79957142D01*
X177974285Y-78242857D02*
X178117142Y-78100000D01*
X178402857Y-77957142D01*
X178831428Y-77957142D01*
X179117142Y-78100000D01*
X179260000Y-78385714D01*
X179260000Y-79957142D01*
X182831428Y-79814285D02*
X183260000Y-79957142D01*
X183974285Y-79957142D01*
X184260000Y-79814285D01*
X184402857Y-79671428D01*
X184545714Y-79385714D01*
X184545714Y-79100000D01*
X184402857Y-78814285D01*
X184260000Y-78671428D01*
X183974285Y-78528571D01*
X183402857Y-78385714D01*
X183117142Y-78242857D01*
X182974285Y-78100000D01*
X182831428Y-77814285D01*
X182831428Y-77528571D01*
X182974285Y-77242857D01*
X183117142Y-77100000D01*
X183402857Y-76957142D01*
X184117142Y-76957142D01*
X184545714Y-77100000D01*
X186260000Y-79957142D02*
X185974285Y-79814285D01*
X185831428Y-79671428D01*
X185688571Y-79385714D01*
X185688571Y-78528571D01*
X185831428Y-78242857D01*
X185974285Y-78100000D01*
X186260000Y-77957142D01*
X186688571Y-77957142D01*
X186974285Y-78100000D01*
X187117142Y-78242857D01*
X187260000Y-78528571D01*
X187260000Y-79385714D01*
X187117142Y-79671428D01*
X186974285Y-79814285D01*
X186688571Y-79957142D01*
X186260000Y-79957142D01*
X188974285Y-79957142D02*
X188688571Y-79814285D01*
X188545714Y-79528571D01*
X188545714Y-76957142D01*
X191402857Y-79957142D02*
X191402857Y-76957142D01*
X191402857Y-79814285D02*
X191117142Y-79957142D01*
X190545714Y-79957142D01*
X190260000Y-79814285D01*
X190117142Y-79671428D01*
X189974285Y-79385714D01*
X189974285Y-78528571D01*
X190117142Y-78242857D01*
X190260000Y-78100000D01*
X190545714Y-77957142D01*
X191117142Y-77957142D01*
X191402857Y-78100000D01*
X193974285Y-79814285D02*
X193688571Y-79957142D01*
X193117142Y-79957142D01*
X192831428Y-79814285D01*
X192688571Y-79528571D01*
X192688571Y-78385714D01*
X192831428Y-78100000D01*
X193117142Y-77957142D01*
X193688571Y-77957142D01*
X193974285Y-78100000D01*
X194117142Y-78385714D01*
X194117142Y-78671428D01*
X192688571Y-78957142D01*
X195402857Y-79957142D02*
X195402857Y-77957142D01*
X195402857Y-78528571D02*
X195545714Y-78242857D01*
X195688571Y-78100000D01*
X195974285Y-77957142D01*
X196260000Y-77957142D01*
X197260000Y-79957142D02*
X197260000Y-77957142D01*
X197260000Y-78242857D02*
X197402857Y-78100000D01*
X197688571Y-77957142D01*
X198117142Y-77957142D01*
X198402857Y-78100000D01*
X198545714Y-78385714D01*
X198545714Y-79957142D01*
X198545714Y-78385714D02*
X198688571Y-78100000D01*
X198974285Y-77957142D01*
X199402857Y-77957142D01*
X199688571Y-78100000D01*
X199831428Y-78385714D01*
X199831428Y-79957142D01*
X202545714Y-79957142D02*
X202545714Y-78385714D01*
X202402857Y-78100000D01*
X202117142Y-77957142D01*
X201545714Y-77957142D01*
X201260000Y-78100000D01*
X202545714Y-79814285D02*
X202260000Y-79957142D01*
X201545714Y-79957142D01*
X201260000Y-79814285D01*
X201117142Y-79528571D01*
X201117142Y-79242857D01*
X201260000Y-78957142D01*
X201545714Y-78814285D01*
X202260000Y-78814285D01*
X202545714Y-78671428D01*
X203831428Y-79814285D02*
X204117142Y-79957142D01*
X204688571Y-79957142D01*
X204974285Y-79814285D01*
X205117142Y-79528571D01*
X205117142Y-79385714D01*
X204974285Y-79100000D01*
X204688571Y-78957142D01*
X204260000Y-78957142D01*
X203974285Y-78814285D01*
X203831428Y-78528571D01*
X203831428Y-78385714D01*
X203974285Y-78100000D01*
X204260000Y-77957142D01*
X204688571Y-77957142D01*
X204974285Y-78100000D01*
X206402857Y-79957142D02*
X206402857Y-76957142D01*
X206688571Y-78814285D02*
X207545714Y-79957142D01*
X207545714Y-77957142D02*
X206402857Y-79100000D01*
X167688571Y-81857142D02*
X168402857Y-84857142D01*
X168974285Y-82714285D01*
X169545714Y-84857142D01*
X170260000Y-81857142D01*
X171402857Y-84857142D02*
X171402857Y-81857142D01*
X172688571Y-84857142D02*
X172688571Y-83285714D01*
X172545714Y-83000000D01*
X172260000Y-82857142D01*
X171831428Y-82857142D01*
X171545714Y-83000000D01*
X171402857Y-83142857D01*
X174117142Y-84857142D02*
X174117142Y-82857142D01*
X174117142Y-81857142D02*
X173974285Y-82000000D01*
X174117142Y-82142857D01*
X174260000Y-82000000D01*
X174117142Y-81857142D01*
X174117142Y-82142857D01*
X175117142Y-82857142D02*
X176260000Y-82857142D01*
X175545714Y-81857142D02*
X175545714Y-84428571D01*
X175688571Y-84714285D01*
X175974285Y-84857142D01*
X176260000Y-84857142D01*
X178402857Y-84714285D02*
X178117142Y-84857142D01*
X177545714Y-84857142D01*
X177260000Y-84714285D01*
X177117142Y-84428571D01*
X177117142Y-83285714D01*
X177260000Y-83000000D01*
X177545714Y-82857142D01*
X178117142Y-82857142D01*
X178402857Y-83000000D01*
X178545714Y-83285714D01*
X178545714Y-83571428D01*
X177117142Y-83857142D01*
X181974285Y-84714285D02*
X182402857Y-84857142D01*
X183117142Y-84857142D01*
X183402857Y-84714285D01*
X183545714Y-84571428D01*
X183688571Y-84285714D01*
X183688571Y-84000000D01*
X183545714Y-83714285D01*
X183402857Y-83571428D01*
X183117142Y-83428571D01*
X182545714Y-83285714D01*
X182260000Y-83142857D01*
X182117142Y-83000000D01*
X181974285Y-82714285D01*
X181974285Y-82428571D01*
X182117142Y-82142857D01*
X182260000Y-82000000D01*
X182545714Y-81857142D01*
X183260000Y-81857142D01*
X183688571Y-82000000D01*
X184974285Y-84857142D02*
X184974285Y-82857142D01*
X184974285Y-81857142D02*
X184831428Y-82000000D01*
X184974285Y-82142857D01*
X185117142Y-82000000D01*
X184974285Y-81857142D01*
X184974285Y-82142857D01*
X186831428Y-84857142D02*
X186545714Y-84714285D01*
X186402857Y-84428571D01*
X186402857Y-81857142D01*
X187974285Y-84857142D02*
X187974285Y-81857142D01*
X188260000Y-83714285D02*
X189117142Y-84857142D01*
X189117142Y-82857142D02*
X187974285Y-84000000D01*
X190260000Y-84714285D02*
X190545714Y-84857142D01*
X191117142Y-84857142D01*
X191402857Y-84714285D01*
X191545714Y-84428571D01*
X191545714Y-84285714D01*
X191402857Y-84000000D01*
X191117142Y-83857142D01*
X190688571Y-83857142D01*
X190402857Y-83714285D01*
X190260000Y-83428571D01*
X190260000Y-83285714D01*
X190402857Y-83000000D01*
X190688571Y-82857142D01*
X191117142Y-82857142D01*
X191402857Y-83000000D01*
X194117142Y-84714285D02*
X193831428Y-84857142D01*
X193260000Y-84857142D01*
X192974285Y-84714285D01*
X192831428Y-84571428D01*
X192688571Y-84285714D01*
X192688571Y-83428571D01*
X192831428Y-83142857D01*
X192974285Y-83000000D01*
X193260000Y-82857142D01*
X193831428Y-82857142D01*
X194117142Y-83000000D01*
X195402857Y-84857142D02*
X195402857Y-82857142D01*
X195402857Y-83428571D02*
X195545714Y-83142857D01*
X195688571Y-83000000D01*
X195974285Y-82857142D01*
X196260000Y-82857142D01*
X198402857Y-84714285D02*
X198117142Y-84857142D01*
X197545714Y-84857142D01*
X197260000Y-84714285D01*
X197117142Y-84428571D01*
X197117142Y-83285714D01*
X197260000Y-83000000D01*
X197545714Y-82857142D01*
X198117142Y-82857142D01*
X198402857Y-83000000D01*
X198545714Y-83285714D01*
X198545714Y-83571428D01*
X197117142Y-83857142D01*
X200974285Y-84714285D02*
X200688571Y-84857142D01*
X200117142Y-84857142D01*
X199831428Y-84714285D01*
X199688571Y-84428571D01*
X199688571Y-83285714D01*
X199831428Y-83000000D01*
X200117142Y-82857142D01*
X200688571Y-82857142D01*
X200974285Y-83000000D01*
X201117142Y-83285714D01*
X201117142Y-83571428D01*
X199688571Y-83857142D01*
X202402857Y-82857142D02*
X202402857Y-84857142D01*
X202402857Y-83142857D02*
X202545714Y-83000000D01*
X202831428Y-82857142D01*
X203260000Y-82857142D01*
X203545714Y-83000000D01*
X203688571Y-83285714D01*
X203688571Y-84857142D01*
X167974285Y-94657142D02*
X167974285Y-91657142D01*
X168974285Y-93800000D01*
X169974285Y-91657142D01*
X169974285Y-94657142D01*
X171402857Y-94657142D02*
X171402857Y-92657142D01*
X171402857Y-91657142D02*
X171260000Y-91800000D01*
X171402857Y-91942857D01*
X171545714Y-91800000D01*
X171402857Y-91657142D01*
X171402857Y-91942857D01*
X172831428Y-92657142D02*
X172831428Y-94657142D01*
X172831428Y-92942857D02*
X172974285Y-92800000D01*
X173260000Y-92657142D01*
X173688571Y-92657142D01*
X173974285Y-92800000D01*
X174117142Y-93085714D01*
X174117142Y-94657142D01*
X177545714Y-92657142D02*
X178260000Y-94657142D01*
X178974285Y-92657142D01*
X180117142Y-94657142D02*
X180117142Y-92657142D01*
X180117142Y-91657142D02*
X179974285Y-91800000D01*
X180117142Y-91942857D01*
X180260000Y-91800000D01*
X180117142Y-91657142D01*
X180117142Y-91942857D01*
X182831428Y-94657142D02*
X182831428Y-93085714D01*
X182688571Y-92800000D01*
X182402857Y-92657142D01*
X181831428Y-92657142D01*
X181545714Y-92800000D01*
X182831428Y-94514285D02*
X182545714Y-94657142D01*
X181831428Y-94657142D01*
X181545714Y-94514285D01*
X181402857Y-94228571D01*
X181402857Y-93942857D01*
X181545714Y-93657142D01*
X181831428Y-93514285D01*
X182545714Y-93514285D01*
X182831428Y-93371428D01*
X187117142Y-91657142D02*
X187402857Y-91657142D01*
X187688571Y-91800000D01*
X187831428Y-91942857D01*
X187974285Y-92228571D01*
X188117142Y-92800000D01*
X188117142Y-93514285D01*
X187974285Y-94085714D01*
X187831428Y-94371428D01*
X187688571Y-94514285D01*
X187402857Y-94657142D01*
X187117142Y-94657142D01*
X186831428Y-94514285D01*
X186688571Y-94371428D01*
X186545714Y-94085714D01*
X186402857Y-93514285D01*
X186402857Y-92800000D01*
X186545714Y-92228571D01*
X186688571Y-91942857D01*
X186831428Y-91800000D01*
X187117142Y-91657142D01*
X189402857Y-94371428D02*
X189545714Y-94514285D01*
X189402857Y-94657142D01*
X189260000Y-94514285D01*
X189402857Y-94371428D01*
X189402857Y-94657142D01*
X190545714Y-91657142D02*
X192402857Y-91657142D01*
X191402857Y-92800000D01*
X191831428Y-92800000D01*
X192117142Y-92942857D01*
X192260000Y-93085714D01*
X192402857Y-93371428D01*
X192402857Y-94085714D01*
X192260000Y-94371428D01*
X192117142Y-94514285D01*
X191831428Y-94657142D01*
X190974285Y-94657142D01*
X190688571Y-94514285D01*
X190545714Y-94371428D01*
X195117142Y-91657142D02*
X193688571Y-91657142D01*
X193545714Y-93085714D01*
X193688571Y-92942857D01*
X193974285Y-92800000D01*
X194688571Y-92800000D01*
X194974285Y-92942857D01*
X195117142Y-93085714D01*
X195260000Y-93371428D01*
X195260000Y-94085714D01*
X195117142Y-94371428D01*
X194974285Y-94514285D01*
X194688571Y-94657142D01*
X193974285Y-94657142D01*
X193688571Y-94514285D01*
X193545714Y-94371428D01*
X196545714Y-94657142D02*
X196545714Y-92657142D01*
X196545714Y-92942857D02*
X196688571Y-92800000D01*
X196974285Y-92657142D01*
X197402857Y-92657142D01*
X197688571Y-92800000D01*
X197831428Y-93085714D01*
X197831428Y-94657142D01*
X197831428Y-93085714D02*
X197974285Y-92800000D01*
X198260000Y-92657142D01*
X198688571Y-92657142D01*
X198974285Y-92800000D01*
X199117142Y-93085714D01*
X199117142Y-94657142D01*
X200545714Y-94657142D02*
X200545714Y-92657142D01*
X200545714Y-92942857D02*
X200688571Y-92800000D01*
X200974285Y-92657142D01*
X201402857Y-92657142D01*
X201688571Y-92800000D01*
X201831428Y-93085714D01*
X201831428Y-94657142D01*
X201831428Y-93085714D02*
X201974285Y-92800000D01*
X202260000Y-92657142D01*
X202688571Y-92657142D01*
X202974285Y-92800000D01*
X203117142Y-93085714D01*
X203117142Y-94657142D01*
X167974285Y-99557142D02*
X167974285Y-96557142D01*
X168974285Y-98700000D01*
X169974285Y-96557142D01*
X169974285Y-99557142D01*
X171402857Y-99557142D02*
X171402857Y-97557142D01*
X171402857Y-96557142D02*
X171260000Y-96700000D01*
X171402857Y-96842857D01*
X171545714Y-96700000D01*
X171402857Y-96557142D01*
X171402857Y-96842857D01*
X172831428Y-97557142D02*
X172831428Y-99557142D01*
X172831428Y-97842857D02*
X172974285Y-97700000D01*
X173260000Y-97557142D01*
X173688571Y-97557142D01*
X173974285Y-97700000D01*
X174117142Y-97985714D01*
X174117142Y-99557142D01*
X177402857Y-96557142D02*
X179117142Y-96557142D01*
X178260000Y-99557142D02*
X178260000Y-96557142D01*
X180117142Y-99557142D02*
X180117142Y-97557142D01*
X180117142Y-98128571D02*
X180260000Y-97842857D01*
X180402857Y-97700000D01*
X180688571Y-97557142D01*
X180974285Y-97557142D01*
X183260000Y-99557142D02*
X183260000Y-97985714D01*
X183117142Y-97700000D01*
X182831428Y-97557142D01*
X182260000Y-97557142D01*
X181974285Y-97700000D01*
X183260000Y-99414285D02*
X182974285Y-99557142D01*
X182260000Y-99557142D01*
X181974285Y-99414285D01*
X181831428Y-99128571D01*
X181831428Y-98842857D01*
X181974285Y-98557142D01*
X182260000Y-98414285D01*
X182974285Y-98414285D01*
X183260000Y-98271428D01*
X185974285Y-99414285D02*
X185688571Y-99557142D01*
X185117142Y-99557142D01*
X184831428Y-99414285D01*
X184688571Y-99271428D01*
X184545714Y-98985714D01*
X184545714Y-98128571D01*
X184688571Y-97842857D01*
X184831428Y-97700000D01*
X185117142Y-97557142D01*
X185688571Y-97557142D01*
X185974285Y-97700000D01*
X187260000Y-99557142D02*
X187260000Y-96557142D01*
X187545714Y-98414285D02*
X188402857Y-99557142D01*
X188402857Y-97557142D02*
X187260000Y-98700000D01*
X189688571Y-99271428D02*
X189831428Y-99414285D01*
X189688571Y-99557142D01*
X189545714Y-99414285D01*
X189688571Y-99271428D01*
X189688571Y-99557142D01*
X189688571Y-97700000D02*
X189831428Y-97842857D01*
X189688571Y-97985714D01*
X189545714Y-97842857D01*
X189688571Y-97700000D01*
X189688571Y-97985714D01*
X193974285Y-96557142D02*
X194260000Y-96557142D01*
X194545714Y-96700000D01*
X194688571Y-96842857D01*
X194831428Y-97128571D01*
X194974285Y-97700000D01*
X194974285Y-98414285D01*
X194831428Y-98985714D01*
X194688571Y-99271428D01*
X194545714Y-99414285D01*
X194260000Y-99557142D01*
X193974285Y-99557142D01*
X193688571Y-99414285D01*
X193545714Y-99271428D01*
X193402857Y-98985714D01*
X193260000Y-98414285D01*
X193260000Y-97700000D01*
X193402857Y-97128571D01*
X193545714Y-96842857D01*
X193688571Y-96700000D01*
X193974285Y-96557142D01*
X196260000Y-99271428D02*
X196402857Y-99414285D01*
X196260000Y-99557142D01*
X196117142Y-99414285D01*
X196260000Y-99271428D01*
X196260000Y-99557142D01*
X197545714Y-96842857D02*
X197688571Y-96700000D01*
X197974285Y-96557142D01*
X198688571Y-96557142D01*
X198974285Y-96700000D01*
X199117142Y-96842857D01*
X199260000Y-97128571D01*
X199260000Y-97414285D01*
X199117142Y-97842857D01*
X197402857Y-99557142D01*
X199260000Y-99557142D01*
X200545714Y-99557142D02*
X200545714Y-97557142D01*
X200545714Y-97842857D02*
X200688571Y-97700000D01*
X200974285Y-97557142D01*
X201402857Y-97557142D01*
X201688571Y-97700000D01*
X201831428Y-97985714D01*
X201831428Y-99557142D01*
X201831428Y-97985714D02*
X201974285Y-97700000D01*
X202260000Y-97557142D01*
X202688571Y-97557142D01*
X202974285Y-97700000D01*
X203117142Y-97985714D01*
X203117142Y-99557142D01*
X204545714Y-99557142D02*
X204545714Y-97557142D01*
X204545714Y-97842857D02*
X204688571Y-97700000D01*
X204974285Y-97557142D01*
X205402857Y-97557142D01*
X205688571Y-97700000D01*
X205831428Y-97985714D01*
X205831428Y-99557142D01*
X205831428Y-97985714D02*
X205974285Y-97700000D01*
X206260000Y-97557142D01*
X206688571Y-97557142D01*
X206974285Y-97700000D01*
X207117142Y-97985714D01*
X207117142Y-99557142D01*
X167974285Y-104457142D02*
X167974285Y-101457142D01*
X168974285Y-103600000D01*
X169974285Y-101457142D01*
X169974285Y-104457142D01*
X171402857Y-104457142D02*
X171402857Y-102457142D01*
X171402857Y-101457142D02*
X171260000Y-101600000D01*
X171402857Y-101742857D01*
X171545714Y-101600000D01*
X171402857Y-101457142D01*
X171402857Y-101742857D01*
X172831428Y-102457142D02*
X172831428Y-104457142D01*
X172831428Y-102742857D02*
X172974285Y-102600000D01*
X173260000Y-102457142D01*
X173688571Y-102457142D01*
X173974285Y-102600000D01*
X174117142Y-102885714D01*
X174117142Y-104457142D01*
X179117142Y-104314285D02*
X178831428Y-104457142D01*
X178260000Y-104457142D01*
X177974285Y-104314285D01*
X177831428Y-104171428D01*
X177688571Y-103885714D01*
X177688571Y-103028571D01*
X177831428Y-102742857D01*
X177974285Y-102600000D01*
X178260000Y-102457142D01*
X178831428Y-102457142D01*
X179117142Y-102600000D01*
X180831428Y-104457142D02*
X180545714Y-104314285D01*
X180402857Y-104028571D01*
X180402857Y-101457142D01*
X183117142Y-104314285D02*
X182831428Y-104457142D01*
X182260000Y-104457142D01*
X181974285Y-104314285D01*
X181831428Y-104028571D01*
X181831428Y-102885714D01*
X181974285Y-102600000D01*
X182260000Y-102457142D01*
X182831428Y-102457142D01*
X183117142Y-102600000D01*
X183260000Y-102885714D01*
X183260000Y-103171428D01*
X181831428Y-103457142D01*
X185831428Y-104457142D02*
X185831428Y-102885714D01*
X185688571Y-102600000D01*
X185402857Y-102457142D01*
X184831428Y-102457142D01*
X184545714Y-102600000D01*
X185831428Y-104314285D02*
X185545714Y-104457142D01*
X184831428Y-104457142D01*
X184545714Y-104314285D01*
X184402857Y-104028571D01*
X184402857Y-103742857D01*
X184545714Y-103457142D01*
X184831428Y-103314285D01*
X185545714Y-103314285D01*
X185831428Y-103171428D01*
X187260000Y-104457142D02*
X187260000Y-102457142D01*
X187260000Y-103028571D02*
X187402857Y-102742857D01*
X187545714Y-102600000D01*
X187831428Y-102457142D01*
X188117142Y-102457142D01*
X190402857Y-104457142D02*
X190402857Y-102885714D01*
X190260000Y-102600000D01*
X189974285Y-102457142D01*
X189402857Y-102457142D01*
X189117142Y-102600000D01*
X190402857Y-104314285D02*
X190117142Y-104457142D01*
X189402857Y-104457142D01*
X189117142Y-104314285D01*
X188974285Y-104028571D01*
X188974285Y-103742857D01*
X189117142Y-103457142D01*
X189402857Y-103314285D01*
X190117142Y-103314285D01*
X190402857Y-103171428D01*
X191831428Y-102457142D02*
X191831428Y-104457142D01*
X191831428Y-102742857D02*
X191974285Y-102600000D01*
X192260000Y-102457142D01*
X192688571Y-102457142D01*
X192974285Y-102600000D01*
X193117142Y-102885714D01*
X193117142Y-104457142D01*
X195831428Y-104314285D02*
X195545714Y-104457142D01*
X194974285Y-104457142D01*
X194688571Y-104314285D01*
X194545714Y-104171428D01*
X194402857Y-103885714D01*
X194402857Y-103028571D01*
X194545714Y-102742857D01*
X194688571Y-102600000D01*
X194974285Y-102457142D01*
X195545714Y-102457142D01*
X195831428Y-102600000D01*
X198260000Y-104314285D02*
X197974285Y-104457142D01*
X197402857Y-104457142D01*
X197117142Y-104314285D01*
X196974285Y-104028571D01*
X196974285Y-102885714D01*
X197117142Y-102600000D01*
X197402857Y-102457142D01*
X197974285Y-102457142D01*
X198260000Y-102600000D01*
X198402857Y-102885714D01*
X198402857Y-103171428D01*
X196974285Y-103457142D01*
X199688571Y-104171428D02*
X199831428Y-104314285D01*
X199688571Y-104457142D01*
X199545714Y-104314285D01*
X199688571Y-104171428D01*
X199688571Y-104457142D01*
X199688571Y-102600000D02*
X199831428Y-102742857D01*
X199688571Y-102885714D01*
X199545714Y-102742857D01*
X199688571Y-102600000D01*
X199688571Y-102885714D01*
X203974285Y-101457142D02*
X204260000Y-101457142D01*
X204545714Y-101600000D01*
X204688571Y-101742857D01*
X204831428Y-102028571D01*
X204974285Y-102600000D01*
X204974285Y-103314285D01*
X204831428Y-103885714D01*
X204688571Y-104171428D01*
X204545714Y-104314285D01*
X204260000Y-104457142D01*
X203974285Y-104457142D01*
X203688571Y-104314285D01*
X203545714Y-104171428D01*
X203402857Y-103885714D01*
X203260000Y-103314285D01*
X203260000Y-102600000D01*
X203402857Y-102028571D01*
X203545714Y-101742857D01*
X203688571Y-101600000D01*
X203974285Y-101457142D01*
X206260000Y-104171428D02*
X206402857Y-104314285D01*
X206260000Y-104457142D01*
X206117142Y-104314285D01*
X206260000Y-104171428D01*
X206260000Y-104457142D01*
X207545714Y-101742857D02*
X207688571Y-101600000D01*
X207974285Y-101457142D01*
X208688571Y-101457142D01*
X208974285Y-101600000D01*
X209117142Y-101742857D01*
X209260000Y-102028571D01*
X209260000Y-102314285D01*
X209117142Y-102742857D01*
X207402857Y-104457142D01*
X209260000Y-104457142D01*
X210545714Y-104457142D02*
X210545714Y-102457142D01*
X210545714Y-102742857D02*
X210688571Y-102600000D01*
X210974285Y-102457142D01*
X211402857Y-102457142D01*
X211688571Y-102600000D01*
X211831428Y-102885714D01*
X211831428Y-104457142D01*
X211831428Y-102885714D02*
X211974285Y-102600000D01*
X212260000Y-102457142D01*
X212688571Y-102457142D01*
X212974285Y-102600000D01*
X213117142Y-102885714D01*
X213117142Y-104457142D01*
X214545714Y-104457142D02*
X214545714Y-102457142D01*
X214545714Y-102742857D02*
X214688571Y-102600000D01*
X214974285Y-102457142D01*
X215402857Y-102457142D01*
X215688571Y-102600000D01*
X215831428Y-102885714D01*
X215831428Y-104457142D01*
X215831428Y-102885714D02*
X215974285Y-102600000D01*
X216260000Y-102457142D01*
X216688571Y-102457142D01*
X216974285Y-102600000D01*
X217117142Y-102885714D01*
X217117142Y-104457142D01*
M02*
