G04 #@! TF.FileFunction,Drawing*
%FSLAX46Y46*%
G04 Gerber Fmt 4.6, Leading zero omitted, Abs format (unit mm)*
G04 Created by KiCad (PCBNEW (2016-11-21 revision f7cc0a9)-makepkg) date 06/05/17 10:20:09*
%MOMM*%
%LPD*%
G01*
G04 APERTURE LIST*
%ADD10C,0.100000*%
%ADD11C,0.300000*%
G04 APERTURE END LIST*
D10*
D11*
X118500000Y-116728570D02*
X118500000Y-117728570D01*
X118142857Y-116157141D02*
X117785714Y-117228570D01*
X118714285Y-117228570D01*
X119500000Y-116871427D02*
X119357142Y-116799999D01*
X119285714Y-116728570D01*
X119214285Y-116585713D01*
X119214285Y-116514284D01*
X119285714Y-116371427D01*
X119357142Y-116299999D01*
X119500000Y-116228570D01*
X119785714Y-116228570D01*
X119928571Y-116299999D01*
X120000000Y-116371427D01*
X120071428Y-116514284D01*
X120071428Y-116585713D01*
X120000000Y-116728570D01*
X119928571Y-116799999D01*
X119785714Y-116871427D01*
X119500000Y-116871427D01*
X119357142Y-116942856D01*
X119285714Y-117014284D01*
X119214285Y-117157141D01*
X119214285Y-117442856D01*
X119285714Y-117585713D01*
X119357142Y-117657141D01*
X119500000Y-117728570D01*
X119785714Y-117728570D01*
X119928571Y-117657141D01*
X120000000Y-117585713D01*
X120071428Y-117442856D01*
X120071428Y-117157141D01*
X120000000Y-117014284D01*
X119928571Y-116942856D01*
X119785714Y-116871427D01*
X120714285Y-117585713D02*
X120785714Y-117657141D01*
X120714285Y-117728570D01*
X120642857Y-117657141D01*
X120714285Y-117585713D01*
X120714285Y-117728570D01*
X121714285Y-116228570D02*
X121857142Y-116228570D01*
X122000000Y-116299999D01*
X122071428Y-116371427D01*
X122142857Y-116514284D01*
X122214285Y-116799999D01*
X122214285Y-117157141D01*
X122142857Y-117442856D01*
X122071428Y-117585713D01*
X122000000Y-117657141D01*
X121857142Y-117728570D01*
X121714285Y-117728570D01*
X121571428Y-117657141D01*
X121500000Y-117585713D01*
X121428571Y-117442856D01*
X121357142Y-117157141D01*
X121357142Y-116799999D01*
X121428571Y-116514284D01*
X121500000Y-116371427D01*
X121571428Y-116299999D01*
X121714285Y-116228570D01*
X123142857Y-116228570D02*
X123285714Y-116228570D01*
X123428571Y-116299999D01*
X123500000Y-116371427D01*
X123571428Y-116514284D01*
X123642857Y-116799999D01*
X123642857Y-117157141D01*
X123571428Y-117442856D01*
X123500000Y-117585713D01*
X123428571Y-117657141D01*
X123285714Y-117728570D01*
X123142857Y-117728570D01*
X123000000Y-117657141D01*
X122928571Y-117585713D01*
X122857142Y-117442856D01*
X122785714Y-117157141D01*
X122785714Y-116799999D01*
X122857142Y-116514284D01*
X122928571Y-116371427D01*
X123000000Y-116299999D01*
X123142857Y-116228570D01*
X124571428Y-116228570D02*
X124714285Y-116228570D01*
X124857142Y-116299999D01*
X124928571Y-116371427D01*
X125000000Y-116514284D01*
X125071428Y-116799999D01*
X125071428Y-117157141D01*
X125000000Y-117442856D01*
X124928571Y-117585713D01*
X124857142Y-117657141D01*
X124714285Y-117728570D01*
X124571428Y-117728570D01*
X124428571Y-117657141D01*
X124357142Y-117585713D01*
X124285714Y-117442856D01*
X124214285Y-117157141D01*
X124214285Y-116799999D01*
X124285714Y-116514284D01*
X124357142Y-116371427D01*
X124428571Y-116299999D01*
X124571428Y-116228570D01*
X126857142Y-117728570D02*
X126857142Y-116728570D01*
X126857142Y-116871427D02*
X126928571Y-116799999D01*
X127071428Y-116728570D01*
X127285714Y-116728570D01*
X127428571Y-116799999D01*
X127500000Y-116942856D01*
X127500000Y-117728570D01*
X127500000Y-116942856D02*
X127571428Y-116799999D01*
X127714285Y-116728570D01*
X127928571Y-116728570D01*
X128071428Y-116799999D01*
X128142857Y-116942856D01*
X128142857Y-117728570D01*
X128857142Y-117728570D02*
X128857142Y-116728570D01*
X128857142Y-116871427D02*
X128928571Y-116799999D01*
X129071428Y-116728570D01*
X129285714Y-116728570D01*
X129428571Y-116799999D01*
X129500000Y-116942856D01*
X129500000Y-117728570D01*
X129500000Y-116942856D02*
X129571428Y-116799999D01*
X129714285Y-116728570D01*
X129928571Y-116728570D01*
X130071428Y-116799999D01*
X130142857Y-116942856D01*
X130142857Y-117728570D01*
X100000000Y-115699999D02*
X148000000Y-115699999D01*
X100000000Y-106000000D02*
X100000000Y-118399999D01*
X148000000Y-106000000D02*
X148000000Y-118399999D01*
X148000000Y-115699999D02*
X146873496Y-116286420D01*
X148000000Y-115699999D02*
X146873496Y-115113578D01*
X100000000Y-115699999D02*
X101126504Y-116286420D01*
X100000000Y-115699999D02*
X101126504Y-115113578D01*
X87471429Y-72571428D02*
X87471429Y-71857142D01*
X86757143Y-71785714D01*
X86828572Y-71857142D01*
X86900001Y-72000000D01*
X86900001Y-72357142D01*
X86828572Y-72500000D01*
X86757143Y-72571428D01*
X86614286Y-72642857D01*
X86257143Y-72642857D01*
X86114286Y-72571428D01*
X86042858Y-72500000D01*
X85971429Y-72357142D01*
X85971429Y-72000000D01*
X86042858Y-71857142D01*
X86114286Y-71785714D01*
X87471429Y-73928571D02*
X87471429Y-73642857D01*
X87400001Y-73500000D01*
X87328572Y-73428571D01*
X87114286Y-73285714D01*
X86828572Y-73214285D01*
X86257143Y-73214285D01*
X86114286Y-73285714D01*
X86042858Y-73357142D01*
X85971429Y-73500000D01*
X85971429Y-73785714D01*
X86042858Y-73928571D01*
X86114286Y-74000000D01*
X86257143Y-74071428D01*
X86614286Y-74071428D01*
X86757143Y-74000000D01*
X86828572Y-73928571D01*
X86900001Y-73785714D01*
X86900001Y-73500000D01*
X86828572Y-73357142D01*
X86757143Y-73285714D01*
X86614286Y-73214285D01*
X86114286Y-74714285D02*
X86042858Y-74785714D01*
X85971429Y-74714285D01*
X86042858Y-74642857D01*
X86114286Y-74714285D01*
X85971429Y-74714285D01*
X87471429Y-75714285D02*
X87471429Y-75857142D01*
X87400001Y-76000000D01*
X87328572Y-76071428D01*
X87185715Y-76142857D01*
X86900001Y-76214285D01*
X86542858Y-76214285D01*
X86257143Y-76142857D01*
X86114286Y-76071428D01*
X86042858Y-76000000D01*
X85971429Y-75857142D01*
X85971429Y-75714285D01*
X86042858Y-75571428D01*
X86114286Y-75500000D01*
X86257143Y-75428571D01*
X86542858Y-75357142D01*
X86900001Y-75357142D01*
X87185715Y-75428571D01*
X87328572Y-75500000D01*
X87400001Y-75571428D01*
X87471429Y-75714285D01*
X87471429Y-77142857D02*
X87471429Y-77285714D01*
X87400001Y-77428571D01*
X87328572Y-77500000D01*
X87185715Y-77571428D01*
X86900001Y-77642857D01*
X86542858Y-77642857D01*
X86257143Y-77571428D01*
X86114286Y-77500000D01*
X86042858Y-77428571D01*
X85971429Y-77285714D01*
X85971429Y-77142857D01*
X86042858Y-77000000D01*
X86114286Y-76928571D01*
X86257143Y-76857142D01*
X86542858Y-76785714D01*
X86900001Y-76785714D01*
X87185715Y-76857142D01*
X87328572Y-76928571D01*
X87400001Y-77000000D01*
X87471429Y-77142857D01*
X87471429Y-78571428D02*
X87471429Y-78714285D01*
X87400001Y-78857142D01*
X87328572Y-78928571D01*
X87185715Y-79000000D01*
X86900001Y-79071428D01*
X86542858Y-79071428D01*
X86257143Y-79000000D01*
X86114286Y-78928571D01*
X86042858Y-78857142D01*
X85971429Y-78714285D01*
X85971429Y-78571428D01*
X86042858Y-78428571D01*
X86114286Y-78357142D01*
X86257143Y-78285714D01*
X86542858Y-78214285D01*
X86900001Y-78214285D01*
X87185715Y-78285714D01*
X87328572Y-78357142D01*
X87400001Y-78428571D01*
X87471429Y-78571428D01*
X85971429Y-80857142D02*
X86971429Y-80857142D01*
X86828572Y-80857142D02*
X86900001Y-80928571D01*
X86971429Y-81071428D01*
X86971429Y-81285714D01*
X86900001Y-81428571D01*
X86757143Y-81500000D01*
X85971429Y-81500000D01*
X86757143Y-81500000D02*
X86900001Y-81571428D01*
X86971429Y-81714285D01*
X86971429Y-81928571D01*
X86900001Y-82071428D01*
X86757143Y-82142857D01*
X85971429Y-82142857D01*
X85971429Y-82857142D02*
X86971429Y-82857142D01*
X86828572Y-82857142D02*
X86900001Y-82928571D01*
X86971429Y-83071428D01*
X86971429Y-83285714D01*
X86900001Y-83428571D01*
X86757143Y-83500000D01*
X85971429Y-83500000D01*
X86757143Y-83500000D02*
X86900001Y-83571428D01*
X86971429Y-83714285D01*
X86971429Y-83928571D01*
X86900001Y-84071428D01*
X86757143Y-84142857D01*
X85971429Y-84142857D01*
X88000001Y-50000000D02*
X88000001Y-106000000D01*
X100000000Y-50000000D02*
X85300001Y-50000000D01*
X100000000Y-106000000D02*
X85300001Y-106000000D01*
X88000001Y-106000000D02*
X87413580Y-104873496D01*
X88000001Y-106000000D02*
X88586422Y-104873496D01*
X88000001Y-50000000D02*
X87413580Y-51126504D01*
X88000001Y-50000000D02*
X88586422Y-51126504D01*
M02*
