G04 #@! TF.FileFunction,Paste,Top*
%FSLAX46Y46*%
G04 Gerber Fmt 4.6, Leading zero omitted, Abs format (unit mm)*
G04 Created by KiCad (PCBNEW (2016-11-21 revision f7cc0a9)-makepkg) date 06/05/17 10:20:09*
%MOMM*%
%LPD*%
G01*
G04 APERTURE LIST*
%ADD10C,0.100000*%
%ADD11R,0.864000X2.358000*%
%ADD12R,0.774000X0.270000*%
%ADD13R,0.270000X0.774000*%
%ADD14R,0.504000X0.504000*%
%ADD15R,0.225000X0.666000*%
%ADD16R,0.666000X0.225000*%
%ADD17R,4.050000X2.880000*%
%ADD18R,5.292000X5.031000*%
%ADD19R,2.277000X1.062000*%
%ADD20R,5.724000X4.914000*%
%ADD21R,1.557000X0.864000*%
%ADD22R,0.990000X1.800000*%
%ADD23R,0.630000X0.900000*%
%ADD24R,0.630000X0.270000*%
%ADD25R,0.696000X0.980000*%
%ADD26R,0.612000X0.315000*%
%ADD27R,4.500000X3.177000*%
%ADD28R,0.558000X0.828000*%
%ADD29R,0.450000X0.531000*%
%ADD30R,0.684000X0.414000*%
%ADD31R,0.414000X0.684000*%
%ADD32R,0.513000X0.792000*%
%ADD33R,1.467000X1.917000*%
%ADD34R,0.648000X0.810000*%
%ADD35R,1.188000X0.603000*%
%ADD36R,0.603000X1.188000*%
%ADD37R,0.738000X1.503000*%
%ADD38R,1.503000X0.738000*%
%ADD39R,0.585000X0.792000*%
%ADD40R,0.792000X0.585000*%
%ADD41R,0.459000X0.450000*%
%ADD42R,0.450000X0.459000*%
%ADD43R,0.864000X1.548000*%
%ADD44R,0.648000X0.783000*%
%ADD45R,0.783000X0.648000*%
%ADD46R,0.531000X0.450000*%
%ADD47R,2.673000X1.242000*%
%ADD48R,0.792000X0.513000*%
%ADD49R,0.549000X1.062000*%
G04 APERTURE END LIST*
D10*
D11*
X124625000Y-69250000D03*
X121875000Y-69250000D03*
X124625000Y-65750000D03*
X121875000Y-65750000D03*
X124625000Y-54000000D03*
X121875000Y-54000000D03*
X124625000Y-57500000D03*
X121875000Y-57500000D03*
D12*
X133305000Y-61500000D03*
X133305000Y-61000000D03*
X133305000Y-60500000D03*
X133305000Y-60000000D03*
X133305000Y-59500000D03*
X133305000Y-59000000D03*
D13*
X134000000Y-58305000D03*
X134500000Y-58305000D03*
X135000000Y-58305000D03*
X135500000Y-58305000D03*
X136000000Y-58305000D03*
X136500000Y-58305000D03*
X137000000Y-58305000D03*
X137500000Y-58305000D03*
D12*
X138195000Y-59000000D03*
X138195000Y-59500000D03*
X138195000Y-60000000D03*
X138195000Y-60500000D03*
X138195000Y-61000000D03*
X138195000Y-61500000D03*
D13*
X137500000Y-62195000D03*
X137000000Y-62195000D03*
X136500000Y-62195000D03*
X136000000Y-62195000D03*
X135500000Y-62195000D03*
X135000000Y-62195000D03*
X134500000Y-62195000D03*
X134000000Y-62195000D03*
D14*
X131535185Y-93711523D03*
X133135185Y-93711523D03*
X131535185Y-92111523D03*
X133135185Y-92111523D03*
D15*
X133735185Y-94921523D03*
X133335185Y-94921523D03*
X132935185Y-94921523D03*
X132535185Y-94921523D03*
X132135185Y-94921523D03*
X131735185Y-94921523D03*
X131335185Y-94921523D03*
X130935185Y-94921523D03*
D16*
X130325185Y-94311523D03*
X130325185Y-93911523D03*
X130325185Y-93511523D03*
X130325185Y-93111523D03*
X130325185Y-92711523D03*
X130325185Y-92311523D03*
X130325185Y-91911523D03*
X130325185Y-91511523D03*
D15*
X130935185Y-90901523D03*
X131335185Y-90901523D03*
X131735185Y-90901523D03*
X132135185Y-90901523D03*
X132535185Y-90901523D03*
X132935185Y-90901523D03*
X133335185Y-90901523D03*
X133735185Y-90901523D03*
D16*
X134345185Y-91511523D03*
X134345185Y-91911523D03*
X134345185Y-92311523D03*
X134345185Y-92711523D03*
X134345185Y-93111523D03*
X134345185Y-93511523D03*
X134345185Y-93911523D03*
X134345185Y-94311523D03*
D17*
X116150000Y-74000000D03*
X116150000Y-81500000D03*
D18*
X121420000Y-89750000D03*
D19*
X114910000Y-92040000D03*
X114910000Y-87460000D03*
D20*
X108920000Y-89750000D03*
D21*
X102160000Y-91950000D03*
X102160000Y-87550000D03*
D22*
X136330000Y-82150000D03*
X136330000Y-73350000D03*
X133790000Y-73350000D03*
X133790000Y-82150000D03*
X131250000Y-82150000D03*
X131250000Y-73350000D03*
D23*
X142090000Y-74400000D03*
D24*
X142090000Y-75250000D03*
X142090000Y-75750000D03*
X142090000Y-76250000D03*
X142090000Y-76750000D03*
X142090000Y-77250000D03*
X142090000Y-77750000D03*
X142090000Y-78250000D03*
X142090000Y-78750000D03*
X142090000Y-79250000D03*
X142090000Y-79750000D03*
D23*
X142090000Y-80600000D03*
D24*
X140790000Y-77000000D03*
X140790000Y-76500000D03*
X140790000Y-74500000D03*
X140790000Y-76000000D03*
X140790000Y-75000000D03*
X140790000Y-75500000D03*
X140790000Y-78000000D03*
X140790000Y-78500000D03*
X140790000Y-79000000D03*
X140790000Y-79500000D03*
X140790000Y-80000000D03*
X140790000Y-80500000D03*
D25*
X118500000Y-67250000D03*
D26*
X119660000Y-66275000D03*
X119660000Y-66925000D03*
X119660000Y-67575000D03*
X119660000Y-68225000D03*
X116840000Y-68225000D03*
X116840000Y-67575000D03*
X116840000Y-66925000D03*
X116840000Y-66275000D03*
D25*
X118000000Y-63500000D03*
D26*
X116840000Y-64475000D03*
X116840000Y-63825000D03*
X116840000Y-63175000D03*
X116840000Y-62525000D03*
X119660000Y-62525000D03*
X119660000Y-63175000D03*
X119660000Y-63825000D03*
X119660000Y-64475000D03*
D25*
X118500000Y-56000000D03*
D26*
X119660000Y-55025000D03*
X119660000Y-55675000D03*
X119660000Y-56325000D03*
X119660000Y-56975000D03*
X116840000Y-56975000D03*
X116840000Y-56325000D03*
X116840000Y-55675000D03*
X116840000Y-55025000D03*
D25*
X131250000Y-101000000D03*
D26*
X130090000Y-101975000D03*
X130090000Y-101325000D03*
X130090000Y-100675000D03*
X130090000Y-100025000D03*
X132910000Y-100025000D03*
X132910000Y-100675000D03*
X132910000Y-101325000D03*
X132910000Y-101975000D03*
D25*
X136750000Y-101000000D03*
D26*
X137910000Y-100025000D03*
X137910000Y-100675000D03*
X137910000Y-101325000D03*
X137910000Y-101975000D03*
X135090000Y-101975000D03*
X135090000Y-101325000D03*
X135090000Y-100675000D03*
X135090000Y-100025000D03*
D25*
X118000000Y-59750000D03*
D26*
X116840000Y-60725000D03*
X116840000Y-60075000D03*
X116840000Y-59425000D03*
X116840000Y-58775000D03*
X119660000Y-58775000D03*
X119660000Y-59425000D03*
X119660000Y-60075000D03*
X119660000Y-60725000D03*
D27*
X107750000Y-66585000D03*
X107750000Y-55415000D03*
D28*
X104900000Y-94910000D03*
X106000000Y-94910000D03*
X107100000Y-94910000D03*
X107100000Y-97890000D03*
X106000000Y-97890000D03*
X104900000Y-97890000D03*
D29*
X138750000Y-75845000D03*
X138750000Y-76655000D03*
D30*
X117120000Y-53250000D03*
X119380000Y-53250000D03*
X130630000Y-69250000D03*
X128370000Y-69250000D03*
D31*
X130250000Y-54870000D03*
X130250000Y-57130000D03*
D30*
X141760000Y-56000000D03*
X139500000Y-56000000D03*
D32*
X120650000Y-83575000D03*
X122550000Y-83575000D03*
X121600000Y-81625000D03*
X115250000Y-100275000D03*
X116200000Y-102225000D03*
X114300000Y-102225000D03*
D33*
X135710000Y-86200000D03*
X139890000Y-86200000D03*
D34*
X109750000Y-98680000D03*
X109750000Y-95320000D03*
X115250000Y-98680000D03*
X115250000Y-95320000D03*
D35*
X140500000Y-98880000D03*
X140500000Y-97120000D03*
D36*
X136620000Y-95750000D03*
X138380000Y-95750000D03*
D35*
X112250000Y-96880000D03*
X112250000Y-95120000D03*
D37*
X121845000Y-61500000D03*
X124655000Y-61500000D03*
D38*
X112250000Y-101405000D03*
X112250000Y-98595000D03*
X118000000Y-98155000D03*
X118000000Y-95345000D03*
D39*
X130175000Y-62750000D03*
X128825000Y-62750000D03*
X128825000Y-61250000D03*
X130175000Y-61250000D03*
X130175000Y-65750000D03*
X128825000Y-65750000D03*
D40*
X143500000Y-64925000D03*
X143500000Y-63575000D03*
X143500000Y-67850000D03*
X143500000Y-66500000D03*
X145000000Y-67850000D03*
X145000000Y-66500000D03*
X146500000Y-67850000D03*
X146500000Y-66500000D03*
D39*
X102000000Y-94000000D03*
X103350000Y-94000000D03*
D40*
X109750000Y-101675000D03*
X109750000Y-100325000D03*
X118000000Y-101675000D03*
X118000000Y-100325000D03*
X124400000Y-82325000D03*
X124400000Y-83675000D03*
D39*
X122275000Y-85400000D03*
X120925000Y-85400000D03*
D41*
X127695000Y-94000000D03*
X126805000Y-94000000D03*
X127695000Y-92750000D03*
X126805000Y-92750000D03*
D42*
X130750000Y-87805000D03*
X130750000Y-88695000D03*
X133500000Y-97305000D03*
X133500000Y-98195000D03*
X132250000Y-98195000D03*
X132250000Y-97305000D03*
X134750000Y-97305000D03*
X134750000Y-98195000D03*
D41*
X141695000Y-58000000D03*
X140805000Y-58000000D03*
X142055000Y-59250000D03*
X142945000Y-59250000D03*
X142055000Y-60250000D03*
X142945000Y-60250000D03*
X137055000Y-98500000D03*
X137945000Y-98500000D03*
D42*
X131750000Y-66695000D03*
X131750000Y-65805000D03*
X133000000Y-66695000D03*
X133000000Y-65805000D03*
X134250000Y-66695000D03*
X134250000Y-65805000D03*
X140500000Y-65805000D03*
X140500000Y-66695000D03*
D41*
X143805000Y-93750000D03*
X144695000Y-93750000D03*
D43*
X123375000Y-79600000D03*
X120625000Y-79600000D03*
D44*
X141925000Y-61500000D03*
X140575000Y-61500000D03*
X135175000Y-56000000D03*
X133825000Y-56000000D03*
X130175000Y-64250000D03*
X128825000Y-64250000D03*
D45*
X142000000Y-64925000D03*
X142000000Y-63575000D03*
X142000000Y-67830000D03*
X142000000Y-66480000D03*
D29*
X140500000Y-60155000D03*
X140500000Y-59345000D03*
D46*
X126845000Y-95250000D03*
X127655000Y-95250000D03*
X137095000Y-94250000D03*
X137905000Y-94250000D03*
X130095000Y-97250000D03*
X130905000Y-97250000D03*
X130095000Y-98500000D03*
X130905000Y-98500000D03*
D29*
X135500000Y-66655000D03*
X135500000Y-65845000D03*
X136750000Y-66655000D03*
X136750000Y-65845000D03*
X130250000Y-59655000D03*
X130250000Y-58845000D03*
D46*
X137655000Y-56000000D03*
X136845000Y-56000000D03*
D29*
X146000000Y-92310000D03*
X146000000Y-91500000D03*
X139250000Y-65845000D03*
X139250000Y-66655000D03*
X138000000Y-66655000D03*
X138000000Y-65845000D03*
X129500000Y-87845000D03*
X129500000Y-88655000D03*
X138750000Y-79155000D03*
X138750000Y-78345000D03*
D46*
X137905000Y-97250000D03*
X137095000Y-97250000D03*
D47*
X126630000Y-74600000D03*
X121770000Y-74600000D03*
X121570000Y-99500000D03*
X126430000Y-99500000D03*
D48*
X142525000Y-90550000D03*
X142525000Y-91500000D03*
X142525000Y-92450000D03*
X144475000Y-92450000D03*
X144475000Y-91500000D03*
X144475000Y-90550000D03*
D42*
X128750000Y-80695000D03*
X128750000Y-79805000D03*
D46*
X127655000Y-91500000D03*
X126845000Y-91500000D03*
D42*
X128750000Y-77555000D03*
X128750000Y-78445000D03*
D43*
X139175000Y-89600000D03*
X136425000Y-89600000D03*
D49*
X143650000Y-97425000D03*
X145550000Y-97425000D03*
X144600000Y-95375000D03*
D40*
X104250000Y-101375000D03*
X104250000Y-100025000D03*
X107750000Y-100075000D03*
X107750000Y-101425000D03*
X106000000Y-100025000D03*
X106000000Y-101375000D03*
M02*
