M48
;DRILL file {KiCad (2016-11-21 revision f7cc0a9)-makepkg} date 06/05/17 10:19:10
;FORMAT={-:-/ absolute / metric / decimal}
FMAT,2
METRIC,TZ
T1C0.300
T2C0.350
T3C0.400
T4C0.600
%
G90
G05
M71
T1
X134.75Y-99.
T2
X103.1Y-96.
X105.1Y-102.8
X106.8Y-102.4
X108.6Y-103.1
X110.7Y-102.5
X113.Y-102.5
X120.5Y-97.5
X120.5Y-101.5
X121.25Y-97.5
X121.25Y-101.5
X122.Y-97.5
X122.Y-101.5
X122.75Y-97.5
X122.75Y-101.5
X125.25Y-97.5
X125.25Y-101.5
X126.Y-97.5
X126.Y-101.5
X126.75Y-97.5
X126.75Y-101.5
X127.5Y-97.5
X127.5Y-101.5
X131.25Y-80.5
X132.25Y-69.25
X133.Y-69.25
X133.75Y-69.25
X134.5Y-69.25
X135.Y-60.25
X135.189Y-92.477
X135.25Y-69.25
X135.5Y-91.75
X135.75Y-60.25
X136.Y-69.25
X136.144Y-92.329
X136.4Y-91.2
X136.5Y-60.25
X136.75Y-69.25
X137.287Y-93.218
X137.287Y-92.202
X137.5Y-69.25
X137.5Y-76.7
X137.7Y-75.6
X137.7Y-78.4
X137.8Y-74.5
X138.414Y-80.014
X138.75Y-94.25
X139.4Y-82.6
X139.4Y-83.4
X139.6Y-96.3
X139.8Y-74.1
X139.8Y-77.
X139.8Y-77.9
X139.8Y-80.9
X140.3Y-83.4
X140.4Y-96.3
X140.9Y-88.8
X140.9Y-89.6
X140.9Y-90.4
X140.9Y-91.2
X140.9Y-92.
X141.2Y-83.4
X141.3Y-96.3
X142.1Y-83.4
X142.2Y-96.3
X142.2Y-97.12
X142.4Y-93.5
X143.4Y-75.6
X143.4Y-76.6
X143.4Y-77.5
X143.4Y-78.7
X143.5Y-80.
X143.5Y-74.2
X144.25Y-69.5
X144.4Y-75.7
X144.4Y-76.5
X144.4Y-77.3
X144.4Y-78.1
X144.4Y-78.9
X145.75Y-69.5
T3
X102.Y-55.
X102.Y-56.
X102.Y-66.
X102.Y-67.
X103.Y-55.
X103.Y-56.
X103.Y-66.
X103.Y-67.
X104.Y-55.
X104.Y-56.
X104.Y-66.
X104.Y-67.
X104.25Y-87.5
X104.25Y-88.5
X104.25Y-89.5
X104.25Y-90.5
X104.25Y-91.5
X104.25Y-92.5
X106.Y-96.
X110.5Y-73.
X110.5Y-74.
X110.5Y-75.
X110.5Y-80.5
X110.5Y-81.5
X110.5Y-82.5
X111.5Y-73.
X111.5Y-74.
X111.5Y-75.
X111.5Y-80.5
X111.5Y-81.5
X111.5Y-82.5
X112.Y-55.
X112.Y-56.
X112.Y-66.
X112.Y-67.
X112.5Y-73.
X112.5Y-74.
X112.5Y-75.
X112.5Y-80.5
X112.5Y-81.5
X112.5Y-82.5
X113.Y-55.
X113.Y-56.
X113.Y-66.
X113.Y-67.
X114.Y-55.
X114.Y-56.
X114.Y-66.
X114.Y-67.
X115.75Y-57.5
X115.75Y-68.75
X116.5Y-98.25
X120.6Y-53.2
X120.6Y-54.
X120.6Y-54.8
X120.6Y-61.8
X120.75Y-58.5
X122.75Y-61.5
X123.25Y-53.25
X123.25Y-54.
X123.25Y-54.75
X123.25Y-57.5
X123.25Y-58.25
X123.3Y-65.
X123.4Y-86.
X123.75Y-61.5
X125.9Y-93.2
X126.Y-95.25
X127.1Y-53.1
X127.1Y-54.
X127.6Y-96.4
X127.7Y-59.8
X127.75Y-63.
X128.Y-53.1
X128.Y-54.
X129.25Y-97.25
X129.25Y-98.5
X129.5Y-95.75
X129.7Y-72.1
X129.7Y-73.
X129.7Y-73.9
X129.7Y-86.5
X130.4Y-75.3
X130.4Y-76.2
X130.6Y-67.9
X130.75Y-89.5
X130.8Y-86.5
X131.3Y-75.3
X131.3Y-76.2
X131.5Y-59.25
X131.535Y-92.112
X131.535Y-93.712
X131.75Y-96.25
X132.25Y-57.5
X132.5Y-63.
X132.5Y-84.
X132.75Y-56.5
X133.135Y-92.112
X133.135Y-93.712
X133.7Y-89.5
X135.001Y-88.9
X135.001Y-89.916
X135.1Y-84.
X135.25Y-95.25
X135.4Y-103.2
X135.75Y-54.75
X136.25Y-98.5
X137.25Y-57.
X138.25Y-55.25
X138.75Y-97.25
X140.5Y-63.5
X142.9Y-94.8
X142.975Y-88.8
X143.75Y-59.25
X143.75Y-60.25
X144.025Y-88.8
X144.907Y-62.23
X145.923Y-62.23
X146.Y-93.25
X146.6Y-98.
X146.939Y-62.23
T4
X140.7Y-73.18G85X141.7Y-73.18
G05
X140.7Y-81.82G85X141.7Y-81.82
G05
X145.81Y-73.18G85X147.31Y-73.18
G05
X145.81Y-81.82G85X147.31Y-81.82
G05
T0
M30
