G04 #@! TF.FileFunction,Legend,Bot*
%FSLAX46Y46*%
G04 Gerber Fmt 4.6, Leading zero omitted, Abs format (unit mm)*
G04 Created by KiCad (PCBNEW (2016-11-21 revision f7cc0a9)-makepkg) date 06/05/17 10:20:09*
%MOMM*%
%LPD*%
G01*
G04 APERTURE LIST*
%ADD10C,0.100000*%
%ADD11C,0.150000*%
%ADD12C,0.120000*%
G04 APERTURE END LIST*
D10*
D11*
X146064285Y-101414285D02*
X145935714Y-101457142D01*
X145721428Y-101457142D01*
X145635714Y-101414285D01*
X145592857Y-101371428D01*
X145550000Y-101285714D01*
X145550000Y-101200000D01*
X145592857Y-101114285D01*
X145635714Y-101071428D01*
X145721428Y-101028571D01*
X145892857Y-100985714D01*
X145978571Y-100942857D01*
X146021428Y-100900000D01*
X146064285Y-100814285D01*
X146064285Y-100728571D01*
X146021428Y-100642857D01*
X145978571Y-100600000D01*
X145892857Y-100557142D01*
X145678571Y-100557142D01*
X145550000Y-100600000D01*
X144650000Y-101371428D02*
X144692857Y-101414285D01*
X144821428Y-101457142D01*
X144907142Y-101457142D01*
X145035714Y-101414285D01*
X145121428Y-101328571D01*
X145164285Y-101242857D01*
X145207142Y-101071428D01*
X145207142Y-100942857D01*
X145164285Y-100771428D01*
X145121428Y-100685714D01*
X145035714Y-100600000D01*
X144907142Y-100557142D01*
X144821428Y-100557142D01*
X144692857Y-100600000D01*
X144650000Y-100642857D01*
X144092857Y-100557142D02*
X143921428Y-100557142D01*
X143835714Y-100600000D01*
X143750000Y-100685714D01*
X143707142Y-100857142D01*
X143707142Y-101157142D01*
X143750000Y-101328571D01*
X143835714Y-101414285D01*
X143921428Y-101457142D01*
X144092857Y-101457142D01*
X144178571Y-101414285D01*
X144264285Y-101328571D01*
X144307142Y-101157142D01*
X144307142Y-100857142D01*
X144264285Y-100685714D01*
X144178571Y-100600000D01*
X144092857Y-100557142D01*
X143450000Y-100557142D02*
X142935714Y-100557142D01*
X143192857Y-101457142D02*
X143192857Y-100557142D01*
X142764285Y-100557142D02*
X142250000Y-100557142D01*
X142507142Y-101457142D02*
X142507142Y-100557142D01*
X140750000Y-101457142D02*
X141050000Y-101028571D01*
X141264285Y-101457142D02*
X141264285Y-100557142D01*
X140921428Y-100557142D01*
X140835714Y-100600000D01*
X140792857Y-100642857D01*
X140750000Y-100728571D01*
X140750000Y-100857142D01*
X140792857Y-100942857D01*
X140835714Y-100985714D01*
X140921428Y-101028571D01*
X141264285Y-101028571D01*
X140407142Y-101200000D02*
X139978571Y-101200000D01*
X140492857Y-101457142D02*
X140192857Y-100557142D01*
X139892857Y-101457142D01*
X139592857Y-101457142D02*
X139592857Y-100557142D01*
X139250000Y-100557142D01*
X139164285Y-100600000D01*
X139121428Y-100642857D01*
X139078571Y-100728571D01*
X139078571Y-100857142D01*
X139121428Y-100942857D01*
X139164285Y-100985714D01*
X139250000Y-101028571D01*
X139592857Y-101028571D01*
X138735714Y-101414285D02*
X138607142Y-101457142D01*
X138392857Y-101457142D01*
X138307142Y-101414285D01*
X138264285Y-101371428D01*
X138221428Y-101285714D01*
X138221428Y-101200000D01*
X138264285Y-101114285D01*
X138307142Y-101071428D01*
X138392857Y-101028571D01*
X138564285Y-100985714D01*
X138650000Y-100942857D01*
X138692857Y-100900000D01*
X138735714Y-100814285D01*
X138735714Y-100728571D01*
X138692857Y-100642857D01*
X138650000Y-100600000D01*
X138564285Y-100557142D01*
X138350000Y-100557142D01*
X138221428Y-100600000D01*
X137664285Y-100557142D02*
X137492857Y-100557142D01*
X137407142Y-100600000D01*
X137321428Y-100685714D01*
X137278571Y-100857142D01*
X137278571Y-101157142D01*
X137321428Y-101328571D01*
X137407142Y-101414285D01*
X137492857Y-101457142D01*
X137664285Y-101457142D01*
X137750000Y-101414285D01*
X137835714Y-101328571D01*
X137878571Y-101157142D01*
X137878571Y-100857142D01*
X137835714Y-100685714D01*
X137750000Y-100600000D01*
X137664285Y-100557142D01*
X136892857Y-101457142D02*
X136892857Y-100557142D01*
X136378571Y-101457142D01*
X136378571Y-100557142D01*
X144478571Y-102057142D02*
X144478571Y-102700000D01*
X144521428Y-102828571D01*
X144607142Y-102914285D01*
X144735714Y-102957142D01*
X144821428Y-102957142D01*
X144050000Y-102057142D02*
X144050000Y-102785714D01*
X144007142Y-102871428D01*
X143964285Y-102914285D01*
X143878571Y-102957142D01*
X143707142Y-102957142D01*
X143621428Y-102914285D01*
X143578571Y-102871428D01*
X143535714Y-102785714D01*
X143535714Y-102057142D01*
X143107142Y-102957142D02*
X143107142Y-102057142D01*
X142592857Y-102957142D01*
X142592857Y-102057142D01*
X142164285Y-102485714D02*
X141864285Y-102485714D01*
X141735714Y-102957142D02*
X142164285Y-102957142D01*
X142164285Y-102057142D01*
X141735714Y-102057142D01*
X140707142Y-102142857D02*
X140664285Y-102100000D01*
X140578571Y-102057142D01*
X140364285Y-102057142D01*
X140278571Y-102100000D01*
X140235714Y-102142857D01*
X140192857Y-102228571D01*
X140192857Y-102314285D01*
X140235714Y-102442857D01*
X140750000Y-102957142D01*
X140192857Y-102957142D01*
X139635714Y-102057142D02*
X139550000Y-102057142D01*
X139464285Y-102100000D01*
X139421428Y-102142857D01*
X139378571Y-102228571D01*
X139335714Y-102400000D01*
X139335714Y-102614285D01*
X139378571Y-102785714D01*
X139421428Y-102871428D01*
X139464285Y-102914285D01*
X139550000Y-102957142D01*
X139635714Y-102957142D01*
X139721428Y-102914285D01*
X139764285Y-102871428D01*
X139807142Y-102785714D01*
X139850000Y-102614285D01*
X139850000Y-102400000D01*
X139807142Y-102228571D01*
X139764285Y-102142857D01*
X139721428Y-102100000D01*
X139635714Y-102057142D01*
X138478571Y-102957142D02*
X138992857Y-102957142D01*
X138735714Y-102957142D02*
X138735714Y-102057142D01*
X138821428Y-102185714D01*
X138907142Y-102271428D01*
X138992857Y-102314285D01*
X138178571Y-102057142D02*
X137578571Y-102057142D01*
X137964285Y-102957142D01*
X102307142Y-72292857D02*
X101407142Y-72292857D01*
X102307142Y-72721428D02*
X101407142Y-72721428D01*
X102307142Y-73235714D01*
X101407142Y-73235714D01*
X102307142Y-73664285D02*
X101407142Y-73664285D01*
X101407142Y-74007142D01*
X101450000Y-74092857D01*
X101492857Y-74135714D01*
X101578571Y-74178571D01*
X101707142Y-74178571D01*
X101792857Y-74135714D01*
X101835714Y-74092857D01*
X101878571Y-74007142D01*
X101878571Y-73664285D01*
X101407142Y-74564285D02*
X102135714Y-74564285D01*
X102221428Y-74607142D01*
X102264285Y-74650000D01*
X102307142Y-74735714D01*
X102307142Y-74907142D01*
X102264285Y-74992857D01*
X102221428Y-75035714D01*
X102135714Y-75078571D01*
X101407142Y-75078571D01*
X101407142Y-75378571D02*
X101407142Y-75892857D01*
X102307142Y-75635714D02*
X101407142Y-75635714D01*
X102307142Y-76921428D02*
X102307142Y-77092857D01*
X102264285Y-77178571D01*
X102221428Y-77221428D01*
X102092857Y-77307142D01*
X101921428Y-77350000D01*
X101578571Y-77350000D01*
X101492857Y-77307142D01*
X101450000Y-77264285D01*
X101407142Y-77178571D01*
X101407142Y-77007142D01*
X101450000Y-76921428D01*
X101492857Y-76878571D01*
X101578571Y-76835714D01*
X101792857Y-76835714D01*
X101878571Y-76878571D01*
X101921428Y-76921428D01*
X101964285Y-77007142D01*
X101964285Y-77178571D01*
X101921428Y-77264285D01*
X101878571Y-77307142D01*
X101792857Y-77350000D01*
X101964285Y-77735714D02*
X101964285Y-78421428D01*
X101407142Y-78764285D02*
X101407142Y-79321428D01*
X101750000Y-79021428D01*
X101750000Y-79150000D01*
X101792857Y-79235714D01*
X101835714Y-79278571D01*
X101921428Y-79321428D01*
X102135714Y-79321428D01*
X102221428Y-79278571D01*
X102264285Y-79235714D01*
X102307142Y-79150000D01*
X102307142Y-78892857D01*
X102264285Y-78807142D01*
X102221428Y-78764285D01*
X101407142Y-79878571D02*
X101407142Y-79964285D01*
X101450000Y-80050000D01*
X101492857Y-80092857D01*
X101578571Y-80135714D01*
X101750000Y-80178571D01*
X101964285Y-80178571D01*
X102135714Y-80135714D01*
X102221428Y-80092857D01*
X102264285Y-80050000D01*
X102307142Y-79964285D01*
X102307142Y-79878571D01*
X102264285Y-79792857D01*
X102221428Y-79750000D01*
X102135714Y-79707142D01*
X101964285Y-79664285D01*
X101750000Y-79664285D01*
X101578571Y-79707142D01*
X101492857Y-79750000D01*
X101450000Y-79792857D01*
X101407142Y-79878571D01*
X101407142Y-80435714D02*
X102307142Y-80735714D01*
X101407142Y-81035714D01*
X102307142Y-81335714D02*
X101407142Y-81335714D01*
X101407142Y-81550000D01*
X101450000Y-81678571D01*
X101535714Y-81764285D01*
X101621428Y-81807142D01*
X101792857Y-81850000D01*
X101921428Y-81850000D01*
X102092857Y-81807142D01*
X102178571Y-81764285D01*
X102264285Y-81678571D01*
X102307142Y-81550000D01*
X102307142Y-81335714D01*
X102221428Y-82750000D02*
X102264285Y-82707142D01*
X102307142Y-82578571D01*
X102307142Y-82492857D01*
X102264285Y-82364285D01*
X102178571Y-82278571D01*
X102092857Y-82235714D01*
X101921428Y-82192857D01*
X101792857Y-82192857D01*
X101621428Y-82235714D01*
X101535714Y-82278571D01*
X101450000Y-82364285D01*
X101407142Y-82492857D01*
X101407142Y-82578571D01*
X101450000Y-82707142D01*
X101492857Y-82750000D01*
X104407142Y-74671428D02*
X104407142Y-74242857D01*
X104835714Y-74200000D01*
X104792857Y-74242857D01*
X104750000Y-74328571D01*
X104750000Y-74542857D01*
X104792857Y-74628571D01*
X104835714Y-74671428D01*
X104921428Y-74714285D01*
X105135714Y-74714285D01*
X105221428Y-74671428D01*
X105264285Y-74628571D01*
X105307142Y-74542857D01*
X105307142Y-74328571D01*
X105264285Y-74242857D01*
X105221428Y-74200000D01*
X104364285Y-75742857D02*
X105521428Y-74971428D01*
X105307142Y-76514285D02*
X105307142Y-76000000D01*
X105307142Y-76257142D02*
X104407142Y-76257142D01*
X104535714Y-76171428D01*
X104621428Y-76085714D01*
X104664285Y-76000000D01*
X104492857Y-76857142D02*
X104450000Y-76900000D01*
X104407142Y-76985714D01*
X104407142Y-77200000D01*
X104450000Y-77285714D01*
X104492857Y-77328571D01*
X104578571Y-77371428D01*
X104664285Y-77371428D01*
X104792857Y-77328571D01*
X105307142Y-76814285D01*
X105307142Y-77371428D01*
X104364285Y-78400000D02*
X105521428Y-77628571D01*
X104492857Y-78657142D02*
X104450000Y-78700000D01*
X104407142Y-78785714D01*
X104407142Y-79000000D01*
X104450000Y-79085714D01*
X104492857Y-79128571D01*
X104578571Y-79171428D01*
X104664285Y-79171428D01*
X104792857Y-79128571D01*
X105307142Y-78614285D01*
X105307142Y-79171428D01*
X104407142Y-79728571D02*
X104407142Y-79814285D01*
X104450000Y-79900000D01*
X104492857Y-79942857D01*
X104578571Y-79985714D01*
X104750000Y-80028571D01*
X104964285Y-80028571D01*
X105135714Y-79985714D01*
X105221428Y-79942857D01*
X105264285Y-79900000D01*
X105307142Y-79814285D01*
X105307142Y-79728571D01*
X105264285Y-79642857D01*
X105221428Y-79600000D01*
X105135714Y-79557142D01*
X104964285Y-79514285D01*
X104750000Y-79514285D01*
X104578571Y-79557142D01*
X104492857Y-79600000D01*
X104450000Y-79642857D01*
X104407142Y-79728571D01*
X104407142Y-80285714D02*
X105307142Y-80585714D01*
X104407142Y-80885714D01*
X105907142Y-73600000D02*
X106635714Y-73600000D01*
X106721428Y-73642857D01*
X106764285Y-73685714D01*
X106807142Y-73771428D01*
X106807142Y-73942857D01*
X106764285Y-74028571D01*
X106721428Y-74071428D01*
X106635714Y-74114285D01*
X105907142Y-74114285D01*
X106764285Y-74500000D02*
X106807142Y-74628571D01*
X106807142Y-74842857D01*
X106764285Y-74928571D01*
X106721428Y-74971428D01*
X106635714Y-75014285D01*
X106550000Y-75014285D01*
X106464285Y-74971428D01*
X106421428Y-74928571D01*
X106378571Y-74842857D01*
X106335714Y-74671428D01*
X106292857Y-74585714D01*
X106250000Y-74542857D01*
X106164285Y-74500000D01*
X106078571Y-74500000D01*
X105992857Y-74542857D01*
X105950000Y-74585714D01*
X105907142Y-74671428D01*
X105907142Y-74885714D01*
X105950000Y-75014285D01*
X106335714Y-75700000D02*
X106378571Y-75828571D01*
X106421428Y-75871428D01*
X106507142Y-75914285D01*
X106635714Y-75914285D01*
X106721428Y-75871428D01*
X106764285Y-75828571D01*
X106807142Y-75742857D01*
X106807142Y-75400000D01*
X105907142Y-75400000D01*
X105907142Y-75700000D01*
X105950000Y-75785714D01*
X105992857Y-75828571D01*
X106078571Y-75871428D01*
X106164285Y-75871428D01*
X106250000Y-75828571D01*
X106292857Y-75785714D01*
X106335714Y-75700000D01*
X106335714Y-75400000D01*
X106721428Y-76814285D02*
X106764285Y-76771428D01*
X106807142Y-76642857D01*
X106807142Y-76557142D01*
X106764285Y-76428571D01*
X106678571Y-76342857D01*
X106592857Y-76300000D01*
X106421428Y-76257142D01*
X106292857Y-76257142D01*
X106121428Y-76300000D01*
X106035714Y-76342857D01*
X105950000Y-76428571D01*
X105907142Y-76557142D01*
X105907142Y-76642857D01*
X105950000Y-76771428D01*
X105992857Y-76814285D01*
X106807142Y-77885714D02*
X105907142Y-77885714D01*
X105907142Y-78228571D01*
X105950000Y-78314285D01*
X105992857Y-78357142D01*
X106078571Y-78400000D01*
X106207142Y-78400000D01*
X106292857Y-78357142D01*
X106335714Y-78314285D01*
X106378571Y-78228571D01*
X106378571Y-77885714D01*
X106807142Y-78785714D02*
X105907142Y-78785714D01*
X105907142Y-79000000D01*
X105950000Y-79128571D01*
X106035714Y-79214285D01*
X106121428Y-79257142D01*
X106292857Y-79300000D01*
X106421428Y-79300000D01*
X106592857Y-79257142D01*
X106678571Y-79214285D01*
X106764285Y-79128571D01*
X106807142Y-79000000D01*
X106807142Y-78785714D01*
X105992857Y-79642857D02*
X105950000Y-79685714D01*
X105907142Y-79771428D01*
X105907142Y-79985714D01*
X105950000Y-80071428D01*
X105992857Y-80114285D01*
X106078571Y-80157142D01*
X106164285Y-80157142D01*
X106292857Y-80114285D01*
X106807142Y-79600000D01*
X106807142Y-80157142D01*
X106721428Y-80542857D02*
X106764285Y-80585714D01*
X106807142Y-80542857D01*
X106764285Y-80500000D01*
X106721428Y-80542857D01*
X106807142Y-80542857D01*
X105907142Y-81142857D02*
X105907142Y-81228571D01*
X105950000Y-81314285D01*
X105992857Y-81357142D01*
X106078571Y-81400000D01*
X106250000Y-81442857D01*
X106464285Y-81442857D01*
X106635714Y-81400000D01*
X106721428Y-81357142D01*
X106764285Y-81314285D01*
X106807142Y-81228571D01*
X106807142Y-81142857D01*
X106764285Y-81057142D01*
X106721428Y-81014285D01*
X106635714Y-80971428D01*
X106464285Y-80928571D01*
X106250000Y-80928571D01*
X106078571Y-80971428D01*
X105992857Y-81014285D01*
X105950000Y-81057142D01*
X105907142Y-81142857D01*
X107407142Y-73621428D02*
X108135714Y-73621428D01*
X108221428Y-73664285D01*
X108264285Y-73707142D01*
X108307142Y-73792857D01*
X108307142Y-73964285D01*
X108264285Y-74050000D01*
X108221428Y-74092857D01*
X108135714Y-74135714D01*
X107407142Y-74135714D01*
X108264285Y-74521428D02*
X108307142Y-74650000D01*
X108307142Y-74864285D01*
X108264285Y-74950000D01*
X108221428Y-74992857D01*
X108135714Y-75035714D01*
X108050000Y-75035714D01*
X107964285Y-74992857D01*
X107921428Y-74950000D01*
X107878571Y-74864285D01*
X107835714Y-74692857D01*
X107792857Y-74607142D01*
X107750000Y-74564285D01*
X107664285Y-74521428D01*
X107578571Y-74521428D01*
X107492857Y-74564285D01*
X107450000Y-74607142D01*
X107407142Y-74692857D01*
X107407142Y-74907142D01*
X107450000Y-75035714D01*
X107835714Y-75721428D02*
X107878571Y-75850000D01*
X107921428Y-75892857D01*
X108007142Y-75935714D01*
X108135714Y-75935714D01*
X108221428Y-75892857D01*
X108264285Y-75850000D01*
X108307142Y-75764285D01*
X108307142Y-75421428D01*
X107407142Y-75421428D01*
X107407142Y-75721428D01*
X107450000Y-75807142D01*
X107492857Y-75850000D01*
X107578571Y-75892857D01*
X107664285Y-75892857D01*
X107750000Y-75850000D01*
X107792857Y-75807142D01*
X107835714Y-75721428D01*
X107835714Y-75421428D01*
X107492857Y-76278571D02*
X107450000Y-76321428D01*
X107407142Y-76407142D01*
X107407142Y-76621428D01*
X107450000Y-76707142D01*
X107492857Y-76750000D01*
X107578571Y-76792857D01*
X107664285Y-76792857D01*
X107792857Y-76750000D01*
X108307142Y-76235714D01*
X108307142Y-76792857D01*
X107835714Y-78164285D02*
X107878571Y-78292857D01*
X107921428Y-78335714D01*
X108007142Y-78378571D01*
X108135714Y-78378571D01*
X108221428Y-78335714D01*
X108264285Y-78292857D01*
X108307142Y-78207142D01*
X108307142Y-77864285D01*
X107407142Y-77864285D01*
X107407142Y-78164285D01*
X107450000Y-78250000D01*
X107492857Y-78292857D01*
X107578571Y-78335714D01*
X107664285Y-78335714D01*
X107750000Y-78292857D01*
X107792857Y-78250000D01*
X107835714Y-78164285D01*
X107835714Y-77864285D01*
X108221428Y-79278571D02*
X108264285Y-79235714D01*
X108307142Y-79107142D01*
X108307142Y-79021428D01*
X108264285Y-78892857D01*
X108178571Y-78807142D01*
X108092857Y-78764285D01*
X107921428Y-78721428D01*
X107792857Y-78721428D01*
X107621428Y-78764285D01*
X107535714Y-78807142D01*
X107450000Y-78892857D01*
X107407142Y-79021428D01*
X107407142Y-79107142D01*
X107450000Y-79235714D01*
X107492857Y-79278571D01*
X108307142Y-80135714D02*
X108307142Y-79621428D01*
X108307142Y-79878571D02*
X107407142Y-79878571D01*
X107535714Y-79792857D01*
X107621428Y-79707142D01*
X107664285Y-79621428D01*
X108221428Y-80521428D02*
X108264285Y-80564285D01*
X108307142Y-80521428D01*
X108264285Y-80478571D01*
X108221428Y-80521428D01*
X108307142Y-80521428D01*
X107492857Y-80907142D02*
X107450000Y-80950000D01*
X107407142Y-81035714D01*
X107407142Y-81250000D01*
X107450000Y-81335714D01*
X107492857Y-81378571D01*
X107578571Y-81421428D01*
X107664285Y-81421428D01*
X107792857Y-81378571D01*
X108307142Y-80864285D01*
X108307142Y-81421428D01*
X142450000Y-85707142D02*
X142150000Y-86607142D01*
X141850000Y-85707142D01*
X141250000Y-86135714D02*
X141121428Y-86178571D01*
X141078571Y-86221428D01*
X141035714Y-86307142D01*
X141035714Y-86435714D01*
X141078571Y-86521428D01*
X141121428Y-86564285D01*
X141207142Y-86607142D01*
X141550000Y-86607142D01*
X141550000Y-85707142D01*
X141250000Y-85707142D01*
X141164285Y-85750000D01*
X141121428Y-85792857D01*
X141078571Y-85878571D01*
X141078571Y-85964285D01*
X141121428Y-86050000D01*
X141164285Y-86092857D01*
X141250000Y-86135714D01*
X141550000Y-86135714D01*
X140650000Y-85707142D02*
X140650000Y-86435714D01*
X140607142Y-86521428D01*
X140564285Y-86564285D01*
X140478571Y-86607142D01*
X140307142Y-86607142D01*
X140221428Y-86564285D01*
X140178571Y-86521428D01*
X140135714Y-86435714D01*
X140135714Y-85707142D01*
X139750000Y-86564285D02*
X139621428Y-86607142D01*
X139407142Y-86607142D01*
X139321428Y-86564285D01*
X139278571Y-86521428D01*
X139235714Y-86435714D01*
X139235714Y-86350000D01*
X139278571Y-86264285D01*
X139321428Y-86221428D01*
X139407142Y-86178571D01*
X139578571Y-86135714D01*
X139664285Y-86092857D01*
X139707142Y-86050000D01*
X139750000Y-85964285D01*
X139750000Y-85878571D01*
X139707142Y-85792857D01*
X139664285Y-85750000D01*
X139578571Y-85707142D01*
X139364285Y-85707142D01*
X139235714Y-85750000D01*
X106978571Y-97907142D02*
X107278571Y-97478571D01*
X107492857Y-97907142D02*
X107492857Y-97007142D01*
X107150000Y-97007142D01*
X107064285Y-97050000D01*
X107021428Y-97092857D01*
X106978571Y-97178571D01*
X106978571Y-97307142D01*
X107021428Y-97392857D01*
X107064285Y-97435714D01*
X107150000Y-97478571D01*
X107492857Y-97478571D01*
X106592857Y-97435714D02*
X106292857Y-97435714D01*
X106164285Y-97907142D02*
X106592857Y-97907142D01*
X106592857Y-97007142D01*
X106164285Y-97007142D01*
X105307142Y-97050000D02*
X105392857Y-97007142D01*
X105521428Y-97007142D01*
X105650000Y-97050000D01*
X105735714Y-97135714D01*
X105778571Y-97221428D01*
X105821428Y-97392857D01*
X105821428Y-97521428D01*
X105778571Y-97692857D01*
X105735714Y-97778571D01*
X105650000Y-97864285D01*
X105521428Y-97907142D01*
X105435714Y-97907142D01*
X105307142Y-97864285D01*
X105264285Y-97821428D01*
X105264285Y-97521428D01*
X105435714Y-97521428D01*
X107085714Y-100850000D02*
X107171428Y-100807142D01*
X107300000Y-100807142D01*
X107428571Y-100850000D01*
X107514285Y-100935714D01*
X107557142Y-101021428D01*
X107600000Y-101192857D01*
X107600000Y-101321428D01*
X107557142Y-101492857D01*
X107514285Y-101578571D01*
X107428571Y-101664285D01*
X107300000Y-101707142D01*
X107214285Y-101707142D01*
X107085714Y-101664285D01*
X107042857Y-101621428D01*
X107042857Y-101321428D01*
X107214285Y-101321428D01*
X106657142Y-101707142D02*
X106657142Y-100807142D01*
X106142857Y-101707142D01*
X106142857Y-100807142D01*
X105714285Y-101707142D02*
X105714285Y-100807142D01*
X105500000Y-100807142D01*
X105371428Y-100850000D01*
X105285714Y-100935714D01*
X105242857Y-101021428D01*
X105200000Y-101192857D01*
X105200000Y-101321428D01*
X105242857Y-101492857D01*
X105285714Y-101578571D01*
X105371428Y-101664285D01*
X105500000Y-101707142D01*
X105714285Y-101707142D01*
D10*
X124850000Y-52540000D02*
X121650000Y-52540000D01*
X124850000Y-55460000D02*
X121650000Y-55460000D01*
X115695000Y-62280000D02*
X120910000Y-62280000D01*
X115695000Y-66220000D02*
X115695000Y-62280000D01*
X120910000Y-66220000D02*
X115695000Y-66220000D01*
D11*
X115520000Y-64250000D02*
G75*
G03X115520000Y-64250000I-75000J0D01*
G01*
D12*
X123764285Y-56585714D02*
X123802380Y-56623809D01*
X123916666Y-56661904D01*
X123992857Y-56661904D01*
X124107142Y-56623809D01*
X124183333Y-56547619D01*
X124221428Y-56471428D01*
X124259523Y-56319047D01*
X124259523Y-56204761D01*
X124221428Y-56052380D01*
X124183333Y-55976190D01*
X124107142Y-55900000D01*
X123992857Y-55861904D01*
X123916666Y-55861904D01*
X123802380Y-55900000D01*
X123764285Y-55938095D01*
X123002380Y-56661904D02*
X123459523Y-56661904D01*
X123230952Y-56661904D02*
X123230952Y-55861904D01*
X123307142Y-55976190D01*
X123383333Y-56052380D01*
X123459523Y-56090476D01*
X122545238Y-56204761D02*
X122621428Y-56166666D01*
X122659523Y-56128571D01*
X122697619Y-56052380D01*
X122697619Y-56014285D01*
X122659523Y-55938095D01*
X122621428Y-55900000D01*
X122545238Y-55861904D01*
X122392857Y-55861904D01*
X122316666Y-55900000D01*
X122278571Y-55938095D01*
X122240476Y-56014285D01*
X122240476Y-56052380D01*
X122278571Y-56128571D01*
X122316666Y-56166666D01*
X122392857Y-56204761D01*
X122545238Y-56204761D01*
X122621428Y-56242857D01*
X122659523Y-56280952D01*
X122697619Y-56357142D01*
X122697619Y-56509523D01*
X122659523Y-56585714D01*
X122621428Y-56623809D01*
X122545238Y-56661904D01*
X122392857Y-56661904D01*
X122316666Y-56623809D01*
X122278571Y-56585714D01*
X122240476Y-56509523D01*
X122240476Y-56357142D01*
X122278571Y-56280952D01*
X122316666Y-56242857D01*
X122392857Y-56204761D01*
X119390476Y-61761904D02*
X119390476Y-60961904D01*
X119200000Y-60961904D01*
X119085714Y-61000000D01*
X119009523Y-61076190D01*
X118971428Y-61152380D01*
X118933333Y-61304761D01*
X118933333Y-61419047D01*
X118971428Y-61571428D01*
X119009523Y-61647619D01*
X119085714Y-61723809D01*
X119200000Y-61761904D01*
X119390476Y-61761904D01*
X118628571Y-61038095D02*
X118590476Y-61000000D01*
X118514285Y-60961904D01*
X118323809Y-60961904D01*
X118247619Y-61000000D01*
X118209523Y-61038095D01*
X118171428Y-61114285D01*
X118171428Y-61190476D01*
X118209523Y-61304761D01*
X118666666Y-61761904D01*
X118171428Y-61761904D01*
M02*
